<?xml version="1.0" encoding="utf-8" standalone="no"?>
<!DOCTYPE svg PUBLIC "-//W3C//DTD SVG 1.1//EN"
  "http://www.w3.org/Graphics/SVG/1.1/DTD/svg11.dtd">
<svg xmlns:xlink="http://www.w3.org/1999/xlink" width="496.225475pt" height="351.354125pt" viewBox="0 0 496.225475 351.354125" xmlns="http://www.w3.org/2000/svg" version="1.1">
 <metadata>
  <rdf:RDF xmlns:dc="http://purl.org/dc/elements/1.1/" xmlns:cc="http://creativecommons.org/ns#" xmlns:rdf="http://www.w3.org/1999/02/22-rdf-syntax-ns#">
   <cc:Work>
    <dc:type rdf:resource="http://purl.org/dc/dcmitype/StillImage"/>
    <dc:date>2023-09-21T12:07:04.151201</dc:date>
    <dc:format>image/svg+xml</dc:format>
    <dc:creator>
     <cc:Agent>
      <dc:title>Matplotlib v3.7.1, https://matplotlib.org/</dc:title>
     </cc:Agent>
    </dc:creator>
   </cc:Work>
  </rdf:RDF>
 </metadata>
 <defs>
  <style type="text/css">*{stroke-linejoin: round; stroke-linecap: butt}</style>
 </defs>
 <g id="figure_1">
  <g id="patch_1">
   <path d="M 0 351.354125 
L 496.225475 351.354125 
L 496.225475 0 
L 0 0 
z
" style="fill: #ffffff"/>
  </g>
  <g id="axes_1">
   <g id="patch_2">
    <path d="M 63.62375 298.312875 
L 481.357921 298.312875 
L 481.357921 48.912875 
L 63.62375 48.912875 
z
" style="fill: #ffffff"/>
   </g>
   <g id="PolyCollection_1">
    <path d="M 157.196933 285.218936 
L 157.196933 286.976511 
L 157.196933 285.218936 
L 157.196933 285.218936 
z
" clip-path="url(#pa642cb8426)" style="fill: #1f77b4; fill-opacity: 0.2; stroke: #1f77b4; stroke-opacity: 0.2"/>
    <path d="M 164.810176 278.188633 
L 164.810176 279.946208 
L 164.810176 278.188633 
L 164.810176 278.188633 
z
" clip-path="url(#pa642cb8426)" style="fill: #1f77b4; fill-opacity: 0.2; stroke: #1f77b4; stroke-opacity: 0.2"/>
    <path d="M 167.506213 265.885602 
L 167.506213 267.643178 
L 167.506213 265.885602 
L 167.506213 265.885602 
z
" clip-path="url(#pa642cb8426)" style="fill: #1f77b4; fill-opacity: 0.2; stroke: #1f77b4; stroke-opacity: 0.2"/>
    <path d="M 179.08692 176.249239 
L 179.08692 178.006814 
L 179.08692 176.249239 
L 179.08692 176.249239 
z
" clip-path="url(#pa642cb8426)" style="fill: #1f77b4; fill-opacity: 0.2; stroke: #1f77b4; stroke-opacity: 0.2"/>
    <path d="M 179.745611 169.218936 
L 179.745611 170.976511 
L 179.745611 169.218936 
L 179.745611 169.218936 
z
" clip-path="url(#pa642cb8426)" style="fill: #1f77b4; fill-opacity: 0.2; stroke: #1f77b4; stroke-opacity: 0.2"/>
    <path d="M 181.078312 151.643178 
L 181.078312 153.400754 
L 181.078312 151.643178 
L 181.078312 151.643178 
z
" clip-path="url(#pa642cb8426)" style="fill: #1f77b4; fill-opacity: 0.2; stroke: #1f77b4; stroke-opacity: 0.2"/>
    <path d="M 183.023748 130.552269 
L 183.023748 132.309845 
L 183.023748 130.552269 
L 183.023748 130.552269 
z
" clip-path="url(#pa642cb8426)" style="fill: #1f77b4; fill-opacity: 0.2; stroke: #1f77b4; stroke-opacity: 0.2"/>
    <path d="M 191.969691 79.582572 
L 191.969691 81.340148 
L 191.969691 79.582572 
L 191.969691 79.582572 
z
" clip-path="url(#pa642cb8426)" style="fill: #1f77b4; fill-opacity: 0.2; stroke: #1f77b4; stroke-opacity: 0.2"/>
    <path d="M 198.449372 60.249239 
L 198.449372 62.006814 
L 198.449372 60.249239 
L 198.449372 60.249239 
z
" clip-path="url(#pa642cb8426)" style="fill: #1f77b4; fill-opacity: 0.2; stroke: #1f77b4; stroke-opacity: 0.2"/>
   </g>
   <g id="PolyCollection_2">
    <path d="M 82.611667 285.218936 
L 82.611667 286.976511 
L 82.611667 285.218936 
L 82.611667 285.218936 
z
" clip-path="url(#pa642cb8426)" style="fill: #ff7f0e; fill-opacity: 0.2; stroke: #ff7f0e; stroke-opacity: 0.2"/>
    <path d="M 124.630025 237.76439 
L 124.630025 239.521966 
L 124.630025 237.76439 
L 124.630025 237.76439 
z
" clip-path="url(#pa642cb8426)" style="fill: #ff7f0e; fill-opacity: 0.2; stroke: #ff7f0e; stroke-opacity: 0.2"/>
    <path d="M 158.606226 174.491663 
L 158.606226 176.249239 
L 158.606226 174.491663 
L 158.606226 174.491663 
z
" clip-path="url(#pa642cb8426)" style="fill: #ff7f0e; fill-opacity: 0.2; stroke: #ff7f0e; stroke-opacity: 0.2"/>
    <path d="M 462.370004 60.249239 
L 462.370004 62.006814 
L 462.370004 60.249239 
L 462.370004 60.249239 
z
" clip-path="url(#pa642cb8426)" style="fill: #ff7f0e; fill-opacity: 0.2; stroke: #ff7f0e; stroke-opacity: 0.2"/>
   </g>
   <g id="PolyCollection_3">
    <path d="M 109.158446 285.218936 
L 109.158446 286.976511 
L 109.158446 285.218936 
L 109.158446 285.218936 
z
" clip-path="url(#pa642cb8426)" style="fill: #2ca02c; fill-opacity: 0.2; stroke: #2ca02c; stroke-opacity: 0.2"/>
    <path d="M 138.263397 228.976511 
L 138.263397 230.734087 
L 138.263397 228.976511 
L 138.263397 228.976511 
z
" clip-path="url(#pa642cb8426)" style="fill: #2ca02c; fill-opacity: 0.2; stroke: #2ca02c; stroke-opacity: 0.2"/>
    <path d="M 141.495578 211.400754 
L 141.495578 214.915905 
L 141.495578 211.400754 
L 141.495578 211.400754 
z
" clip-path="url(#pa642cb8426)" style="fill: #2ca02c; fill-opacity: 0.2; stroke: #2ca02c; stroke-opacity: 0.2"/>
    <path d="M 149.890059 141.097723 
L 149.890059 142.855299 
L 149.890059 141.097723 
L 149.890059 141.097723 
z
" clip-path="url(#pa642cb8426)" style="fill: #2ca02c; fill-opacity: 0.2; stroke: #2ca02c; stroke-opacity: 0.2"/>
    <path d="M 153.045648 111.218936 
L 153.045648 112.976511 
L 153.045648 111.218936 
L 153.045648 111.218936 
z
" clip-path="url(#pa642cb8426)" style="fill: #2ca02c; fill-opacity: 0.2; stroke: #2ca02c; stroke-opacity: 0.2"/>
    <path d="M 168.149586 60.249239 
L 168.149586 62.006814 
L 168.149586 60.249239 
L 168.149586 60.249239 
z
" clip-path="url(#pa642cb8426)" style="fill: #2ca02c; fill-opacity: 0.2; stroke: #2ca02c; stroke-opacity: 0.2"/>
   </g>
   <g id="matplotlib.axis_1">
    <g id="xtick_1">
     <g id="line2d_1">
      <path d="M 95.249343 298.312875 
L 95.249343 48.912875 
" clip-path="url(#pa642cb8426)" style="fill: none; stroke: #b0b0b0; stroke-width: 0.8; stroke-linecap: square"/>
     </g>
     <g id="line2d_2">
      <defs>
       <path id="m38de401fd5" d="M 0 0 
L 0 3.5 
" style="stroke: #000000; stroke-width: 0.8"/>
      </defs>
      <g>
       <use xlink:href="#m38de401fd5" x="95.249343" y="298.312875" style="stroke: #000000; stroke-width: 0.8"/>
      </g>
     </g>
     <g id="text_1">
      <!-- 50 -->
      <g transform="translate(84.433093 318.230219) scale(0.17 -0.17)">
       <defs>
        <path id="DejaVuSans-35" d="M 691 4666 
L 3169 4666 
L 3169 4134 
L 1269 4134 
L 1269 2991 
Q 1406 3038 1543 3061 
Q 1681 3084 1819 3084 
Q 2600 3084 3056 2656 
Q 3513 2228 3513 1497 
Q 3513 744 3044 326 
Q 2575 -91 1722 -91 
Q 1428 -91 1123 -41 
Q 819 9 494 109 
L 494 744 
Q 775 591 1075 516 
Q 1375 441 1709 441 
Q 2250 441 2565 725 
Q 2881 1009 2881 1497 
Q 2881 1984 2565 2268 
Q 2250 2553 1709 2553 
Q 1456 2553 1204 2497 
Q 953 2441 691 2322 
L 691 4666 
z
" transform="scale(0.015625)"/>
        <path id="DejaVuSans-30" d="M 2034 4250 
Q 1547 4250 1301 3770 
Q 1056 3291 1056 2328 
Q 1056 1369 1301 889 
Q 1547 409 2034 409 
Q 2525 409 2770 889 
Q 3016 1369 3016 2328 
Q 3016 3291 2770 3770 
Q 2525 4250 2034 4250 
z
M 2034 4750 
Q 2819 4750 3233 4129 
Q 3647 3509 3647 2328 
Q 3647 1150 3233 529 
Q 2819 -91 2034 -91 
Q 1250 -91 836 529 
Q 422 1150 422 2328 
Q 422 3509 836 4129 
Q 1250 4750 2034 4750 
z
" transform="scale(0.015625)"/>
       </defs>
       <use xlink:href="#DejaVuSans-35"/>
       <use xlink:href="#DejaVuSans-30" x="63.623047"/>
      </g>
     </g>
    </g>
    <g id="xtick_2">
     <g id="line2d_3">
      <path d="M 171.841319 298.312875 
L 171.841319 48.912875 
" clip-path="url(#pa642cb8426)" style="fill: none; stroke: #b0b0b0; stroke-width: 0.8; stroke-linecap: square"/>
     </g>
     <g id="line2d_4">
      <g>
       <use xlink:href="#m38de401fd5" x="171.841319" y="298.312875" style="stroke: #000000; stroke-width: 0.8"/>
      </g>
     </g>
     <g id="text_2">
      <!-- 55 -->
      <g transform="translate(161.025069 318.230219) scale(0.17 -0.17)">
       <use xlink:href="#DejaVuSans-35"/>
       <use xlink:href="#DejaVuSans-35" x="63.623047"/>
      </g>
     </g>
    </g>
    <g id="xtick_3">
     <g id="line2d_5">
      <path d="M 248.433296 298.312875 
L 248.433296 48.912875 
" clip-path="url(#pa642cb8426)" style="fill: none; stroke: #b0b0b0; stroke-width: 0.8; stroke-linecap: square"/>
     </g>
     <g id="line2d_6">
      <g>
       <use xlink:href="#m38de401fd5" x="248.433296" y="298.312875" style="stroke: #000000; stroke-width: 0.8"/>
      </g>
     </g>
     <g id="text_3">
      <!-- 60 -->
      <g transform="translate(237.617046 318.230219) scale(0.17 -0.17)">
       <defs>
        <path id="DejaVuSans-36" d="M 2113 2584 
Q 1688 2584 1439 2293 
Q 1191 2003 1191 1497 
Q 1191 994 1439 701 
Q 1688 409 2113 409 
Q 2538 409 2786 701 
Q 3034 994 3034 1497 
Q 3034 2003 2786 2293 
Q 2538 2584 2113 2584 
z
M 3366 4563 
L 3366 3988 
Q 3128 4100 2886 4159 
Q 2644 4219 2406 4219 
Q 1781 4219 1451 3797 
Q 1122 3375 1075 2522 
Q 1259 2794 1537 2939 
Q 1816 3084 2150 3084 
Q 2853 3084 3261 2657 
Q 3669 2231 3669 1497 
Q 3669 778 3244 343 
Q 2819 -91 2113 -91 
Q 1303 -91 875 529 
Q 447 1150 447 2328 
Q 447 3434 972 4092 
Q 1497 4750 2381 4750 
Q 2619 4750 2861 4703 
Q 3103 4656 3366 4563 
z
" transform="scale(0.015625)"/>
       </defs>
       <use xlink:href="#DejaVuSans-36"/>
       <use xlink:href="#DejaVuSans-30" x="63.623047"/>
      </g>
     </g>
    </g>
    <g id="xtick_4">
     <g id="line2d_7">
      <path d="M 325.025272 298.312875 
L 325.025272 48.912875 
" clip-path="url(#pa642cb8426)" style="fill: none; stroke: #b0b0b0; stroke-width: 0.8; stroke-linecap: square"/>
     </g>
     <g id="line2d_8">
      <g>
       <use xlink:href="#m38de401fd5" x="325.025272" y="298.312875" style="stroke: #000000; stroke-width: 0.8"/>
      </g>
     </g>
     <g id="text_4">
      <!-- 65 -->
      <g transform="translate(314.209022 318.230219) scale(0.17 -0.17)">
       <use xlink:href="#DejaVuSans-36"/>
       <use xlink:href="#DejaVuSans-35" x="63.623047"/>
      </g>
     </g>
    </g>
    <g id="xtick_5">
     <g id="line2d_9">
      <path d="M 401.617248 298.312875 
L 401.617248 48.912875 
" clip-path="url(#pa642cb8426)" style="fill: none; stroke: #b0b0b0; stroke-width: 0.8; stroke-linecap: square"/>
     </g>
     <g id="line2d_10">
      <g>
       <use xlink:href="#m38de401fd5" x="401.617248" y="298.312875" style="stroke: #000000; stroke-width: 0.8"/>
      </g>
     </g>
     <g id="text_5">
      <!-- 70 -->
      <g transform="translate(390.800998 318.230219) scale(0.17 -0.17)">
       <defs>
        <path id="DejaVuSans-37" d="M 525 4666 
L 3525 4666 
L 3525 4397 
L 1831 0 
L 1172 0 
L 2766 4134 
L 525 4134 
L 525 4666 
z
" transform="scale(0.015625)"/>
       </defs>
       <use xlink:href="#DejaVuSans-37"/>
       <use xlink:href="#DejaVuSans-30" x="63.623047"/>
      </g>
     </g>
    </g>
    <g id="xtick_6">
     <g id="line2d_11">
      <path d="M 478.209225 298.312875 
L 478.209225 48.912875 
" clip-path="url(#pa642cb8426)" style="fill: none; stroke: #b0b0b0; stroke-width: 0.8; stroke-linecap: square"/>
     </g>
     <g id="line2d_12">
      <g>
       <use xlink:href="#m38de401fd5" x="478.209225" y="298.312875" style="stroke: #000000; stroke-width: 0.8"/>
      </g>
     </g>
     <g id="text_6">
      <!-- 75 -->
      <g transform="translate(467.392975 318.230219) scale(0.17 -0.17)">
       <use xlink:href="#DejaVuSans-37"/>
       <use xlink:href="#DejaVuSans-35" x="63.623047"/>
      </g>
     </g>
    </g>
    <g id="text_7">
     <!-- Flow Completion Time (us) -->
     <g transform="translate(145.708882 340.202719) scale(0.19 -0.19)">
      <defs>
       <path id="DejaVuSans-46" d="M 628 4666 
L 3309 4666 
L 3309 4134 
L 1259 4134 
L 1259 2759 
L 3109 2759 
L 3109 2228 
L 1259 2228 
L 1259 0 
L 628 0 
L 628 4666 
z
" transform="scale(0.015625)"/>
       <path id="DejaVuSans-6c" d="M 603 4863 
L 1178 4863 
L 1178 0 
L 603 0 
L 603 4863 
z
" transform="scale(0.015625)"/>
       <path id="DejaVuSans-6f" d="M 1959 3097 
Q 1497 3097 1228 2736 
Q 959 2375 959 1747 
Q 959 1119 1226 758 
Q 1494 397 1959 397 
Q 2419 397 2687 759 
Q 2956 1122 2956 1747 
Q 2956 2369 2687 2733 
Q 2419 3097 1959 3097 
z
M 1959 3584 
Q 2709 3584 3137 3096 
Q 3566 2609 3566 1747 
Q 3566 888 3137 398 
Q 2709 -91 1959 -91 
Q 1206 -91 779 398 
Q 353 888 353 1747 
Q 353 2609 779 3096 
Q 1206 3584 1959 3584 
z
" transform="scale(0.015625)"/>
       <path id="DejaVuSans-77" d="M 269 3500 
L 844 3500 
L 1563 769 
L 2278 3500 
L 2956 3500 
L 3675 769 
L 4391 3500 
L 4966 3500 
L 4050 0 
L 3372 0 
L 2619 2869 
L 1863 0 
L 1184 0 
L 269 3500 
z
" transform="scale(0.015625)"/>
       <path id="DejaVuSans-20" transform="scale(0.015625)"/>
       <path id="DejaVuSans-43" d="M 4122 4306 
L 4122 3641 
Q 3803 3938 3442 4084 
Q 3081 4231 2675 4231 
Q 1875 4231 1450 3742 
Q 1025 3253 1025 2328 
Q 1025 1406 1450 917 
Q 1875 428 2675 428 
Q 3081 428 3442 575 
Q 3803 722 4122 1019 
L 4122 359 
Q 3791 134 3420 21 
Q 3050 -91 2638 -91 
Q 1578 -91 968 557 
Q 359 1206 359 2328 
Q 359 3453 968 4101 
Q 1578 4750 2638 4750 
Q 3056 4750 3426 4639 
Q 3797 4528 4122 4306 
z
" transform="scale(0.015625)"/>
       <path id="DejaVuSans-6d" d="M 3328 2828 
Q 3544 3216 3844 3400 
Q 4144 3584 4550 3584 
Q 5097 3584 5394 3201 
Q 5691 2819 5691 2113 
L 5691 0 
L 5113 0 
L 5113 2094 
Q 5113 2597 4934 2840 
Q 4756 3084 4391 3084 
Q 3944 3084 3684 2787 
Q 3425 2491 3425 1978 
L 3425 0 
L 2847 0 
L 2847 2094 
Q 2847 2600 2669 2842 
Q 2491 3084 2119 3084 
Q 1678 3084 1418 2786 
Q 1159 2488 1159 1978 
L 1159 0 
L 581 0 
L 581 3500 
L 1159 3500 
L 1159 2956 
Q 1356 3278 1631 3431 
Q 1906 3584 2284 3584 
Q 2666 3584 2933 3390 
Q 3200 3197 3328 2828 
z
" transform="scale(0.015625)"/>
       <path id="DejaVuSans-70" d="M 1159 525 
L 1159 -1331 
L 581 -1331 
L 581 3500 
L 1159 3500 
L 1159 2969 
Q 1341 3281 1617 3432 
Q 1894 3584 2278 3584 
Q 2916 3584 3314 3078 
Q 3713 2572 3713 1747 
Q 3713 922 3314 415 
Q 2916 -91 2278 -91 
Q 1894 -91 1617 61 
Q 1341 213 1159 525 
z
M 3116 1747 
Q 3116 2381 2855 2742 
Q 2594 3103 2138 3103 
Q 1681 3103 1420 2742 
Q 1159 2381 1159 1747 
Q 1159 1113 1420 752 
Q 1681 391 2138 391 
Q 2594 391 2855 752 
Q 3116 1113 3116 1747 
z
" transform="scale(0.015625)"/>
       <path id="DejaVuSans-65" d="M 3597 1894 
L 3597 1613 
L 953 1613 
Q 991 1019 1311 708 
Q 1631 397 2203 397 
Q 2534 397 2845 478 
Q 3156 559 3463 722 
L 3463 178 
Q 3153 47 2828 -22 
Q 2503 -91 2169 -91 
Q 1331 -91 842 396 
Q 353 884 353 1716 
Q 353 2575 817 3079 
Q 1281 3584 2069 3584 
Q 2775 3584 3186 3129 
Q 3597 2675 3597 1894 
z
M 3022 2063 
Q 3016 2534 2758 2815 
Q 2500 3097 2075 3097 
Q 1594 3097 1305 2825 
Q 1016 2553 972 2059 
L 3022 2063 
z
" transform="scale(0.015625)"/>
       <path id="DejaVuSans-74" d="M 1172 4494 
L 1172 3500 
L 2356 3500 
L 2356 3053 
L 1172 3053 
L 1172 1153 
Q 1172 725 1289 603 
Q 1406 481 1766 481 
L 2356 481 
L 2356 0 
L 1766 0 
Q 1100 0 847 248 
Q 594 497 594 1153 
L 594 3053 
L 172 3053 
L 172 3500 
L 594 3500 
L 594 4494 
L 1172 4494 
z
" transform="scale(0.015625)"/>
       <path id="DejaVuSans-69" d="M 603 3500 
L 1178 3500 
L 1178 0 
L 603 0 
L 603 3500 
z
M 603 4863 
L 1178 4863 
L 1178 4134 
L 603 4134 
L 603 4863 
z
" transform="scale(0.015625)"/>
       <path id="DejaVuSans-6e" d="M 3513 2113 
L 3513 0 
L 2938 0 
L 2938 2094 
Q 2938 2591 2744 2837 
Q 2550 3084 2163 3084 
Q 1697 3084 1428 2787 
Q 1159 2491 1159 1978 
L 1159 0 
L 581 0 
L 581 3500 
L 1159 3500 
L 1159 2956 
Q 1366 3272 1645 3428 
Q 1925 3584 2291 3584 
Q 2894 3584 3203 3211 
Q 3513 2838 3513 2113 
z
" transform="scale(0.015625)"/>
       <path id="DejaVuSans-54" d="M -19 4666 
L 3928 4666 
L 3928 4134 
L 2272 4134 
L 2272 0 
L 1638 0 
L 1638 4134 
L -19 4134 
L -19 4666 
z
" transform="scale(0.015625)"/>
       <path id="DejaVuSans-28" d="M 1984 4856 
Q 1566 4138 1362 3434 
Q 1159 2731 1159 2009 
Q 1159 1288 1364 580 
Q 1569 -128 1984 -844 
L 1484 -844 
Q 1016 -109 783 600 
Q 550 1309 550 2009 
Q 550 2706 781 3412 
Q 1013 4119 1484 4856 
L 1984 4856 
z
" transform="scale(0.015625)"/>
       <path id="DejaVuSans-75" d="M 544 1381 
L 544 3500 
L 1119 3500 
L 1119 1403 
Q 1119 906 1312 657 
Q 1506 409 1894 409 
Q 2359 409 2629 706 
Q 2900 1003 2900 1516 
L 2900 3500 
L 3475 3500 
L 3475 0 
L 2900 0 
L 2900 538 
Q 2691 219 2414 64 
Q 2138 -91 1772 -91 
Q 1169 -91 856 284 
Q 544 659 544 1381 
z
M 1991 3584 
L 1991 3584 
z
" transform="scale(0.015625)"/>
       <path id="DejaVuSans-73" d="M 2834 3397 
L 2834 2853 
Q 2591 2978 2328 3040 
Q 2066 3103 1784 3103 
Q 1356 3103 1142 2972 
Q 928 2841 928 2578 
Q 928 2378 1081 2264 
Q 1234 2150 1697 2047 
L 1894 2003 
Q 2506 1872 2764 1633 
Q 3022 1394 3022 966 
Q 3022 478 2636 193 
Q 2250 -91 1575 -91 
Q 1294 -91 989 -36 
Q 684 19 347 128 
L 347 722 
Q 666 556 975 473 
Q 1284 391 1588 391 
Q 1994 391 2212 530 
Q 2431 669 2431 922 
Q 2431 1156 2273 1281 
Q 2116 1406 1581 1522 
L 1381 1569 
Q 847 1681 609 1914 
Q 372 2147 372 2553 
Q 372 3047 722 3315 
Q 1072 3584 1716 3584 
Q 2034 3584 2315 3537 
Q 2597 3491 2834 3397 
z
" transform="scale(0.015625)"/>
       <path id="DejaVuSans-29" d="M 513 4856 
L 1013 4856 
Q 1481 4119 1714 3412 
Q 1947 2706 1947 2009 
Q 1947 1309 1714 600 
Q 1481 -109 1013 -844 
L 513 -844 
Q 928 -128 1133 580 
Q 1338 1288 1338 2009 
Q 1338 2731 1133 3434 
Q 928 4138 513 4856 
z
" transform="scale(0.015625)"/>
      </defs>
      <use xlink:href="#DejaVuSans-46"/>
      <use xlink:href="#DejaVuSans-6c" x="57.519531"/>
      <use xlink:href="#DejaVuSans-6f" x="85.302734"/>
      <use xlink:href="#DejaVuSans-77" x="146.484375"/>
      <use xlink:href="#DejaVuSans-20" x="228.271484"/>
      <use xlink:href="#DejaVuSans-43" x="260.058594"/>
      <use xlink:href="#DejaVuSans-6f" x="329.882812"/>
      <use xlink:href="#DejaVuSans-6d" x="391.064453"/>
      <use xlink:href="#DejaVuSans-70" x="488.476562"/>
      <use xlink:href="#DejaVuSans-6c" x="551.953125"/>
      <use xlink:href="#DejaVuSans-65" x="579.736328"/>
      <use xlink:href="#DejaVuSans-74" x="641.259766"/>
      <use xlink:href="#DejaVuSans-69" x="680.46875"/>
      <use xlink:href="#DejaVuSans-6f" x="708.251953"/>
      <use xlink:href="#DejaVuSans-6e" x="769.433594"/>
      <use xlink:href="#DejaVuSans-20" x="832.8125"/>
      <use xlink:href="#DejaVuSans-54" x="864.599609"/>
      <use xlink:href="#DejaVuSans-69" x="922.558594"/>
      <use xlink:href="#DejaVuSans-6d" x="950.341797"/>
      <use xlink:href="#DejaVuSans-65" x="1047.753906"/>
      <use xlink:href="#DejaVuSans-20" x="1109.277344"/>
      <use xlink:href="#DejaVuSans-28" x="1141.064453"/>
      <use xlink:href="#DejaVuSans-75" x="1180.078125"/>
      <use xlink:href="#DejaVuSans-73" x="1243.457031"/>
      <use xlink:href="#DejaVuSans-29" x="1295.556641"/>
     </g>
    </g>
   </g>
   <g id="matplotlib.axis_2">
    <g id="ytick_1">
     <g id="line2d_13">
      <path d="M 63.62375 288.734087 
L 481.357921 288.734087 
" clip-path="url(#pa642cb8426)" style="fill: none; stroke: #b0b0b0; stroke-width: 0.8; stroke-linecap: square"/>
     </g>
     <g id="line2d_14">
      <defs>
       <path id="m20ee3bf775" d="M 0 0 
L -3.5 0 
" style="stroke: #000000; stroke-width: 0.8"/>
      </defs>
      <g>
       <use xlink:href="#m20ee3bf775" x="63.62375" y="288.734087" style="stroke: #000000; stroke-width: 0.8"/>
      </g>
     </g>
     <g id="text_8">
      <!-- 0.0 -->
      <g transform="translate(29.588438 295.192759) scale(0.17 -0.17)">
       <defs>
        <path id="DejaVuSans-2e" d="M 684 794 
L 1344 794 
L 1344 0 
L 684 0 
L 684 794 
z
" transform="scale(0.015625)"/>
       </defs>
       <use xlink:href="#DejaVuSans-30"/>
       <use xlink:href="#DejaVuSans-2e" x="63.623047"/>
       <use xlink:href="#DejaVuSans-30" x="95.410156"/>
      </g>
     </g>
    </g>
    <g id="ytick_2">
     <g id="line2d_15">
      <path d="M 63.62375 243.037117 
L 481.357921 243.037117 
" clip-path="url(#pa642cb8426)" style="fill: none; stroke: #b0b0b0; stroke-width: 0.8; stroke-linecap: square"/>
     </g>
     <g id="line2d_16">
      <g>
       <use xlink:href="#m20ee3bf775" x="63.62375" y="243.037117" style="stroke: #000000; stroke-width: 0.8"/>
      </g>
     </g>
     <g id="text_9">
      <!-- 0.2 -->
      <g transform="translate(29.588438 249.495789) scale(0.17 -0.17)">
       <defs>
        <path id="DejaVuSans-32" d="M 1228 531 
L 3431 531 
L 3431 0 
L 469 0 
L 469 531 
Q 828 903 1448 1529 
Q 2069 2156 2228 2338 
Q 2531 2678 2651 2914 
Q 2772 3150 2772 3378 
Q 2772 3750 2511 3984 
Q 2250 4219 1831 4219 
Q 1534 4219 1204 4116 
Q 875 4013 500 3803 
L 500 4441 
Q 881 4594 1212 4672 
Q 1544 4750 1819 4750 
Q 2544 4750 2975 4387 
Q 3406 4025 3406 3419 
Q 3406 3131 3298 2873 
Q 3191 2616 2906 2266 
Q 2828 2175 2409 1742 
Q 1991 1309 1228 531 
z
" transform="scale(0.015625)"/>
       </defs>
       <use xlink:href="#DejaVuSans-30"/>
       <use xlink:href="#DejaVuSans-2e" x="63.623047"/>
       <use xlink:href="#DejaVuSans-32" x="95.410156"/>
      </g>
     </g>
    </g>
    <g id="ytick_3">
     <g id="line2d_17">
      <path d="M 63.62375 197.340148 
L 481.357921 197.340148 
" clip-path="url(#pa642cb8426)" style="fill: none; stroke: #b0b0b0; stroke-width: 0.8; stroke-linecap: square"/>
     </g>
     <g id="line2d_18">
      <g>
       <use xlink:href="#m20ee3bf775" x="63.62375" y="197.340148" style="stroke: #000000; stroke-width: 0.8"/>
      </g>
     </g>
     <g id="text_10">
      <!-- 0.4 -->
      <g transform="translate(29.588438 203.79882) scale(0.17 -0.17)">
       <defs>
        <path id="DejaVuSans-34" d="M 2419 4116 
L 825 1625 
L 2419 1625 
L 2419 4116 
z
M 2253 4666 
L 3047 4666 
L 3047 1625 
L 3713 1625 
L 3713 1100 
L 3047 1100 
L 3047 0 
L 2419 0 
L 2419 1100 
L 313 1100 
L 313 1709 
L 2253 4666 
z
" transform="scale(0.015625)"/>
       </defs>
       <use xlink:href="#DejaVuSans-30"/>
       <use xlink:href="#DejaVuSans-2e" x="63.623047"/>
       <use xlink:href="#DejaVuSans-34" x="95.410156"/>
      </g>
     </g>
    </g>
    <g id="ytick_4">
     <g id="line2d_19">
      <path d="M 63.62375 151.643178 
L 481.357921 151.643178 
" clip-path="url(#pa642cb8426)" style="fill: none; stroke: #b0b0b0; stroke-width: 0.8; stroke-linecap: square"/>
     </g>
     <g id="line2d_20">
      <g>
       <use xlink:href="#m20ee3bf775" x="63.62375" y="151.643178" style="stroke: #000000; stroke-width: 0.8"/>
      </g>
     </g>
     <g id="text_11">
      <!-- 0.6 -->
      <g transform="translate(29.588438 158.10185) scale(0.17 -0.17)">
       <use xlink:href="#DejaVuSans-30"/>
       <use xlink:href="#DejaVuSans-2e" x="63.623047"/>
       <use xlink:href="#DejaVuSans-36" x="95.410156"/>
      </g>
     </g>
    </g>
    <g id="ytick_5">
     <g id="line2d_21">
      <path d="M 63.62375 105.946208 
L 481.357921 105.946208 
" clip-path="url(#pa642cb8426)" style="fill: none; stroke: #b0b0b0; stroke-width: 0.8; stroke-linecap: square"/>
     </g>
     <g id="line2d_22">
      <g>
       <use xlink:href="#m20ee3bf775" x="63.62375" y="105.946208" style="stroke: #000000; stroke-width: 0.8"/>
      </g>
     </g>
     <g id="text_12">
      <!-- 0.8 -->
      <g transform="translate(29.588438 112.40488) scale(0.17 -0.17)">
       <defs>
        <path id="DejaVuSans-38" d="M 2034 2216 
Q 1584 2216 1326 1975 
Q 1069 1734 1069 1313 
Q 1069 891 1326 650 
Q 1584 409 2034 409 
Q 2484 409 2743 651 
Q 3003 894 3003 1313 
Q 3003 1734 2745 1975 
Q 2488 2216 2034 2216 
z
M 1403 2484 
Q 997 2584 770 2862 
Q 544 3141 544 3541 
Q 544 4100 942 4425 
Q 1341 4750 2034 4750 
Q 2731 4750 3128 4425 
Q 3525 4100 3525 3541 
Q 3525 3141 3298 2862 
Q 3072 2584 2669 2484 
Q 3125 2378 3379 2068 
Q 3634 1759 3634 1313 
Q 3634 634 3220 271 
Q 2806 -91 2034 -91 
Q 1263 -91 848 271 
Q 434 634 434 1313 
Q 434 1759 690 2068 
Q 947 2378 1403 2484 
z
M 1172 3481 
Q 1172 3119 1398 2916 
Q 1625 2713 2034 2713 
Q 2441 2713 2670 2916 
Q 2900 3119 2900 3481 
Q 2900 3844 2670 4047 
Q 2441 4250 2034 4250 
Q 1625 4250 1398 4047 
Q 1172 3844 1172 3481 
z
" transform="scale(0.015625)"/>
       </defs>
       <use xlink:href="#DejaVuSans-30"/>
       <use xlink:href="#DejaVuSans-2e" x="63.623047"/>
       <use xlink:href="#DejaVuSans-38" x="95.410156"/>
      </g>
     </g>
    </g>
    <g id="ytick_6">
     <g id="line2d_23">
      <path d="M 63.62375 60.249239 
L 481.357921 60.249239 
" clip-path="url(#pa642cb8426)" style="fill: none; stroke: #b0b0b0; stroke-width: 0.8; stroke-linecap: square"/>
     </g>
     <g id="line2d_24">
      <g>
       <use xlink:href="#m20ee3bf775" x="63.62375" y="60.249239" style="stroke: #000000; stroke-width: 0.8"/>
      </g>
     </g>
     <g id="text_13">
      <!-- 1.0 -->
      <g transform="translate(29.588438 66.707911) scale(0.17 -0.17)">
       <defs>
        <path id="DejaVuSans-31" d="M 794 531 
L 1825 531 
L 1825 4091 
L 703 3866 
L 703 4441 
L 1819 4666 
L 2450 4666 
L 2450 531 
L 3481 531 
L 3481 0 
L 794 0 
L 794 531 
z
" transform="scale(0.015625)"/>
       </defs>
       <use xlink:href="#DejaVuSans-31"/>
       <use xlink:href="#DejaVuSans-2e" x="63.623047"/>
       <use xlink:href="#DejaVuSans-30" x="95.410156"/>
      </g>
     </g>
    </g>
    <g id="text_14">
     <!-- CDF (%) -->
     <g transform="translate(21.637031 212.484203) rotate(-90) scale(0.19 -0.19)">
      <defs>
       <path id="DejaVuSans-44" d="M 1259 4147 
L 1259 519 
L 2022 519 
Q 2988 519 3436 956 
Q 3884 1394 3884 2338 
Q 3884 3275 3436 3711 
Q 2988 4147 2022 4147 
L 1259 4147 
z
M 628 4666 
L 1925 4666 
Q 3281 4666 3915 4102 
Q 4550 3538 4550 2338 
Q 4550 1131 3912 565 
Q 3275 0 1925 0 
L 628 0 
L 628 4666 
z
" transform="scale(0.015625)"/>
       <path id="DejaVuSans-25" d="M 4653 2053 
Q 4381 2053 4226 1822 
Q 4072 1591 4072 1178 
Q 4072 772 4226 539 
Q 4381 306 4653 306 
Q 4919 306 5073 539 
Q 5228 772 5228 1178 
Q 5228 1588 5073 1820 
Q 4919 2053 4653 2053 
z
M 4653 2450 
Q 5147 2450 5437 2106 
Q 5728 1763 5728 1178 
Q 5728 594 5436 251 
Q 5144 -91 4653 -91 
Q 4153 -91 3862 251 
Q 3572 594 3572 1178 
Q 3572 1766 3864 2108 
Q 4156 2450 4653 2450 
z
M 1428 4353 
Q 1159 4353 1004 4120 
Q 850 3888 850 3481 
Q 850 3069 1003 2837 
Q 1156 2606 1428 2606 
Q 1700 2606 1854 2837 
Q 2009 3069 2009 3481 
Q 2009 3884 1853 4118 
Q 1697 4353 1428 4353 
z
M 4250 4750 
L 4750 4750 
L 1831 -91 
L 1331 -91 
L 4250 4750 
z
M 1428 4750 
Q 1922 4750 2215 4408 
Q 2509 4066 2509 3481 
Q 2509 2891 2217 2550 
Q 1925 2209 1428 2209 
Q 931 2209 642 2551 
Q 353 2894 353 3481 
Q 353 4063 643 4406 
Q 934 4750 1428 4750 
z
" transform="scale(0.015625)"/>
      </defs>
      <use xlink:href="#DejaVuSans-43"/>
      <use xlink:href="#DejaVuSans-44" x="69.824219"/>
      <use xlink:href="#DejaVuSans-46" x="146.826172"/>
      <use xlink:href="#DejaVuSans-20" x="204.345703"/>
      <use xlink:href="#DejaVuSans-28" x="236.132812"/>
      <use xlink:href="#DejaVuSans-25" x="275.146484"/>
      <use xlink:href="#DejaVuSans-29" x="370.166016"/>
     </g>
    </g>
   </g>
   <g id="line2d_25">
    <path d="M 157.196933 286.097723 
L 163.538749 283.46136 
L 163.630659 281.703784 
L 164.810176 279.06742 
L 165.698643 276.431057 
L 165.989692 274.673481 
L 166.234787 272.915905 
L 167.123254 271.15833 
L 167.398985 269.400754 
L 167.506213 266.76439 
L 167.644079 264.128027 
L 168.118949 262.370451 
L 168.762322 260.612875 
L 169.06869 258.855299 
L 169.313784 257.097723 
L 169.880565 255.340148 
L 169.987793 253.582572 
L 170.232888 251.824996 
L 170.615848 250.06742 
L 170.69244 248.309845 
L 171.274539 246.552269 
L 171.289857 244.794693 
L 171.519633 243.037117 
L 171.657499 241.279542 
L 171.841319 239.521966 
L 171.917911 237.76439 
L 172.055777 236.006814 
L 172.071095 234.249239 
L 172.163006 232.491663 
L 172.484692 230.734087 
L 172.653194 228.976511 
L 173.128064 227.218936 
L 173.342522 225.46136 
L 173.373159 223.703784 
L 173.465069 221.946208 
L 173.863347 220.188633 
L 173.878666 218.431057 
L 173.985895 216.673481 
L 174.537357 214.915905 
L 174.659904 213.15833 
L 175.165411 211.400754 
L 175.180729 209.643178 
L 175.303277 207.885602 
L 175.425824 206.128027 
L 175.824102 204.370451 
L 175.83942 202.612875 
L 176.467475 200.855299 
L 176.482793 199.097723 
L 176.559385 197.340148 
L 176.574703 195.582572 
L 176.712569 193.824996 
L 177.126166 192.06742 
L 177.340623 190.309845 
L 177.723583 188.552269 
L 177.815493 186.794693 
L 177.861449 185.037117 
L 178.428229 183.279542 
L 178.458866 181.521966 
L 178.504821 179.76439 
L 179.08692 177.128027 
L 179.148194 174.491663 
L 179.316696 172.734087 
L 179.745611 170.097723 
L 179.806885 167.46136 
L 179.914114 165.703784 
L 179.975387 163.946208 
L 180.281755 162.188633 
L 180.388984 160.431057 
L 180.450257 158.673481 
L 180.557486 156.915905 
L 181.047675 155.15833 
L 181.078312 152.521966 
L 181.18554 149.885602 
L 181.721684 148.128027 
L 181.844231 146.370451 
L 181.920823 144.612875 
L 182.24251 142.855299 
L 182.365057 141.097723 
L 182.380375 139.340148 
L 182.487604 137.582572 
L 182.594833 135.824996 
L 182.947156 134.06742 
L 183.023748 131.431057 
L 183.146295 128.794693 
L 183.544573 127.037117 
L 183.66712 125.279542 
L 183.774349 123.521966 
L 184.203264 121.76439 
L 184.524951 120.006814 
L 184.877274 118.249239 
L 184.969184 116.491663 
L 185.091731 114.734087 
L 185.183642 112.976511 
L 185.505328 111.218936 
L 185.735104 109.46136 
L 185.842333 107.703784 
L 186.1487 105.946208 
L 186.301884 104.188633 
L 186.409113 102.431057 
L 186.485705 100.673481 
L 187.067804 98.915905 
L 189.380882 97.15833 
L 189.518747 95.400754 
L 190.054891 93.643178 
L 190.16212 91.885602 
L 190.652309 90.128027 
L 190.682945 88.370451 
L 190.820811 86.612875 
L 191.311 84.855299 
L 191.479502 83.097723 
L 191.969691 80.46136 
L 192.107556 77.824996 
L 192.613063 76.06742 
L 193.241117 74.309845 
L 193.271754 72.552269 
L 193.899808 70.794693 
L 194.558499 69.037117 
L 195.829926 67.279542 
L 196.488617 65.521966 
L 197.790681 63.76439 
L 198.449372 61.128027 
" clip-path="url(#pa642cb8426)" style="fill: none; stroke: #1f77b4; stroke-width: 3.5; stroke-linecap: square"/>
   </g>
   <g id="line2d_26">
    <path d="M 82.611667 286.097723 
L 83.285676 283.46136 
L 88.034379 281.703784 
L 90.332138 279.946208 
L 91.327834 278.188633 
L 94.360876 276.431057 
L 95.647621 274.673481 
L 98.496843 272.915905 
L 99.967409 271.15833 
L 101.284791 269.400754 
L 102.985133 267.643178 
L 105.819036 265.885602 
L 108.469118 264.128027 
L 109.357585 262.370451 
L 109.69459 260.612875 
L 112.942089 258.855299 
L 113.968422 257.097723 
L 114.65775 255.340148 
L 115.285804 253.582572 
L 115.684082 251.824996 
L 117.859294 250.06742 
L 119.804731 248.309845 
L 120.723834 246.552269 
L 122.041216 244.794693 
L 122.761181 243.037117 
L 123.864105 241.279542 
L 124.630025 238.643178 
L 124.660662 236.006814 
L 125.503174 234.249239 
L 125.978044 232.491663 
L 127.479247 230.734087 
L 127.785614 228.976511 
L 128.245166 227.218936 
L 128.30644 225.46136 
L 128.674081 223.703784 
L 129.731051 221.946208 
L 130.742065 220.188633 
L 132.335178 218.431057 
L 133.56065 216.673481 
L 133.989565 214.915905 
L 134.173385 213.15833 
L 135.506086 211.400754 
L 136.455826 209.643178 
L 137.46684 207.885602 
L 137.635343 206.128027 
L 138.110213 204.370451 
L 139.933102 202.612875 
L 141.832583 200.855299 
L 141.878538 199.097723 
L 142.123632 197.340148 
L 142.659776 195.582572 
L 143.778019 193.824996 
L 145.049446 192.06742 
L 145.187312 190.309845 
L 151.437217 188.552269 
L 152.019316 186.794693 
L 154.684717 185.037117 
L 156.139964 183.279542 
L 156.737382 181.521966 
L 156.7527 179.76439 
L 157.212252 178.006814 
L 158.606226 175.370451 
L 160.965259 172.734087 
L 169.25251 170.976511 
L 171.029444 169.218936 
L 171.795364 167.46136 
L 173.388477 165.703784 
L 180.61876 163.946208 
L 180.971083 162.188633 
L 188.201365 160.431057 
L 190.177438 158.673481 
L 194.221495 156.915905 
L 194.696365 155.15833 
L 199.598251 153.400754 
L 201.727508 151.643178 
L 202.723204 149.885602 
L 206.598758 148.128027 
L 209.049701 146.370451 
L 210.106671 144.612875 
L 211.990833 142.855299 
L 212.189972 141.097723 
L 213.461399 139.340148 
L 215.575338 137.582572 
L 215.897024 135.824996 
L 219.680668 134.06742 
L 221.748651 132.309845 
L 222.729028 130.552269 
L 224.475325 128.794693 
L 225.425066 127.037117 
L 231.49115 125.279542 
L 231.521787 123.521966 
L 232.25707 121.76439 
L 233.528497 120.006814 
L 235.550525 118.249239 
L 235.97944 116.491663 
L 237.250867 114.734087 
L 238.338473 112.976511 
L 239.686492 111.218936 
L 242.413166 109.46136 
L 242.612305 107.703784 
L 245.308343 105.946208 
L 245.507482 104.188633 
L 245.921079 102.431057 
L 246.564451 100.673481 
L 248.540524 98.915905 
L 249.321763 97.15833 
L 249.873225 95.400754 
L 254.422788 93.643178 
L 254.928295 91.885602 
L 257.517104 90.128027 
L 263.812964 88.370451 
L 295.613953 86.612875 
L 300.13288 84.855299 
L 323.447477 83.097723 
L 326.57243 81.340148 
L 330.784989 79.582572 
L 333.940578 77.824996 
L 339.424563 76.06742 
L 339.700295 74.309845 
L 340.236438 72.552269 
L 341.75296 70.794693 
L 352.843478 69.037117 
L 361.253277 67.279542 
L 388.964254 65.521966 
L 423.629782 63.76439 
L 462.370004 61.128027 
" clip-path="url(#pa642cb8426)" style="fill: none; stroke: #ff7f0e; stroke-width: 3.5; stroke-linecap: square"/>
   </g>
   <g id="line2d_27">
    <path d="M 109.158446 286.097723 
L 112.314035 283.46136 
L 112.834861 281.703784 
L 115.04071 279.946208 
L 118.824353 278.188633 
L 121.168068 276.431057 
L 121.949306 274.673481 
L 123.205414 272.915905 
L 123.251369 271.15833 
L 124.384931 269.400754 
L 125.288716 267.643178 
L 126.667372 265.885602 
L 127.785614 264.128027 
L 128.597489 262.370451 
L 129.822961 260.612875 
L 130.864612 258.855299 
L 131.615213 257.097723 
L 131.676487 255.340148 
L 131.799034 253.582572 
L 131.814352 251.824996 
L 132.258586 250.06742 
L 133.039824 248.309845 
L 133.637241 246.552269 
L 133.74447 244.794693 
L 134.694211 243.037117 
L 135.552041 241.279542 
L 136.272005 239.521966 
L 136.792831 237.76439 
L 137.558751 236.006814 
L 138.125531 234.249239 
L 138.202123 232.491663 
L 138.263397 229.855299 
L 138.447218 227.218936 
L 138.922088 225.46136 
L 140.193515 223.703784 
L 141.373031 221.946208 
L 141.388349 220.188633 
L 141.403668 218.431057 
L 141.48026 216.673481 
L 141.495578 213.15833 
L 141.526215 209.643178 
L 141.694717 207.885602 
L 142.644458 206.128027 
L 142.828279 204.370451 
L 143.180602 202.612875 
L 143.28783 200.855299 
L 143.318467 199.097723 
L 143.349104 197.340148 
L 143.839293 195.582572 
L 144.283526 193.824996 
L 144.467347 192.06742 
L 144.574576 190.309845 
L 144.605212 188.552269 
L 144.620531 186.794693 
L 144.697123 185.037117 
L 145.126038 183.279542 
L 145.233267 181.521966 
L 145.263903 179.76439 
L 145.29454 178.006814 
L 145.355814 176.249239 
L 146.412783 174.491663 
L 146.53533 172.734087 
L 146.642559 170.976511 
L 146.657877 169.218936 
L 146.688514 167.46136 
L 147.239976 165.703784 
L 147.285932 163.946208 
L 147.316568 162.188633 
L 147.331887 160.431057 
L 147.500389 158.673481 
L 147.898667 156.915905 
L 147.929304 155.15833 
L 148.587995 153.400754 
L 149.093502 151.643178 
L 149.154776 149.885602 
L 149.246686 148.128027 
L 149.262005 146.370451 
L 149.614328 144.612875 
L 149.890059 141.976511 
L 150.135153 139.340148 
L 150.533431 137.582572 
L 150.93171 135.824996 
L 151.100212 134.06742 
L 151.176804 132.309845 
L 151.421898 130.552269 
L 151.575082 128.794693 
L 151.682311 127.037117 
L 151.758903 125.279542 
L 151.820177 123.521966 
L 151.88145 121.76439 
L 152.402276 120.006814 
L 152.478868 118.249239 
L 152.877146 116.491663 
L 152.984375 114.734087 
L 153.045648 112.097723 
L 153.352016 109.46136 
L 153.673702 107.703784 
L 153.750294 105.946208 
L 154.010707 104.188633 
L 154.393667 102.431057 
L 154.408985 100.673481 
L 154.975766 98.915905 
L 155.052358 97.15833 
L 155.619139 95.400754 
L 155.649775 93.643178 
L 155.695731 91.885602 
L 156.859929 90.128027 
L 156.921202 88.370451 
L 156.951839 86.612875 
L 157.564575 84.855299 
L 157.579893 83.097723 
L 158.529634 81.340148 
L 158.805365 79.582572 
L 158.866638 77.824996 
L 158.912594 76.06742 
L 159.510011 74.309845 
L 159.525329 72.552269 
L 159.555966 70.794693 
L 160.107428 69.037117 
L 160.735483 67.279542 
L 160.812075 65.521966 
L 162.022228 63.76439 
L 168.149586 61.128027 
" clip-path="url(#pa642cb8426)" style="fill: none; stroke: #2ca02c; stroke-width: 3.5; stroke-linecap: square"/>
   </g>
   <g id="line2d_28">
    <path d="M 126.072405 298.312875 
L 126.072405 48.912875 
" clip-path="url(#pa642cb8426)" style="fill: none; stroke-dasharray: 12.95,5.6; stroke-dashoffset: 0; stroke: #808080; stroke-opacity: 0.5; stroke-width: 3.5"/>
   </g>
   <g id="patch_3">
    <path d="M 63.62375 298.312875 
L 63.62375 48.912875 
" style="fill: none; stroke: #000000; stroke-width: 0.8; stroke-linejoin: miter; stroke-linecap: square"/>
   </g>
   <g id="patch_4">
    <path d="M 481.357921 298.312875 
L 481.357921 48.912875 
" style="fill: none; stroke: #000000; stroke-width: 0.8; stroke-linejoin: miter; stroke-linecap: square"/>
   </g>
   <g id="patch_5">
    <path d="M 63.62375 298.312875 
L 481.357921 298.312875 
" style="fill: none; stroke: #000000; stroke-width: 0.8; stroke-linejoin: miter; stroke-linecap: square"/>
   </g>
   <g id="patch_6">
    <path d="M 63.62375 48.912875 
L 481.357921 48.912875 
" style="fill: none; stroke: #000000; stroke-width: 0.8; stroke-linejoin: miter; stroke-linecap: square"/>
   </g>
   <g id="text_15">
    <!-- Ideal Completion Time -->
    <g style="fill: #808080" transform="translate(119.075835 292.929288) rotate(-90) scale(0.17 -0.17)">
     <defs>
      <path id="DejaVuSans-49" d="M 628 4666 
L 1259 4666 
L 1259 0 
L 628 0 
L 628 4666 
z
" transform="scale(0.015625)"/>
      <path id="DejaVuSans-64" d="M 2906 2969 
L 2906 4863 
L 3481 4863 
L 3481 0 
L 2906 0 
L 2906 525 
Q 2725 213 2448 61 
Q 2172 -91 1784 -91 
Q 1150 -91 751 415 
Q 353 922 353 1747 
Q 353 2572 751 3078 
Q 1150 3584 1784 3584 
Q 2172 3584 2448 3432 
Q 2725 3281 2906 2969 
z
M 947 1747 
Q 947 1113 1208 752 
Q 1469 391 1925 391 
Q 2381 391 2643 752 
Q 2906 1113 2906 1747 
Q 2906 2381 2643 2742 
Q 2381 3103 1925 3103 
Q 1469 3103 1208 2742 
Q 947 2381 947 1747 
z
" transform="scale(0.015625)"/>
      <path id="DejaVuSans-61" d="M 2194 1759 
Q 1497 1759 1228 1600 
Q 959 1441 959 1056 
Q 959 750 1161 570 
Q 1363 391 1709 391 
Q 2188 391 2477 730 
Q 2766 1069 2766 1631 
L 2766 1759 
L 2194 1759 
z
M 3341 1997 
L 3341 0 
L 2766 0 
L 2766 531 
Q 2569 213 2275 61 
Q 1981 -91 1556 -91 
Q 1019 -91 701 211 
Q 384 513 384 1019 
Q 384 1609 779 1909 
Q 1175 2209 1959 2209 
L 2766 2209 
L 2766 2266 
Q 2766 2663 2505 2880 
Q 2244 3097 1772 3097 
Q 1472 3097 1187 3025 
Q 903 2953 641 2809 
L 641 3341 
Q 956 3463 1253 3523 
Q 1550 3584 1831 3584 
Q 2591 3584 2966 3190 
Q 3341 2797 3341 1997 
z
" transform="scale(0.015625)"/>
     </defs>
     <use xlink:href="#DejaVuSans-49"/>
     <use xlink:href="#DejaVuSans-64" x="29.492188"/>
     <use xlink:href="#DejaVuSans-65" x="92.96875"/>
     <use xlink:href="#DejaVuSans-61" x="154.492188"/>
     <use xlink:href="#DejaVuSans-6c" x="215.771484"/>
     <use xlink:href="#DejaVuSans-20" x="243.554688"/>
     <use xlink:href="#DejaVuSans-43" x="275.341797"/>
     <use xlink:href="#DejaVuSans-6f" x="345.166016"/>
     <use xlink:href="#DejaVuSans-6d" x="406.347656"/>
     <use xlink:href="#DejaVuSans-70" x="503.759766"/>
     <use xlink:href="#DejaVuSans-6c" x="567.236328"/>
     <use xlink:href="#DejaVuSans-65" x="595.019531"/>
     <use xlink:href="#DejaVuSans-74" x="656.542969"/>
     <use xlink:href="#DejaVuSans-69" x="695.751953"/>
     <use xlink:href="#DejaVuSans-6f" x="723.535156"/>
     <use xlink:href="#DejaVuSans-6e" x="784.716797"/>
     <use xlink:href="#DejaVuSans-20" x="848.095703"/>
     <use xlink:href="#DejaVuSans-54" x="879.882812"/>
     <use xlink:href="#DejaVuSans-69" x="937.841797"/>
     <use xlink:href="#DejaVuSans-6d" x="965.625"/>
     <use xlink:href="#DejaVuSans-65" x="1063.037109"/>
    </g>
   </g>
   <g id="text_16">
    <!-- Permutation 4:1 oversubscription 1MiB -->
    <g transform="translate(87.628257 21.637031) scale(0.19 -0.19)">
     <defs>
      <path id="DejaVuSans-50" d="M 1259 4147 
L 1259 2394 
L 2053 2394 
Q 2494 2394 2734 2622 
Q 2975 2850 2975 3272 
Q 2975 3691 2734 3919 
Q 2494 4147 2053 4147 
L 1259 4147 
z
M 628 4666 
L 2053 4666 
Q 2838 4666 3239 4311 
Q 3641 3956 3641 3272 
Q 3641 2581 3239 2228 
Q 2838 1875 2053 1875 
L 1259 1875 
L 1259 0 
L 628 0 
L 628 4666 
z
" transform="scale(0.015625)"/>
      <path id="DejaVuSans-72" d="M 2631 2963 
Q 2534 3019 2420 3045 
Q 2306 3072 2169 3072 
Q 1681 3072 1420 2755 
Q 1159 2438 1159 1844 
L 1159 0 
L 581 0 
L 581 3500 
L 1159 3500 
L 1159 2956 
Q 1341 3275 1631 3429 
Q 1922 3584 2338 3584 
Q 2397 3584 2469 3576 
Q 2541 3569 2628 3553 
L 2631 2963 
z
" transform="scale(0.015625)"/>
      <path id="DejaVuSans-3a" d="M 750 794 
L 1409 794 
L 1409 0 
L 750 0 
L 750 794 
z
M 750 3309 
L 1409 3309 
L 1409 2516 
L 750 2516 
L 750 3309 
z
" transform="scale(0.015625)"/>
      <path id="DejaVuSans-76" d="M 191 3500 
L 800 3500 
L 1894 563 
L 2988 3500 
L 3597 3500 
L 2284 0 
L 1503 0 
L 191 3500 
z
" transform="scale(0.015625)"/>
      <path id="DejaVuSans-62" d="M 3116 1747 
Q 3116 2381 2855 2742 
Q 2594 3103 2138 3103 
Q 1681 3103 1420 2742 
Q 1159 2381 1159 1747 
Q 1159 1113 1420 752 
Q 1681 391 2138 391 
Q 2594 391 2855 752 
Q 3116 1113 3116 1747 
z
M 1159 2969 
Q 1341 3281 1617 3432 
Q 1894 3584 2278 3584 
Q 2916 3584 3314 3078 
Q 3713 2572 3713 1747 
Q 3713 922 3314 415 
Q 2916 -91 2278 -91 
Q 1894 -91 1617 61 
Q 1341 213 1159 525 
L 1159 0 
L 581 0 
L 581 4863 
L 1159 4863 
L 1159 2969 
z
" transform="scale(0.015625)"/>
      <path id="DejaVuSans-63" d="M 3122 3366 
L 3122 2828 
Q 2878 2963 2633 3030 
Q 2388 3097 2138 3097 
Q 1578 3097 1268 2742 
Q 959 2388 959 1747 
Q 959 1106 1268 751 
Q 1578 397 2138 397 
Q 2388 397 2633 464 
Q 2878 531 3122 666 
L 3122 134 
Q 2881 22 2623 -34 
Q 2366 -91 2075 -91 
Q 1284 -91 818 406 
Q 353 903 353 1747 
Q 353 2603 823 3093 
Q 1294 3584 2113 3584 
Q 2378 3584 2631 3529 
Q 2884 3475 3122 3366 
z
" transform="scale(0.015625)"/>
      <path id="DejaVuSans-4d" d="M 628 4666 
L 1569 4666 
L 2759 1491 
L 3956 4666 
L 4897 4666 
L 4897 0 
L 4281 0 
L 4281 4097 
L 3078 897 
L 2444 897 
L 1241 4097 
L 1241 0 
L 628 0 
L 628 4666 
z
" transform="scale(0.015625)"/>
      <path id="DejaVuSans-42" d="M 1259 2228 
L 1259 519 
L 2272 519 
Q 2781 519 3026 730 
Q 3272 941 3272 1375 
Q 3272 1813 3026 2020 
Q 2781 2228 2272 2228 
L 1259 2228 
z
M 1259 4147 
L 1259 2741 
L 2194 2741 
Q 2656 2741 2882 2914 
Q 3109 3088 3109 3444 
Q 3109 3797 2882 3972 
Q 2656 4147 2194 4147 
L 1259 4147 
z
M 628 4666 
L 2241 4666 
Q 2963 4666 3353 4366 
Q 3744 4066 3744 3513 
Q 3744 3084 3544 2831 
Q 3344 2578 2956 2516 
Q 3422 2416 3680 2098 
Q 3938 1781 3938 1306 
Q 3938 681 3513 340 
Q 3088 0 2303 0 
L 628 0 
L 628 4666 
z
" transform="scale(0.015625)"/>
     </defs>
     <use xlink:href="#DejaVuSans-50"/>
     <use xlink:href="#DejaVuSans-65" x="56.677734"/>
     <use xlink:href="#DejaVuSans-72" x="118.201172"/>
     <use xlink:href="#DejaVuSans-6d" x="157.564453"/>
     <use xlink:href="#DejaVuSans-75" x="254.976562"/>
     <use xlink:href="#DejaVuSans-74" x="318.355469"/>
     <use xlink:href="#DejaVuSans-61" x="357.564453"/>
     <use xlink:href="#DejaVuSans-74" x="418.84375"/>
     <use xlink:href="#DejaVuSans-69" x="458.052734"/>
     <use xlink:href="#DejaVuSans-6f" x="485.835938"/>
     <use xlink:href="#DejaVuSans-6e" x="547.017578"/>
     <use xlink:href="#DejaVuSans-20" x="610.396484"/>
     <use xlink:href="#DejaVuSans-34" x="642.183594"/>
     <use xlink:href="#DejaVuSans-3a" x="705.806641"/>
     <use xlink:href="#DejaVuSans-31" x="739.498047"/>
     <use xlink:href="#DejaVuSans-20" x="803.121094"/>
     <use xlink:href="#DejaVuSans-6f" x="834.908203"/>
     <use xlink:href="#DejaVuSans-76" x="896.089844"/>
     <use xlink:href="#DejaVuSans-65" x="955.269531"/>
     <use xlink:href="#DejaVuSans-72" x="1016.792969"/>
     <use xlink:href="#DejaVuSans-73" x="1057.90625"/>
     <use xlink:href="#DejaVuSans-75" x="1110.005859"/>
     <use xlink:href="#DejaVuSans-62" x="1173.384766"/>
     <use xlink:href="#DejaVuSans-73" x="1236.861328"/>
     <use xlink:href="#DejaVuSans-63" x="1288.960938"/>
     <use xlink:href="#DejaVuSans-72" x="1343.941406"/>
     <use xlink:href="#DejaVuSans-69" x="1385.054688"/>
     <use xlink:href="#DejaVuSans-70" x="1412.837891"/>
     <use xlink:href="#DejaVuSans-74" x="1476.314453"/>
     <use xlink:href="#DejaVuSans-69" x="1515.523438"/>
     <use xlink:href="#DejaVuSans-6f" x="1543.306641"/>
     <use xlink:href="#DejaVuSans-6e" x="1604.488281"/>
     <use xlink:href="#DejaVuSans-20" x="1667.867188"/>
     <use xlink:href="#DejaVuSans-31" x="1699.654297"/>
     <use xlink:href="#DejaVuSans-4d" x="1763.277344"/>
     <use xlink:href="#DejaVuSans-69" x="1849.556641"/>
     <use xlink:href="#DejaVuSans-42" x="1877.339844"/>
    </g>
    <!-- Link Speed 800Gbps - 4KiB MTU -->
    <g transform="translate(119.840679 42.912875) scale(0.19 -0.19)">
     <defs>
      <path id="DejaVuSans-4c" d="M 628 4666 
L 1259 4666 
L 1259 531 
L 3531 531 
L 3531 0 
L 628 0 
L 628 4666 
z
" transform="scale(0.015625)"/>
      <path id="DejaVuSans-6b" d="M 581 4863 
L 1159 4863 
L 1159 1991 
L 2875 3500 
L 3609 3500 
L 1753 1863 
L 3688 0 
L 2938 0 
L 1159 1709 
L 1159 0 
L 581 0 
L 581 4863 
z
" transform="scale(0.015625)"/>
      <path id="DejaVuSans-53" d="M 3425 4513 
L 3425 3897 
Q 3066 4069 2747 4153 
Q 2428 4238 2131 4238 
Q 1616 4238 1336 4038 
Q 1056 3838 1056 3469 
Q 1056 3159 1242 3001 
Q 1428 2844 1947 2747 
L 2328 2669 
Q 3034 2534 3370 2195 
Q 3706 1856 3706 1288 
Q 3706 609 3251 259 
Q 2797 -91 1919 -91 
Q 1588 -91 1214 -16 
Q 841 59 441 206 
L 441 856 
Q 825 641 1194 531 
Q 1563 422 1919 422 
Q 2459 422 2753 634 
Q 3047 847 3047 1241 
Q 3047 1584 2836 1778 
Q 2625 1972 2144 2069 
L 1759 2144 
Q 1053 2284 737 2584 
Q 422 2884 422 3419 
Q 422 4038 858 4394 
Q 1294 4750 2059 4750 
Q 2388 4750 2728 4690 
Q 3069 4631 3425 4513 
z
" transform="scale(0.015625)"/>
      <path id="DejaVuSans-47" d="M 3809 666 
L 3809 1919 
L 2778 1919 
L 2778 2438 
L 4434 2438 
L 4434 434 
Q 4069 175 3628 42 
Q 3188 -91 2688 -91 
Q 1594 -91 976 548 
Q 359 1188 359 2328 
Q 359 3472 976 4111 
Q 1594 4750 2688 4750 
Q 3144 4750 3555 4637 
Q 3966 4525 4313 4306 
L 4313 3634 
Q 3963 3931 3569 4081 
Q 3175 4231 2741 4231 
Q 1884 4231 1454 3753 
Q 1025 3275 1025 2328 
Q 1025 1384 1454 906 
Q 1884 428 2741 428 
Q 3075 428 3337 486 
Q 3600 544 3809 666 
z
" transform="scale(0.015625)"/>
      <path id="DejaVuSans-2d" d="M 313 2009 
L 1997 2009 
L 1997 1497 
L 313 1497 
L 313 2009 
z
" transform="scale(0.015625)"/>
      <path id="DejaVuSans-4b" d="M 628 4666 
L 1259 4666 
L 1259 2694 
L 3353 4666 
L 4166 4666 
L 1850 2491 
L 4331 0 
L 3500 0 
L 1259 2247 
L 1259 0 
L 628 0 
L 628 4666 
z
" transform="scale(0.015625)"/>
      <path id="DejaVuSans-55" d="M 556 4666 
L 1191 4666 
L 1191 1831 
Q 1191 1081 1462 751 
Q 1734 422 2344 422 
Q 2950 422 3222 751 
Q 3494 1081 3494 1831 
L 3494 4666 
L 4128 4666 
L 4128 1753 
Q 4128 841 3676 375 
Q 3225 -91 2344 -91 
Q 1459 -91 1007 375 
Q 556 841 556 1753 
L 556 4666 
z
" transform="scale(0.015625)"/>
     </defs>
     <use xlink:href="#DejaVuSans-4c"/>
     <use xlink:href="#DejaVuSans-69" x="55.712891"/>
     <use xlink:href="#DejaVuSans-6e" x="83.496094"/>
     <use xlink:href="#DejaVuSans-6b" x="146.875"/>
     <use xlink:href="#DejaVuSans-20" x="204.785156"/>
     <use xlink:href="#DejaVuSans-53" x="236.572266"/>
     <use xlink:href="#DejaVuSans-70" x="300.048828"/>
     <use xlink:href="#DejaVuSans-65" x="363.525391"/>
     <use xlink:href="#DejaVuSans-65" x="425.048828"/>
     <use xlink:href="#DejaVuSans-64" x="486.572266"/>
     <use xlink:href="#DejaVuSans-20" x="550.048828"/>
     <use xlink:href="#DejaVuSans-38" x="581.835938"/>
     <use xlink:href="#DejaVuSans-30" x="645.458984"/>
     <use xlink:href="#DejaVuSans-30" x="709.082031"/>
     <use xlink:href="#DejaVuSans-47" x="772.705078"/>
     <use xlink:href="#DejaVuSans-62" x="850.195312"/>
     <use xlink:href="#DejaVuSans-70" x="913.671875"/>
     <use xlink:href="#DejaVuSans-73" x="977.148438"/>
     <use xlink:href="#DejaVuSans-20" x="1029.248047"/>
     <use xlink:href="#DejaVuSans-2d" x="1061.035156"/>
     <use xlink:href="#DejaVuSans-20" x="1097.119141"/>
     <use xlink:href="#DejaVuSans-34" x="1128.90625"/>
     <use xlink:href="#DejaVuSans-4b" x="1192.529297"/>
     <use xlink:href="#DejaVuSans-69" x="1258.105469"/>
     <use xlink:href="#DejaVuSans-42" x="1285.888672"/>
     <use xlink:href="#DejaVuSans-20" x="1354.492188"/>
     <use xlink:href="#DejaVuSans-4d" x="1386.279297"/>
     <use xlink:href="#DejaVuSans-54" x="1472.558594"/>
     <use xlink:href="#DejaVuSans-55" x="1533.642578"/>
    </g>
   </g>
   <g id="legend_1"/>
  </g>
 </g>
 <defs>
  <clipPath id="pa642cb8426">
   <rect x="63.62375" y="48.912875" width="417.734171" height="249.4"/>
  </clipPath>
 </defs>
</svg>
