<?xml version="1.0" encoding="utf-8" standalone="no"?>
<!DOCTYPE svg PUBLIC "-//W3C//DTD SVG 1.1//EN"
  "http://www.w3.org/Graphics/SVG/1.1/DTD/svg11.dtd">
<svg xmlns:xlink="http://www.w3.org/1999/xlink" width="495.8875pt" height="350.347625pt" viewBox="0 0 495.8875 350.347625" xmlns="http://www.w3.org/2000/svg" version="1.1">
 <metadata>
  <rdf:RDF xmlns:dc="http://purl.org/dc/elements/1.1/" xmlns:cc="http://creativecommons.org/ns#" xmlns:rdf="http://www.w3.org/1999/02/22-rdf-syntax-ns#">
   <cc:Work>
    <dc:type rdf:resource="http://purl.org/dc/dcmitype/StillImage"/>
    <dc:date>2023-09-21T14:51:44.045554</dc:date>
    <dc:format>image/svg+xml</dc:format>
    <dc:creator>
     <cc:Agent>
      <dc:title>Matplotlib v3.7.1, https://matplotlib.org/</dc:title>
     </cc:Agent>
    </dc:creator>
   </cc:Work>
  </rdf:RDF>
 </metadata>
 <defs>
  <style type="text/css">*{stroke-linejoin: round; stroke-linecap: butt}</style>
 </defs>
 <g id="figure_1">
  <g id="patch_1">
   <path d="M 0 350.347625 
L 495.8875 350.347625 
L 495.8875 0 
L 0 0 
z
" style="fill: #ffffff"/>
  </g>
  <g id="axes_1">
   <g id="patch_2">
    <path d="M 58.5075 301.177625 
L 488.6875 301.177625 
L 488.6875 45.153625 
L 58.5075 45.153625 
z
" style="fill: #ffffff"/>
   </g>
   <g id="PolyCollection_1">
    <path d="M 452.769791 289.313098 
L 452.769791 289.54017 
L 452.769791 289.313098 
L 452.769791 289.313098 
z
" clip-path="url(#peb18a2ba16)" style="fill: #1f77b4; fill-opacity: 0.2; stroke: #1f77b4; stroke-opacity: 0.2"/>
    <path d="M 456.247351 271.60146 
L 456.247351 271.828532 
L 456.247351 271.60146 
L 456.247351 271.60146 
z
" clip-path="url(#peb18a2ba16)" style="fill: #1f77b4; fill-opacity: 0.2; stroke: #1f77b4; stroke-opacity: 0.2"/>
    <path d="M 457.913654 245.71522 
L 457.913654 245.942292 
L 457.913654 245.71522 
L 457.913654 245.71522 
z
" clip-path="url(#peb18a2ba16)" style="fill: #1f77b4; fill-opacity: 0.2; stroke: #1f77b4; stroke-opacity: 0.2"/>
    <path d="M 458.207765 241.400846 
L 458.207765 241.627919 
L 458.207765 241.400846 
L 458.207765 241.400846 
z
" clip-path="url(#peb18a2ba16)" style="fill: #1f77b4; fill-opacity: 0.2; stroke: #1f77b4; stroke-opacity: 0.2"/>
    <path d="M 458.289948 240.492557 
L 458.289948 240.719629 
L 458.289948 240.492557 
L 458.289948 240.492557 
z
" clip-path="url(#peb18a2ba16)" style="fill: #1f77b4; fill-opacity: 0.2; stroke: #1f77b4; stroke-opacity: 0.2"/>
    <path d="M 458.493463 237.086473 
L 458.493463 237.313545 
L 458.493463 237.086473 
L 458.493463 237.086473 
z
" clip-path="url(#peb18a2ba16)" style="fill: #1f77b4; fill-opacity: 0.2; stroke: #1f77b4; stroke-opacity: 0.2"/>
    <path d="M 458.595706 234.361605 
L 458.595706 234.588678 
L 458.595706 234.361605 
L 458.595706 234.361605 
z
" clip-path="url(#peb18a2ba16)" style="fill: #1f77b4; fill-opacity: 0.2; stroke: #1f77b4; stroke-opacity: 0.2"/>
    <path d="M 458.72351 232.317955 
L 458.72351 232.545027 
L 458.72351 232.317955 
L 458.72351 232.317955 
z
" clip-path="url(#peb18a2ba16)" style="fill: #1f77b4; fill-opacity: 0.2; stroke: #1f77b4; stroke-opacity: 0.2"/>
    <path d="M 459.004355 226.414076 
L 459.004355 226.641148 
L 459.004355 226.414076 
L 459.004355 226.414076 
z
" clip-path="url(#peb18a2ba16)" style="fill: #1f77b4; fill-opacity: 0.2; stroke: #1f77b4; stroke-opacity: 0.2"/>
    <path d="M 459.464449 216.195823 
L 459.464449 216.422895 
L 459.464449 216.195823 
L 459.464449 216.195823 
z
" clip-path="url(#peb18a2ba16)" style="fill: #1f77b4; fill-opacity: 0.2; stroke: #1f77b4; stroke-opacity: 0.2"/>
    <path d="M 460.239361 202.798558 
L 460.239361 203.02563 
L 460.239361 202.798558 
L 460.239361 202.798558 
z
" clip-path="url(#peb18a2ba16)" style="fill: #1f77b4; fill-opacity: 0.2; stroke: #1f77b4; stroke-opacity: 0.2"/>
    <path d="M 461.006508 180.318402 
L 461.006508 180.545474 
L 461.006508 180.318402 
L 461.006508 180.318402 
z
" clip-path="url(#peb18a2ba16)" style="fill: #1f77b4; fill-opacity: 0.2; stroke: #1f77b4; stroke-opacity: 0.2"/>
    <path d="M 461.11231 177.13939 
L 461.11231 177.366462 
L 461.11231 177.13939 
L 461.11231 177.13939 
z
" clip-path="url(#peb18a2ba16)" style="fill: #1f77b4; fill-opacity: 0.2; stroke: #1f77b4; stroke-opacity: 0.2"/>
    <path d="M 461.197729 175.095739 
L 461.197729 175.322812 
L 461.197729 175.095739 
L 461.197729 175.095739 
z
" clip-path="url(#peb18a2ba16)" style="fill: #1f77b4; fill-opacity: 0.2; stroke: #1f77b4; stroke-opacity: 0.2"/>
    <path d="M 461.636468 167.148209 
L 461.636468 167.375282 
L 461.636468 167.148209 
L 461.636468 167.148209 
z
" clip-path="url(#peb18a2ba16)" style="fill: #1f77b4; fill-opacity: 0.2; stroke: #1f77b4; stroke-opacity: 0.2"/>
    <path d="M 462.295224 153.978017 
L 462.295224 154.205089 
L 462.295224 153.978017 
L 462.295224 153.978017 
z
" clip-path="url(#peb18a2ba16)" style="fill: #1f77b4; fill-opacity: 0.2; stroke: #1f77b4; stroke-opacity: 0.2"/>
    <path d="M 464.157925 115.375729 
L 464.157925 115.602801 
L 464.157925 115.375729 
L 464.157925 115.375729 
z
" clip-path="url(#peb18a2ba16)" style="fill: #1f77b4; fill-opacity: 0.2; stroke: #1f77b4; stroke-opacity: 0.2"/>
    <path d="M 464.23299 113.105006 
L 464.23299 113.332078 
L 464.23299 113.105006 
L 464.23299 113.105006 
z
" clip-path="url(#peb18a2ba16)" style="fill: #1f77b4; fill-opacity: 0.2; stroke: #1f77b4; stroke-opacity: 0.2"/>
    <path d="M 464.816358 99.707741 
L 464.816358 99.934813 
L 464.816358 99.707741 
L 464.816358 99.707741 
z
" clip-path="url(#peb18a2ba16)" style="fill: #1f77b4; fill-opacity: 0.2; stroke: #1f77b4; stroke-opacity: 0.2"/>
    <path d="M 464.879774 98.57238 
L 464.879774 98.799452 
L 464.879774 98.57238 
L 464.879774 98.57238 
z
" clip-path="url(#peb18a2ba16)" style="fill: #1f77b4; fill-opacity: 0.2; stroke: #1f77b4; stroke-opacity: 0.2"/>
    <path d="M 464.924748 96.982874 
L 464.924748 97.209946 
L 464.924748 96.982874 
L 464.924748 96.982874 
z
" clip-path="url(#peb18a2ba16)" style="fill: #1f77b4; fill-opacity: 0.2; stroke: #1f77b4; stroke-opacity: 0.2"/>
    <path d="M 465.344074 85.175115 
L 465.344074 85.402187 
L 465.344074 85.175115 
L 465.344074 85.175115 
z
" clip-path="url(#peb18a2ba16)" style="fill: #1f77b4; fill-opacity: 0.2; stroke: #1f77b4; stroke-opacity: 0.2"/>
    <path d="M 468.9187 62.013742 
L 468.9187 62.240814 
L 468.9187 62.013742 
L 468.9187 62.013742 
z
" clip-path="url(#peb18a2ba16)" style="fill: #1f77b4; fill-opacity: 0.2; stroke: #1f77b4; stroke-opacity: 0.2"/>
    <path d="M 469.133864 56.79108 
L 469.133864 57.018152 
L 469.133864 56.79108 
L 469.133864 56.79108 
z
" clip-path="url(#peb18a2ba16)" style="fill: #1f77b4; fill-opacity: 0.2; stroke: #1f77b4; stroke-opacity: 0.2"/>
   </g>
   <g id="PolyCollection_2">
    <path d="M 78.061136 289.313098 
L 78.061136 289.54017 
L 78.061136 289.313098 
L 78.061136 289.313098 
z
" clip-path="url(#peb18a2ba16)" style="fill: #ff7f0e; fill-opacity: 0.2; stroke: #ff7f0e; stroke-opacity: 0.2"/>
    <path d="M 124.67687 237.76769 
L 124.67687 237.994762 
L 124.67687 237.76769 
L 124.67687 237.76769 
z
" clip-path="url(#peb18a2ba16)" style="fill: #ff7f0e; fill-opacity: 0.2; stroke: #ff7f0e; stroke-opacity: 0.2"/>
    <path d="M 125.367982 234.588678 
L 125.367982 234.81575 
L 125.367982 234.588678 
L 125.367982 234.588678 
z
" clip-path="url(#peb18a2ba16)" style="fill: #ff7f0e; fill-opacity: 0.2; stroke: #ff7f0e; stroke-opacity: 0.2"/>
    <path d="M 135.365804 168.283571 
L 135.365804 168.510643 
L 135.365804 168.283571 
L 135.365804 168.283571 
z
" clip-path="url(#peb18a2ba16)" style="fill: #ff7f0e; fill-opacity: 0.2; stroke: #ff7f0e; stroke-opacity: 0.2"/>
    <path d="M 137.420696 152.615583 
L 137.420696 152.842656 
L 137.420696 152.615583 
L 137.420696 152.615583 
z
" clip-path="url(#peb18a2ba16)" style="fill: #ff7f0e; fill-opacity: 0.2; stroke: #ff7f0e; stroke-opacity: 0.2"/>
    <path d="M 168.131481 56.79108 
L 168.131481 57.018152 
L 168.131481 56.79108 
L 168.131481 56.79108 
z
" clip-path="url(#peb18a2ba16)" style="fill: #ff7f0e; fill-opacity: 0.2; stroke: #ff7f0e; stroke-opacity: 0.2"/>
   </g>
   <g id="PolyCollection_3">
    <path d="M 84.93569 289.313098 
L 84.93569 289.54017 
L 84.93569 289.313098 
L 84.93569 289.313098 
z
" clip-path="url(#peb18a2ba16)" style="fill: #2ca02c; fill-opacity: 0.2; stroke: #2ca02c; stroke-opacity: 0.2"/>
    <path d="M 128.990817 209.383654 
L 128.990817 209.610727 
L 128.990817 209.383654 
L 128.990817 209.383654 
z
" clip-path="url(#peb18a2ba16)" style="fill: #2ca02c; fill-opacity: 0.2; stroke: #2ca02c; stroke-opacity: 0.2"/>
    <path d="M 130.21644 197.575896 
L 130.21644 197.802968 
L 130.21644 197.575896 
L 130.21644 197.575896 
z
" clip-path="url(#peb18a2ba16)" style="fill: #2ca02c; fill-opacity: 0.2; stroke: #2ca02c; stroke-opacity: 0.2"/>
    <path d="M 132.960179 174.641595 
L 132.960179 174.868667 
L 132.960179 174.641595 
L 132.960179 174.641595 
z
" clip-path="url(#peb18a2ba16)" style="fill: #2ca02c; fill-opacity: 0.2; stroke: #2ca02c; stroke-opacity: 0.2"/>
    <path d="M 133.982286 162.152619 
L 133.982286 162.379692 
L 133.982286 162.152619 
L 133.982286 162.152619 
z
" clip-path="url(#peb18a2ba16)" style="fill: #2ca02c; fill-opacity: 0.2; stroke: #2ca02c; stroke-opacity: 0.2"/>
    <path d="M 135.480342 148.074138 
L 135.480342 148.30121 
L 135.480342 148.074138 
L 135.480342 148.074138 
z
" clip-path="url(#peb18a2ba16)" style="fill: #2ca02c; fill-opacity: 0.2; stroke: #2ca02c; stroke-opacity: 0.2"/>
    <path d="M 139.003523 115.375729 
L 139.003523 115.602801 
L 139.003523 115.375729 
L 139.003523 115.375729 
z
" clip-path="url(#peb18a2ba16)" style="fill: #2ca02c; fill-opacity: 0.2; stroke: #2ca02c; stroke-opacity: 0.2"/>
    <path d="M 141.438267 92.895573 
L 141.438267 93.122645 
L 141.438267 92.895573 
L 141.438267 92.895573 
z
" clip-path="url(#peb18a2ba16)" style="fill: #2ca02c; fill-opacity: 0.2; stroke: #2ca02c; stroke-opacity: 0.2"/>
    <path d="M 151.727935 56.79108 
L 151.727935 57.018152 
L 151.727935 56.79108 
L 151.727935 56.79108 
z
" clip-path="url(#peb18a2ba16)" style="fill: #2ca02c; fill-opacity: 0.2; stroke: #2ca02c; stroke-opacity: 0.2"/>
   </g>
   <g id="matplotlib.axis_1">
    <g id="xtick_1">
     <g id="line2d_1">
      <path d="M 79.148925 301.177625 
L 79.148925 45.153625 
" clip-path="url(#peb18a2ba16)" style="fill: none; stroke: #b0b0b0; stroke-width: 0.8; stroke-linecap: square"/>
     </g>
     <g id="line2d_2">
      <defs>
       <path id="m139ba46b6d" d="M 0 0 
L 0 3.5 
" style="stroke: #000000; stroke-width: 0.8"/>
      </defs>
      <g>
       <use xlink:href="#m139ba46b6d" x="79.148925" y="301.177625" style="stroke: #000000; stroke-width: 0.8"/>
      </g>
     </g>
     <g id="text_1">
      <!-- 2600 -->
      <g transform="translate(60.061425 319.575281) scale(0.15 -0.15)">
       <defs>
        <path id="DejaVuSans-32" d="M 1228 531 
L 3431 531 
L 3431 0 
L 469 0 
L 469 531 
Q 828 903 1448 1529 
Q 2069 2156 2228 2338 
Q 2531 2678 2651 2914 
Q 2772 3150 2772 3378 
Q 2772 3750 2511 3984 
Q 2250 4219 1831 4219 
Q 1534 4219 1204 4116 
Q 875 4013 500 3803 
L 500 4441 
Q 881 4594 1212 4672 
Q 1544 4750 1819 4750 
Q 2544 4750 2975 4387 
Q 3406 4025 3406 3419 
Q 3406 3131 3298 2873 
Q 3191 2616 2906 2266 
Q 2828 2175 2409 1742 
Q 1991 1309 1228 531 
z
" transform="scale(0.015625)"/>
        <path id="DejaVuSans-36" d="M 2113 2584 
Q 1688 2584 1439 2293 
Q 1191 2003 1191 1497 
Q 1191 994 1439 701 
Q 1688 409 2113 409 
Q 2538 409 2786 701 
Q 3034 994 3034 1497 
Q 3034 2003 2786 2293 
Q 2538 2584 2113 2584 
z
M 3366 4563 
L 3366 3988 
Q 3128 4100 2886 4159 
Q 2644 4219 2406 4219 
Q 1781 4219 1451 3797 
Q 1122 3375 1075 2522 
Q 1259 2794 1537 2939 
Q 1816 3084 2150 3084 
Q 2853 3084 3261 2657 
Q 3669 2231 3669 1497 
Q 3669 778 3244 343 
Q 2819 -91 2113 -91 
Q 1303 -91 875 529 
Q 447 1150 447 2328 
Q 447 3434 972 4092 
Q 1497 4750 2381 4750 
Q 2619 4750 2861 4703 
Q 3103 4656 3366 4563 
z
" transform="scale(0.015625)"/>
        <path id="DejaVuSans-30" d="M 2034 4250 
Q 1547 4250 1301 3770 
Q 1056 3291 1056 2328 
Q 1056 1369 1301 889 
Q 1547 409 2034 409 
Q 2525 409 2770 889 
Q 3016 1369 3016 2328 
Q 3016 3291 2770 3770 
Q 2525 4250 2034 4250 
z
M 2034 4750 
Q 2819 4750 3233 4129 
Q 3647 3509 3647 2328 
Q 3647 1150 3233 529 
Q 2819 -91 2034 -91 
Q 1250 -91 836 529 
Q 422 1150 422 2328 
Q 422 3509 836 4129 
Q 1250 4750 2034 4750 
z
" transform="scale(0.015625)"/>
       </defs>
       <use xlink:href="#DejaVuSans-32"/>
       <use xlink:href="#DejaVuSans-36" x="63.623047"/>
       <use xlink:href="#DejaVuSans-30" x="127.246094"/>
       <use xlink:href="#DejaVuSans-30" x="190.869141"/>
      </g>
     </g>
    </g>
    <g id="xtick_2">
     <g id="line2d_3">
      <path d="M 143.859746 301.177625 
L 143.859746 45.153625 
" clip-path="url(#peb18a2ba16)" style="fill: none; stroke: #b0b0b0; stroke-width: 0.8; stroke-linecap: square"/>
     </g>
     <g id="line2d_4">
      <g>
       <use xlink:href="#m139ba46b6d" x="143.859746" y="301.177625" style="stroke: #000000; stroke-width: 0.8"/>
      </g>
     </g>
     <g id="text_2">
      <!-- 2800 -->
      <g transform="translate(124.772246 319.575281) scale(0.15 -0.15)">
       <defs>
        <path id="DejaVuSans-38" d="M 2034 2216 
Q 1584 2216 1326 1975 
Q 1069 1734 1069 1313 
Q 1069 891 1326 650 
Q 1584 409 2034 409 
Q 2484 409 2743 651 
Q 3003 894 3003 1313 
Q 3003 1734 2745 1975 
Q 2488 2216 2034 2216 
z
M 1403 2484 
Q 997 2584 770 2862 
Q 544 3141 544 3541 
Q 544 4100 942 4425 
Q 1341 4750 2034 4750 
Q 2731 4750 3128 4425 
Q 3525 4100 3525 3541 
Q 3525 3141 3298 2862 
Q 3072 2584 2669 2484 
Q 3125 2378 3379 2068 
Q 3634 1759 3634 1313 
Q 3634 634 3220 271 
Q 2806 -91 2034 -91 
Q 1263 -91 848 271 
Q 434 634 434 1313 
Q 434 1759 690 2068 
Q 947 2378 1403 2484 
z
M 1172 3481 
Q 1172 3119 1398 2916 
Q 1625 2713 2034 2713 
Q 2441 2713 2670 2916 
Q 2900 3119 2900 3481 
Q 2900 3844 2670 4047 
Q 2441 4250 2034 4250 
Q 1625 4250 1398 4047 
Q 1172 3844 1172 3481 
z
" transform="scale(0.015625)"/>
       </defs>
       <use xlink:href="#DejaVuSans-32"/>
       <use xlink:href="#DejaVuSans-38" x="63.623047"/>
       <use xlink:href="#DejaVuSans-30" x="127.246094"/>
       <use xlink:href="#DejaVuSans-30" x="190.869141"/>
      </g>
     </g>
    </g>
    <g id="xtick_3">
     <g id="line2d_5">
      <path d="M 208.570567 301.177625 
L 208.570567 45.153625 
" clip-path="url(#peb18a2ba16)" style="fill: none; stroke: #b0b0b0; stroke-width: 0.8; stroke-linecap: square"/>
     </g>
     <g id="line2d_6">
      <g>
       <use xlink:href="#m139ba46b6d" x="208.570567" y="301.177625" style="stroke: #000000; stroke-width: 0.8"/>
      </g>
     </g>
     <g id="text_3">
      <!-- 3000 -->
      <g transform="translate(189.483067 319.575281) scale(0.15 -0.15)">
       <defs>
        <path id="DejaVuSans-33" d="M 2597 2516 
Q 3050 2419 3304 2112 
Q 3559 1806 3559 1356 
Q 3559 666 3084 287 
Q 2609 -91 1734 -91 
Q 1441 -91 1130 -33 
Q 819 25 488 141 
L 488 750 
Q 750 597 1062 519 
Q 1375 441 1716 441 
Q 2309 441 2620 675 
Q 2931 909 2931 1356 
Q 2931 1769 2642 2001 
Q 2353 2234 1838 2234 
L 1294 2234 
L 1294 2753 
L 1863 2753 
Q 2328 2753 2575 2939 
Q 2822 3125 2822 3475 
Q 2822 3834 2567 4026 
Q 2313 4219 1838 4219 
Q 1578 4219 1281 4162 
Q 984 4106 628 3988 
L 628 4550 
Q 988 4650 1302 4700 
Q 1616 4750 1894 4750 
Q 2613 4750 3031 4423 
Q 3450 4097 3450 3541 
Q 3450 3153 3228 2886 
Q 3006 2619 2597 2516 
z
" transform="scale(0.015625)"/>
       </defs>
       <use xlink:href="#DejaVuSans-33"/>
       <use xlink:href="#DejaVuSans-30" x="63.623047"/>
       <use xlink:href="#DejaVuSans-30" x="127.246094"/>
       <use xlink:href="#DejaVuSans-30" x="190.869141"/>
      </g>
     </g>
    </g>
    <g id="xtick_4">
     <g id="line2d_7">
      <path d="M 273.281388 301.177625 
L 273.281388 45.153625 
" clip-path="url(#peb18a2ba16)" style="fill: none; stroke: #b0b0b0; stroke-width: 0.8; stroke-linecap: square"/>
     </g>
     <g id="line2d_8">
      <g>
       <use xlink:href="#m139ba46b6d" x="273.281388" y="301.177625" style="stroke: #000000; stroke-width: 0.8"/>
      </g>
     </g>
     <g id="text_4">
      <!-- 3200 -->
      <g transform="translate(254.193888 319.575281) scale(0.15 -0.15)">
       <use xlink:href="#DejaVuSans-33"/>
       <use xlink:href="#DejaVuSans-32" x="63.623047"/>
       <use xlink:href="#DejaVuSans-30" x="127.246094"/>
       <use xlink:href="#DejaVuSans-30" x="190.869141"/>
      </g>
     </g>
    </g>
    <g id="xtick_5">
     <g id="line2d_9">
      <path d="M 337.992208 301.177625 
L 337.992208 45.153625 
" clip-path="url(#peb18a2ba16)" style="fill: none; stroke: #b0b0b0; stroke-width: 0.8; stroke-linecap: square"/>
     </g>
     <g id="line2d_10">
      <g>
       <use xlink:href="#m139ba46b6d" x="337.992208" y="301.177625" style="stroke: #000000; stroke-width: 0.8"/>
      </g>
     </g>
     <g id="text_5">
      <!-- 3400 -->
      <g transform="translate(318.904708 319.575281) scale(0.15 -0.15)">
       <defs>
        <path id="DejaVuSans-34" d="M 2419 4116 
L 825 1625 
L 2419 1625 
L 2419 4116 
z
M 2253 4666 
L 3047 4666 
L 3047 1625 
L 3713 1625 
L 3713 1100 
L 3047 1100 
L 3047 0 
L 2419 0 
L 2419 1100 
L 313 1100 
L 313 1709 
L 2253 4666 
z
" transform="scale(0.015625)"/>
       </defs>
       <use xlink:href="#DejaVuSans-33"/>
       <use xlink:href="#DejaVuSans-34" x="63.623047"/>
       <use xlink:href="#DejaVuSans-30" x="127.246094"/>
       <use xlink:href="#DejaVuSans-30" x="190.869141"/>
      </g>
     </g>
    </g>
    <g id="xtick_6">
     <g id="line2d_11">
      <path d="M 402.703029 301.177625 
L 402.703029 45.153625 
" clip-path="url(#peb18a2ba16)" style="fill: none; stroke: #b0b0b0; stroke-width: 0.8; stroke-linecap: square"/>
     </g>
     <g id="line2d_12">
      <g>
       <use xlink:href="#m139ba46b6d" x="402.703029" y="301.177625" style="stroke: #000000; stroke-width: 0.8"/>
      </g>
     </g>
     <g id="text_6">
      <!-- 3600 -->
      <g transform="translate(383.615529 319.575281) scale(0.15 -0.15)">
       <use xlink:href="#DejaVuSans-33"/>
       <use xlink:href="#DejaVuSans-36" x="63.623047"/>
       <use xlink:href="#DejaVuSans-30" x="127.246094"/>
       <use xlink:href="#DejaVuSans-30" x="190.869141"/>
      </g>
     </g>
    </g>
    <g id="xtick_7">
     <g id="line2d_13">
      <path d="M 467.41385 301.177625 
L 467.41385 45.153625 
" clip-path="url(#peb18a2ba16)" style="fill: none; stroke: #b0b0b0; stroke-width: 0.8; stroke-linecap: square"/>
     </g>
     <g id="line2d_14">
      <g>
       <use xlink:href="#m139ba46b6d" x="467.41385" y="301.177625" style="stroke: #000000; stroke-width: 0.8"/>
      </g>
     </g>
     <g id="text_7">
      <!-- 3800 -->
      <g transform="translate(448.32635 319.575281) scale(0.15 -0.15)">
       <use xlink:href="#DejaVuSans-33"/>
       <use xlink:href="#DejaVuSans-38" x="63.623047"/>
       <use xlink:href="#DejaVuSans-30" x="127.246094"/>
       <use xlink:href="#DejaVuSans-30" x="190.869141"/>
      </g>
     </g>
    </g>
    <g id="text_8">
     <!-- Flow Completion Time (us) -->
     <g transform="translate(160.161016 339.612156) scale(0.17 -0.17)">
      <defs>
       <path id="DejaVuSans-46" d="M 628 4666 
L 3309 4666 
L 3309 4134 
L 1259 4134 
L 1259 2759 
L 3109 2759 
L 3109 2228 
L 1259 2228 
L 1259 0 
L 628 0 
L 628 4666 
z
" transform="scale(0.015625)"/>
       <path id="DejaVuSans-6c" d="M 603 4863 
L 1178 4863 
L 1178 0 
L 603 0 
L 603 4863 
z
" transform="scale(0.015625)"/>
       <path id="DejaVuSans-6f" d="M 1959 3097 
Q 1497 3097 1228 2736 
Q 959 2375 959 1747 
Q 959 1119 1226 758 
Q 1494 397 1959 397 
Q 2419 397 2687 759 
Q 2956 1122 2956 1747 
Q 2956 2369 2687 2733 
Q 2419 3097 1959 3097 
z
M 1959 3584 
Q 2709 3584 3137 3096 
Q 3566 2609 3566 1747 
Q 3566 888 3137 398 
Q 2709 -91 1959 -91 
Q 1206 -91 779 398 
Q 353 888 353 1747 
Q 353 2609 779 3096 
Q 1206 3584 1959 3584 
z
" transform="scale(0.015625)"/>
       <path id="DejaVuSans-77" d="M 269 3500 
L 844 3500 
L 1563 769 
L 2278 3500 
L 2956 3500 
L 3675 769 
L 4391 3500 
L 4966 3500 
L 4050 0 
L 3372 0 
L 2619 2869 
L 1863 0 
L 1184 0 
L 269 3500 
z
" transform="scale(0.015625)"/>
       <path id="DejaVuSans-20" transform="scale(0.015625)"/>
       <path id="DejaVuSans-43" d="M 4122 4306 
L 4122 3641 
Q 3803 3938 3442 4084 
Q 3081 4231 2675 4231 
Q 1875 4231 1450 3742 
Q 1025 3253 1025 2328 
Q 1025 1406 1450 917 
Q 1875 428 2675 428 
Q 3081 428 3442 575 
Q 3803 722 4122 1019 
L 4122 359 
Q 3791 134 3420 21 
Q 3050 -91 2638 -91 
Q 1578 -91 968 557 
Q 359 1206 359 2328 
Q 359 3453 968 4101 
Q 1578 4750 2638 4750 
Q 3056 4750 3426 4639 
Q 3797 4528 4122 4306 
z
" transform="scale(0.015625)"/>
       <path id="DejaVuSans-6d" d="M 3328 2828 
Q 3544 3216 3844 3400 
Q 4144 3584 4550 3584 
Q 5097 3584 5394 3201 
Q 5691 2819 5691 2113 
L 5691 0 
L 5113 0 
L 5113 2094 
Q 5113 2597 4934 2840 
Q 4756 3084 4391 3084 
Q 3944 3084 3684 2787 
Q 3425 2491 3425 1978 
L 3425 0 
L 2847 0 
L 2847 2094 
Q 2847 2600 2669 2842 
Q 2491 3084 2119 3084 
Q 1678 3084 1418 2786 
Q 1159 2488 1159 1978 
L 1159 0 
L 581 0 
L 581 3500 
L 1159 3500 
L 1159 2956 
Q 1356 3278 1631 3431 
Q 1906 3584 2284 3584 
Q 2666 3584 2933 3390 
Q 3200 3197 3328 2828 
z
" transform="scale(0.015625)"/>
       <path id="DejaVuSans-70" d="M 1159 525 
L 1159 -1331 
L 581 -1331 
L 581 3500 
L 1159 3500 
L 1159 2969 
Q 1341 3281 1617 3432 
Q 1894 3584 2278 3584 
Q 2916 3584 3314 3078 
Q 3713 2572 3713 1747 
Q 3713 922 3314 415 
Q 2916 -91 2278 -91 
Q 1894 -91 1617 61 
Q 1341 213 1159 525 
z
M 3116 1747 
Q 3116 2381 2855 2742 
Q 2594 3103 2138 3103 
Q 1681 3103 1420 2742 
Q 1159 2381 1159 1747 
Q 1159 1113 1420 752 
Q 1681 391 2138 391 
Q 2594 391 2855 752 
Q 3116 1113 3116 1747 
z
" transform="scale(0.015625)"/>
       <path id="DejaVuSans-65" d="M 3597 1894 
L 3597 1613 
L 953 1613 
Q 991 1019 1311 708 
Q 1631 397 2203 397 
Q 2534 397 2845 478 
Q 3156 559 3463 722 
L 3463 178 
Q 3153 47 2828 -22 
Q 2503 -91 2169 -91 
Q 1331 -91 842 396 
Q 353 884 353 1716 
Q 353 2575 817 3079 
Q 1281 3584 2069 3584 
Q 2775 3584 3186 3129 
Q 3597 2675 3597 1894 
z
M 3022 2063 
Q 3016 2534 2758 2815 
Q 2500 3097 2075 3097 
Q 1594 3097 1305 2825 
Q 1016 2553 972 2059 
L 3022 2063 
z
" transform="scale(0.015625)"/>
       <path id="DejaVuSans-74" d="M 1172 4494 
L 1172 3500 
L 2356 3500 
L 2356 3053 
L 1172 3053 
L 1172 1153 
Q 1172 725 1289 603 
Q 1406 481 1766 481 
L 2356 481 
L 2356 0 
L 1766 0 
Q 1100 0 847 248 
Q 594 497 594 1153 
L 594 3053 
L 172 3053 
L 172 3500 
L 594 3500 
L 594 4494 
L 1172 4494 
z
" transform="scale(0.015625)"/>
       <path id="DejaVuSans-69" d="M 603 3500 
L 1178 3500 
L 1178 0 
L 603 0 
L 603 3500 
z
M 603 4863 
L 1178 4863 
L 1178 4134 
L 603 4134 
L 603 4863 
z
" transform="scale(0.015625)"/>
       <path id="DejaVuSans-6e" d="M 3513 2113 
L 3513 0 
L 2938 0 
L 2938 2094 
Q 2938 2591 2744 2837 
Q 2550 3084 2163 3084 
Q 1697 3084 1428 2787 
Q 1159 2491 1159 1978 
L 1159 0 
L 581 0 
L 581 3500 
L 1159 3500 
L 1159 2956 
Q 1366 3272 1645 3428 
Q 1925 3584 2291 3584 
Q 2894 3584 3203 3211 
Q 3513 2838 3513 2113 
z
" transform="scale(0.015625)"/>
       <path id="DejaVuSans-54" d="M -19 4666 
L 3928 4666 
L 3928 4134 
L 2272 4134 
L 2272 0 
L 1638 0 
L 1638 4134 
L -19 4134 
L -19 4666 
z
" transform="scale(0.015625)"/>
       <path id="DejaVuSans-28" d="M 1984 4856 
Q 1566 4138 1362 3434 
Q 1159 2731 1159 2009 
Q 1159 1288 1364 580 
Q 1569 -128 1984 -844 
L 1484 -844 
Q 1016 -109 783 600 
Q 550 1309 550 2009 
Q 550 2706 781 3412 
Q 1013 4119 1484 4856 
L 1984 4856 
z
" transform="scale(0.015625)"/>
       <path id="DejaVuSans-75" d="M 544 1381 
L 544 3500 
L 1119 3500 
L 1119 1403 
Q 1119 906 1312 657 
Q 1506 409 1894 409 
Q 2359 409 2629 706 
Q 2900 1003 2900 1516 
L 2900 3500 
L 3475 3500 
L 3475 0 
L 2900 0 
L 2900 538 
Q 2691 219 2414 64 
Q 2138 -91 1772 -91 
Q 1169 -91 856 284 
Q 544 659 544 1381 
z
M 1991 3584 
L 1991 3584 
z
" transform="scale(0.015625)"/>
       <path id="DejaVuSans-73" d="M 2834 3397 
L 2834 2853 
Q 2591 2978 2328 3040 
Q 2066 3103 1784 3103 
Q 1356 3103 1142 2972 
Q 928 2841 928 2578 
Q 928 2378 1081 2264 
Q 1234 2150 1697 2047 
L 1894 2003 
Q 2506 1872 2764 1633 
Q 3022 1394 3022 966 
Q 3022 478 2636 193 
Q 2250 -91 1575 -91 
Q 1294 -91 989 -36 
Q 684 19 347 128 
L 347 722 
Q 666 556 975 473 
Q 1284 391 1588 391 
Q 1994 391 2212 530 
Q 2431 669 2431 922 
Q 2431 1156 2273 1281 
Q 2116 1406 1581 1522 
L 1381 1569 
Q 847 1681 609 1914 
Q 372 2147 372 2553 
Q 372 3047 722 3315 
Q 1072 3584 1716 3584 
Q 2034 3584 2315 3537 
Q 2597 3491 2834 3397 
z
" transform="scale(0.015625)"/>
       <path id="DejaVuSans-29" d="M 513 4856 
L 1013 4856 
Q 1481 4119 1714 3412 
Q 1947 2706 1947 2009 
Q 1947 1309 1714 600 
Q 1481 -109 1013 -844 
L 513 -844 
Q 928 -128 1133 580 
Q 1338 1288 1338 2009 
Q 1338 2731 1133 3434 
Q 928 4138 513 4856 
z
" transform="scale(0.015625)"/>
      </defs>
      <use xlink:href="#DejaVuSans-46"/>
      <use xlink:href="#DejaVuSans-6c" x="57.519531"/>
      <use xlink:href="#DejaVuSans-6f" x="85.302734"/>
      <use xlink:href="#DejaVuSans-77" x="146.484375"/>
      <use xlink:href="#DejaVuSans-20" x="228.271484"/>
      <use xlink:href="#DejaVuSans-43" x="260.058594"/>
      <use xlink:href="#DejaVuSans-6f" x="329.882812"/>
      <use xlink:href="#DejaVuSans-6d" x="391.064453"/>
      <use xlink:href="#DejaVuSans-70" x="488.476562"/>
      <use xlink:href="#DejaVuSans-6c" x="551.953125"/>
      <use xlink:href="#DejaVuSans-65" x="579.736328"/>
      <use xlink:href="#DejaVuSans-74" x="641.259766"/>
      <use xlink:href="#DejaVuSans-69" x="680.46875"/>
      <use xlink:href="#DejaVuSans-6f" x="708.251953"/>
      <use xlink:href="#DejaVuSans-6e" x="769.433594"/>
      <use xlink:href="#DejaVuSans-20" x="832.8125"/>
      <use xlink:href="#DejaVuSans-54" x="864.599609"/>
      <use xlink:href="#DejaVuSans-69" x="922.558594"/>
      <use xlink:href="#DejaVuSans-6d" x="950.341797"/>
      <use xlink:href="#DejaVuSans-65" x="1047.753906"/>
      <use xlink:href="#DejaVuSans-20" x="1109.277344"/>
      <use xlink:href="#DejaVuSans-28" x="1141.064453"/>
      <use xlink:href="#DejaVuSans-75" x="1180.078125"/>
      <use xlink:href="#DejaVuSans-73" x="1243.457031"/>
      <use xlink:href="#DejaVuSans-29" x="1295.556641"/>
     </g>
    </g>
   </g>
   <g id="matplotlib.axis_2">
    <g id="ytick_1">
     <g id="line2d_15">
      <path d="M 58.5075 289.767243 
L 488.6875 289.767243 
" clip-path="url(#peb18a2ba16)" style="fill: none; stroke: #b0b0b0; stroke-width: 0.8; stroke-linecap: square"/>
     </g>
     <g id="line2d_16">
      <defs>
       <path id="mfc8ec2c7ab" d="M 0 0 
L -3.5 0 
" style="stroke: #000000; stroke-width: 0.8"/>
      </defs>
      <g>
       <use xlink:href="#mfc8ec2c7ab" x="58.5075" y="289.767243" style="stroke: #000000; stroke-width: 0.8"/>
      </g>
     </g>
     <g id="text_9">
      <!-- 0.0 -->
      <g transform="translate(27.652812 295.466071) scale(0.15 -0.15)">
       <defs>
        <path id="DejaVuSans-2e" d="M 684 794 
L 1344 794 
L 1344 0 
L 684 0 
L 684 794 
z
" transform="scale(0.015625)"/>
       </defs>
       <use xlink:href="#DejaVuSans-30"/>
       <use xlink:href="#DejaVuSans-2e" x="63.623047"/>
       <use xlink:href="#DejaVuSans-30" x="95.410156"/>
      </g>
     </g>
    </g>
    <g id="ytick_2">
     <g id="line2d_17">
      <path d="M 58.5075 243.17201 
L 488.6875 243.17201 
" clip-path="url(#peb18a2ba16)" style="fill: none; stroke: #b0b0b0; stroke-width: 0.8; stroke-linecap: square"/>
     </g>
     <g id="line2d_18">
      <g>
       <use xlink:href="#mfc8ec2c7ab" x="58.5075" y="243.17201" style="stroke: #000000; stroke-width: 0.8"/>
      </g>
     </g>
     <g id="text_10">
      <!-- 0.2 -->
      <g transform="translate(27.652812 248.870838) scale(0.15 -0.15)">
       <use xlink:href="#DejaVuSans-30"/>
       <use xlink:href="#DejaVuSans-2e" x="63.623047"/>
       <use xlink:href="#DejaVuSans-32" x="95.410156"/>
      </g>
     </g>
    </g>
    <g id="ytick_3">
     <g id="line2d_19">
      <path d="M 58.5075 196.576777 
L 488.6875 196.576777 
" clip-path="url(#peb18a2ba16)" style="fill: none; stroke: #b0b0b0; stroke-width: 0.8; stroke-linecap: square"/>
     </g>
     <g id="line2d_20">
      <g>
       <use xlink:href="#mfc8ec2c7ab" x="58.5075" y="196.576777" style="stroke: #000000; stroke-width: 0.8"/>
      </g>
     </g>
     <g id="text_11">
      <!-- 0.4 -->
      <g transform="translate(27.652812 202.275606) scale(0.15 -0.15)">
       <use xlink:href="#DejaVuSans-30"/>
       <use xlink:href="#DejaVuSans-2e" x="63.623047"/>
       <use xlink:href="#DejaVuSans-34" x="95.410156"/>
      </g>
     </g>
    </g>
    <g id="ytick_4">
     <g id="line2d_21">
      <path d="M 58.5075 149.981545 
L 488.6875 149.981545 
" clip-path="url(#peb18a2ba16)" style="fill: none; stroke: #b0b0b0; stroke-width: 0.8; stroke-linecap: square"/>
     </g>
     <g id="line2d_22">
      <g>
       <use xlink:href="#mfc8ec2c7ab" x="58.5075" y="149.981545" style="stroke: #000000; stroke-width: 0.8"/>
      </g>
     </g>
     <g id="text_12">
      <!-- 0.6 -->
      <g transform="translate(27.652812 155.680373) scale(0.15 -0.15)">
       <use xlink:href="#DejaVuSans-30"/>
       <use xlink:href="#DejaVuSans-2e" x="63.623047"/>
       <use xlink:href="#DejaVuSans-36" x="95.410156"/>
      </g>
     </g>
    </g>
    <g id="ytick_5">
     <g id="line2d_23">
      <path d="M 58.5075 103.386312 
L 488.6875 103.386312 
" clip-path="url(#peb18a2ba16)" style="fill: none; stroke: #b0b0b0; stroke-width: 0.8; stroke-linecap: square"/>
     </g>
     <g id="line2d_24">
      <g>
       <use xlink:href="#mfc8ec2c7ab" x="58.5075" y="103.386312" style="stroke: #000000; stroke-width: 0.8"/>
      </g>
     </g>
     <g id="text_13">
      <!-- 0.8 -->
      <g transform="translate(27.652812 109.08514) scale(0.15 -0.15)">
       <use xlink:href="#DejaVuSans-30"/>
       <use xlink:href="#DejaVuSans-2e" x="63.623047"/>
       <use xlink:href="#DejaVuSans-38" x="95.410156"/>
      </g>
     </g>
    </g>
    <g id="ytick_6">
     <g id="line2d_25">
      <path d="M 58.5075 56.79108 
L 488.6875 56.79108 
" clip-path="url(#peb18a2ba16)" style="fill: none; stroke: #b0b0b0; stroke-width: 0.8; stroke-linecap: square"/>
     </g>
     <g id="line2d_26">
      <g>
       <use xlink:href="#mfc8ec2c7ab" x="58.5075" y="56.79108" style="stroke: #000000; stroke-width: 0.8"/>
      </g>
     </g>
     <g id="text_14">
      <!-- 1.0 -->
      <g transform="translate(27.652812 62.489908) scale(0.15 -0.15)">
       <defs>
        <path id="DejaVuSans-31" d="M 794 531 
L 1825 531 
L 1825 4091 
L 703 3866 
L 703 4441 
L 1819 4666 
L 2450 4666 
L 2450 531 
L 3481 531 
L 3481 0 
L 794 0 
L 794 531 
z
" transform="scale(0.015625)"/>
       </defs>
       <use xlink:href="#DejaVuSans-31"/>
       <use xlink:href="#DejaVuSans-2e" x="63.623047"/>
       <use xlink:href="#DejaVuSans-30" x="95.410156"/>
      </g>
     </g>
    </g>
    <g id="text_15">
     <!-- CDF (%) -->
     <g transform="translate(20.117344 207.945234) rotate(-90) scale(0.17 -0.17)">
      <defs>
       <path id="DejaVuSans-44" d="M 1259 4147 
L 1259 519 
L 2022 519 
Q 2988 519 3436 956 
Q 3884 1394 3884 2338 
Q 3884 3275 3436 3711 
Q 2988 4147 2022 4147 
L 1259 4147 
z
M 628 4666 
L 1925 4666 
Q 3281 4666 3915 4102 
Q 4550 3538 4550 2338 
Q 4550 1131 3912 565 
Q 3275 0 1925 0 
L 628 0 
L 628 4666 
z
" transform="scale(0.015625)"/>
       <path id="DejaVuSans-25" d="M 4653 2053 
Q 4381 2053 4226 1822 
Q 4072 1591 4072 1178 
Q 4072 772 4226 539 
Q 4381 306 4653 306 
Q 4919 306 5073 539 
Q 5228 772 5228 1178 
Q 5228 1588 5073 1820 
Q 4919 2053 4653 2053 
z
M 4653 2450 
Q 5147 2450 5437 2106 
Q 5728 1763 5728 1178 
Q 5728 594 5436 251 
Q 5144 -91 4653 -91 
Q 4153 -91 3862 251 
Q 3572 594 3572 1178 
Q 3572 1766 3864 2108 
Q 4156 2450 4653 2450 
z
M 1428 4353 
Q 1159 4353 1004 4120 
Q 850 3888 850 3481 
Q 850 3069 1003 2837 
Q 1156 2606 1428 2606 
Q 1700 2606 1854 2837 
Q 2009 3069 2009 3481 
Q 2009 3884 1853 4118 
Q 1697 4353 1428 4353 
z
M 4250 4750 
L 4750 4750 
L 1831 -91 
L 1331 -91 
L 4250 4750 
z
M 1428 4750 
Q 1922 4750 2215 4408 
Q 2509 4066 2509 3481 
Q 2509 2891 2217 2550 
Q 1925 2209 1428 2209 
Q 931 2209 642 2551 
Q 353 2894 353 3481 
Q 353 4063 643 4406 
Q 934 4750 1428 4750 
z
" transform="scale(0.015625)"/>
      </defs>
      <use xlink:href="#DejaVuSans-43"/>
      <use xlink:href="#DejaVuSans-44" x="69.824219"/>
      <use xlink:href="#DejaVuSans-46" x="146.826172"/>
      <use xlink:href="#DejaVuSans-20" x="204.345703"/>
      <use xlink:href="#DejaVuSans-28" x="236.132812"/>
      <use xlink:href="#DejaVuSans-25" x="275.146484"/>
      <use xlink:href="#DejaVuSans-29" x="370.166016"/>
     </g>
    </g>
   </g>
   <g id="line2d_27">
    <path d="M 452.769791 289.426634 
L 453.263858 286.588231 
L 453.523025 282.955074 
L 454.246169 282.273857 
L 454.765149 276.824123 
L 455.133678 276.59705 
L 455.385726 276.142906 
L 455.694397 275.234617 
L 456.159991 272.282677 
L 456.247351 271.714996 
L 456.421423 270.466099 
L 456.537255 268.876593 
L 456.675089 267.741231 
L 456.90643 264.108075 
L 456.986025 262.518569 
L 457.169156 259.339557 
L 457.510182 251.619099 
L 457.625044 249.121304 
L 457.753819 247.077653 
L 457.834707 246.623509 
L 459.001443 226.86822 
L 459.156426 221.418485 
L 459.501334 215.514606 
L 460.429935 197.348823 
L 460.547061 192.353233 
L 460.920443 183.270342 
L 460.990007 181.226691 
L 461.157608 176.458173 
L 461.693413 166.23992 
L 461.773978 165.558703 
L 461.903724 162.606764 
L 462.003055 161.925547 
L 462.643045 144.895126 
L 462.793821 141.943186 
L 463.170762 136.266379 
L 463.31992 133.995656 
L 464.07283 118.554741 
L 464.322614 110.380139 
L 464.607018 103.795042 
L 464.843213 99.253597 
L 464.896923 97.891163 
L 465.014373 93.803862 
L 465.358958 84.72097 
L 465.627184 71.77785 
L 465.640774 71.550778 
L 467.554596 71.323706 
L 468.037339 71.096633 
L 468.191674 70.642489 
L 468.598058 70.415417 
L 468.779572 65.419826 
L 469.133864 56.904616 
L 469.133864 56.904616 
" clip-path="url(#peb18a2ba16)" style="fill: none; stroke: #1f77b4; stroke-width: 2; stroke-linecap: square"/>
   </g>
   <g id="line2d_28">
    <path d="M 78.061136 289.426634 
L 87.914006 289.086026 
L 93.01063 288.404809 
L 99.143275 287.950664 
L 102.075969 287.49652 
L 103.256294 286.815303 
L 104.027 286.588231 
L 104.273549 286.361158 
L 104.274843 286.134086 
L 104.757262 284.998725 
L 105.441579 284.54458 
L 105.711747 284.317508 
L 106.466922 284.090436 
L 106.621257 283.182147 
L 107.631717 282.728002 
L 108.022246 282.273857 
L 108.126754 281.819713 
L 108.333505 281.592641 
L 108.54964 280.911424 
L 109.289931 280.003135 
L 109.407058 279.776062 
L 109.857445 279.54899 
L 109.999162 279.094845 
L 110.094934 278.640701 
L 110.427871 278.413629 
L 110.434019 278.186556 
L 110.87567 277.959484 
L 111.050066 277.732412 
L 111.126101 277.051195 
L 111.490423 276.824123 
L 111.910073 275.688761 
L 112.072497 275.461689 
L 112.19027 274.780472 
L 112.306426 274.326327 
L 113.085221 273.645111 
L 113.172257 273.418038 
L 113.746242 272.963894 
L 113.782804 272.736821 
L 114.502388 272.509749 
L 114.900036 272.055605 
L 115.167292 271.828532 
L 115.656182 270.011954 
L 115.923114 269.784882 
L 116.098157 269.103665 
L 116.546603 268.422448 
L 116.828095 267.514159 
L 116.829389 267.287087 
L 116.984372 266.832942 
L 116.988254 266.60587 
L 117.159091 266.378798 
L 117.189828 266.151725 
L 117.490087 265.924653 
L 117.623391 265.243436 
L 117.720134 265.016364 
L 117.952769 264.789292 
L 118.141401 263.881002 
L 118.478868 263.426858 
L 118.827012 261.837352 
L 119.071619 261.156135 
L 119.221748 260.929063 
L 119.518771 260.70199 
L 119.77179 259.339557 
L 120.077225 258.204195 
L 120.330568 257.977123 
L 120.732099 255.252256 
L 120.916848 255.025183 
L 121.032357 254.571039 
L 121.137188 254.116894 
L 121.230696 253.208605 
L 121.473038 252.75446 
L 121.806945 250.937882 
L 122.04314 250.483738 
L 122.079378 250.256665 
L 122.270275 249.802521 
L 122.43464 248.894232 
L 122.67407 248.667159 
L 122.832288 246.850581 
L 122.958474 246.396437 
L 123.302413 244.125714 
L 123.337033 243.444497 
L 123.96861 242.309135 
L 124.143006 240.946702 
L 124.280517 240.265485 
L 124.824411 236.859401 
L 124.99816 236.178184 
L 125.379953 234.361605 
L 125.991471 228.457726 
L 126.135452 228.003582 
L 126.233166 227.322365 
L 126.367441 226.414076 
L 126.970869 222.780919 
L 127.092202 222.099702 
L 127.196063 221.191413 
L 127.474319 219.828979 
L 127.74934 219.374835 
L 127.867437 218.92069 
L 128.356975 215.287534 
L 128.518428 215.060461 
L 128.609994 214.379245 
L 128.790537 213.243883 
L 129.137387 211.427305 
L 130.237148 202.798558 
L 130.328066 202.344413 
L 130.472695 200.98198 
L 130.651297 200.300763 
L 130.775865 199.392474 
L 130.850606 198.484185 
L 130.986499 197.348823 
L 131.108155 196.440534 
L 131.236606 195.759317 
L 131.6129 193.488594 
L 131.659815 192.353233 
L 131.878538 192.126161 
L 132.147087 190.536655 
L 132.32666 189.628366 
L 132.452523 188.947149 
L 132.573855 188.493004 
L 134.195832 177.820607 
L 134.320077 176.912318 
L 134.567272 175.322812 
L 134.884032 172.1438 
L 134.956508 171.462583 
L 135.147728 170.554294 
L 135.285239 168.964788 
L 135.557671 167.375282 
L 135.856959 164.423342 
L 135.967938 163.969198 
L 136.842828 157.611174 
L 136.96319 156.702884 
L 137.062845 156.24874 
L 137.159911 155.113378 
L 137.420696 152.729119 
L 137.509673 151.480222 
L 138.422096 145.576343 
L 138.533075 145.122198 
L 138.632406 143.986837 
L 138.895455 143.759764 
L 139.140709 141.943186 
L 139.213186 141.261969 
L 139.758698 137.628813 
L 139.876148 137.174668 
L 140.243058 134.222728 
L 140.703152 133.314439 
L 140.994998 128.772994 
L 141.104683 127.864704 
L 141.147068 127.183488 
L 141.323405 126.729343 
L 141.528862 124.912765 
L 141.711023 124.685692 
L 141.870859 123.096186 
L 142.617622 117.419379 
L 142.735072 116.965235 
L 143.150192 114.013295 
L 143.169929 113.332078 
L 143.404182 112.877934 
L 143.479246 112.423789 
L 143.765268 111.288428 
L 143.885954 110.834283 
L 144.112442 109.244777 
L 144.287808 108.790633 
L 144.928122 106.292837 
L 145.124519 105.157476 
L 145.130019 104.930404 
L 145.430278 104.249187 
L 146.115565 99.934813 
L 146.641341 95.62044 
L 146.829002 95.393368 
L 146.973954 94.939223 
L 147.466404 93.349717 
L 147.582883 91.760211 
L 147.713275 91.078994 
L 148.473304 86.537549 
L 148.586872 86.083404 
L 148.981284 84.266826 
L 149.048583 83.812681 
L 149.335576 82.904392 
L 149.481175 82.223175 
L 149.675308 81.314886 
L 149.765256 80.860742 
L 150.578994 79.271236 
L 150.71877 77.908802 
L 150.887018 77.227585 
L 150.908049 77.000513 
L 151.306667 76.546368 
L 151.444178 76.319296 
L 151.475886 75.865151 
L 151.738936 75.411007 
L 151.856062 74.72979 
L 152.089668 74.502718 
L 152.138201 73.594429 
L 153.090421 72.686139 
L 153.341176 71.77785 
L 154.304396 68.598838 
L 154.808493 67.917621 
L 154.969623 67.690549 
L 155.354976 67.463477 
L 155.398656 67.236405 
L 155.62935 67.009332 
L 155.656205 66.78226 
L 155.938021 66.328115 
L 156.444383 64.738609 
L 156.742053 64.511537 
L 156.843002 64.284465 
L 157.973823 63.603248 
L 158.000678 63.376176 
L 158.166338 63.149103 
L 158.272464 62.013742 
L 158.442977 61.78667 
L 159.481585 61.559598 
L 159.676688 61.105453 
L 159.77699 60.878381 
L 160.277205 60.651308 
L 160.61273 59.743019 
L 162.25412 59.061802 
L 162.35151 58.83473 
L 163.086302 58.607658 
L 163.143894 58.380586 
L 164.316131 58.153513 
L 165.192962 57.699369 
L 167.138493 57.472296 
L 168.0768 57.245224 
L 168.131481 56.904616 
L 168.131481 56.904616 
" clip-path="url(#peb18a2ba16)" style="fill: none; stroke: #ff7f0e; stroke-width: 2; stroke-linecap: square"/>
   </g>
   <g id="line2d_29">
    <path d="M 84.93569 289.426634 
L 95.512674 289.086026 
L 97.022701 288.858954 
L 98.140581 288.404809 
L 99.533804 288.177737 
L 99.610163 287.950664 
L 99.943748 287.723592 
L 100.625476 287.49652 
L 100.749721 287.042375 
L 100.973297 286.588231 
L 101.607139 286.361158 
L 102.812055 286.134086 
L 103.170876 285.679942 
L 104.312051 285.225797 
L 104.356055 284.998725 
L 104.889272 284.317508 
L 105.030342 284.090436 
L 105.407929 283.863363 
L 106.069921 282.955074 
L 107.062585 282.728002 
L 107.534974 282.50093 
L 108.09537 281.819713 
L 108.562582 281.592641 
L 108.565494 281.365568 
L 109.798235 280.230207 
L 110.184558 280.003135 
L 110.424636 279.54899 
L 110.82746 279.094845 
L 110.869846 278.640701 
L 111.194371 278.186556 
L 111.477804 277.732412 
L 111.839861 277.278267 
L 111.881923 277.051195 
L 112.288954 276.824123 
L 112.496676 276.369978 
L 113.530108 275.461689 
L 113.860133 275.234617 
L 114.017704 274.780472 
L 114.385261 274.326327 
L 114.615955 274.099255 
L 114.676784 273.645111 
L 115.090609 273.190966 
L 115.098051 272.963894 
L 115.558469 272.055605 
L 115.672036 271.60146 
L 115.730599 271.147315 
L 116.539808 270.920243 
L 116.774061 270.011954 
L 117.161356 269.103665 
L 117.490734 268.64952 
L 117.667394 267.968303 
L 117.77805 267.287087 
L 118.176992 267.060014 
L 118.252056 266.832942 
L 118.575934 266.378798 
L 118.77945 265.243436 
L 119.242456 264.562219 
L 119.878563 261.837352 
L 119.99666 261.156135 
L 120.107316 260.474918 
L 120.207618 260.020774 
L 120.412427 259.112484 
L 120.711715 258.204195 
L 120.932055 256.614689 
L 121.062771 256.160545 
L 121.230696 255.252256 
L 121.363676 254.571039 
L 121.736087 252.073244 
L 121.861626 251.619099 
L 122.020491 250.937882 
L 122.294218 250.71081 
L 122.61033 249.121304 
L 122.798639 248.667159 
L 122.81967 248.213015 
L 122.996977 247.531798 
L 123.008949 247.304726 
L 123.219583 247.077653 
L 123.28947 246.623509 
L 123.476808 245.71522 
L 123.794215 243.898641 
L 123.929784 243.444497 
L 124.237484 241.400846 
L 124.348139 240.946702 
L 124.550037 239.81134 
L 125.200704 234.81575 
L 125.407132 233.453316 
L 125.541407 232.545027 
L 125.788279 231.182594 
L 125.884374 230.501377 
L 126.448329 226.414076 
L 126.922336 224.370425 
L 127.15303 223.235064 
L 127.294099 222.553847 
L 127.597593 220.056052 
L 127.698219 219.147762 
L 128.447893 213.243883 
L 128.561137 212.108522 
L 128.816098 210.064871 
L 129.018319 209.156582 
L 129.134152 207.340004 
L 129.283634 205.750498 
L 129.420821 204.388064 
L 129.964715 201.209052 
L 130.291505 196.894679 
L 130.392454 195.759317 
L 130.546465 194.396884 
L 130.696271 194.169811 
L 130.801102 193.488594 
L 131.08033 191.899088 
L 131.343703 188.265932 
L 131.433004 187.357643 
L 131.552395 186.222281 
L 131.854918 184.859848 
L 132.004724 183.724486 
L 132.33572 181.680836 
L 132.559619 179.410113 
L 132.659921 178.274751 
L 132.73628 177.820607 
L 132.955973 175.095739 
L 133.057569 172.825017 
L 133.188285 171.916727 
L 133.319971 169.873077 
L 133.369475 168.964788 
L 133.477218 167.829426 
L 133.891368 163.742125 
L 133.982286 162.266155 
L 134.346285 157.838246 
L 134.449498 156.702884 
L 134.860089 152.615583 
L 135.018954 152.161439 
L 137.785018 126.275198 
L 137.942589 125.821054 
L 138.088512 124.45862 
L 138.183313 123.096186 
L 139.003523 115.489265 
L 139.151063 114.240367 
L 139.369462 111.5155 
L 139.484324 110.380139 
L 139.601127 109.471849 
L 140.011394 105.157476 
L 140.090341 104.249187 
L 140.360185 101.978464 
L 140.483459 101.524319 
L 140.840339 97.891163 
L 140.935141 97.437018 
L 141.038354 96.528729 
L 141.137362 95.847512 
L 141.591955 91.533139 
L 141.761498 90.851922 
L 141.919392 89.035344 
L 142.19053 87.899982 
L 142.391781 86.764621 
L 142.82502 83.812681 
L 142.978385 82.223175 
L 143.094541 81.314886 
L 143.118807 80.860742 
L 143.26473 80.406597 
L 143.755562 77.000513 
L 143.842274 76.546368 
L 143.975578 75.638079 
L 144.165828 75.183935 
L 144.342489 73.821501 
L 144.599714 72.231995 
L 144.665072 71.096633 
L 144.900296 70.642489 
L 145.056249 69.7342 
L 145.189877 68.825911 
L 145.429954 68.598838 
L 145.494988 67.917621 
L 145.670678 67.463477 
L 145.92758 66.101043 
L 146.286078 65.873971 
L 146.52292 64.738609 
L 147.010192 62.922031 
L 147.196236 62.013742 
L 147.218561 61.559598 
L 147.970501 60.424236 
L 148.330293 59.515947 
L 148.705939 59.288875 
L 148.777121 58.83473 
L 150.017951 57.926441 
L 150.040924 57.699369 
L 151.727935 56.904616 
L 151.727935 56.904616 
" clip-path="url(#peb18a2ba16)" style="fill: none; stroke: #2ca02c; stroke-width: 2; stroke-linecap: square"/>
   </g>
   <g id="line2d_30">
    <path d="M 123.386899 301.177625 
L 123.386899 45.153625 
" clip-path="url(#peb18a2ba16)" style="fill: none; stroke-dasharray: 7.4,3.2; stroke-dashoffset: 0; stroke: #808080; stroke-opacity: 0.5; stroke-width: 2"/>
   </g>
   <g id="patch_3">
    <path d="M 58.5075 301.177625 
L 58.5075 45.153625 
" style="fill: none; stroke: #000000; stroke-width: 0.8; stroke-linejoin: miter; stroke-linecap: square"/>
   </g>
   <g id="patch_4">
    <path d="M 488.6875 301.177625 
L 488.6875 45.153625 
" style="fill: none; stroke: #000000; stroke-width: 0.8; stroke-linejoin: miter; stroke-linecap: square"/>
   </g>
   <g id="patch_5">
    <path d="M 58.5075 301.177625 
L 488.6875 301.177625 
" style="fill: none; stroke: #000000; stroke-width: 0.8; stroke-linejoin: miter; stroke-linecap: square"/>
   </g>
   <g id="patch_6">
    <path d="M 58.5075 45.153625 
L 488.6875 45.153625 
" style="fill: none; stroke: #000000; stroke-width: 0.8; stroke-linejoin: miter; stroke-linecap: square"/>
   </g>
   <g id="text_16">
    <!-- Ideal Completion Time -->
    <g style="fill: #808080" transform="translate(129.284135 297.228468) rotate(-90) scale(0.15 -0.15)">
     <defs>
      <path id="DejaVuSans-49" d="M 628 4666 
L 1259 4666 
L 1259 0 
L 628 0 
L 628 4666 
z
" transform="scale(0.015625)"/>
      <path id="DejaVuSans-64" d="M 2906 2969 
L 2906 4863 
L 3481 4863 
L 3481 0 
L 2906 0 
L 2906 525 
Q 2725 213 2448 61 
Q 2172 -91 1784 -91 
Q 1150 -91 751 415 
Q 353 922 353 1747 
Q 353 2572 751 3078 
Q 1150 3584 1784 3584 
Q 2172 3584 2448 3432 
Q 2725 3281 2906 2969 
z
M 947 1747 
Q 947 1113 1208 752 
Q 1469 391 1925 391 
Q 2381 391 2643 752 
Q 2906 1113 2906 1747 
Q 2906 2381 2643 2742 
Q 2381 3103 1925 3103 
Q 1469 3103 1208 2742 
Q 947 2381 947 1747 
z
" transform="scale(0.015625)"/>
      <path id="DejaVuSans-61" d="M 2194 1759 
Q 1497 1759 1228 1600 
Q 959 1441 959 1056 
Q 959 750 1161 570 
Q 1363 391 1709 391 
Q 2188 391 2477 730 
Q 2766 1069 2766 1631 
L 2766 1759 
L 2194 1759 
z
M 3341 1997 
L 3341 0 
L 2766 0 
L 2766 531 
Q 2569 213 2275 61 
Q 1981 -91 1556 -91 
Q 1019 -91 701 211 
Q 384 513 384 1019 
Q 384 1609 779 1909 
Q 1175 2209 1959 2209 
L 2766 2209 
L 2766 2266 
Q 2766 2663 2505 2880 
Q 2244 3097 1772 3097 
Q 1472 3097 1187 3025 
Q 903 2953 641 2809 
L 641 3341 
Q 956 3463 1253 3523 
Q 1550 3584 1831 3584 
Q 2591 3584 2966 3190 
Q 3341 2797 3341 1997 
z
" transform="scale(0.015625)"/>
     </defs>
     <use xlink:href="#DejaVuSans-49"/>
     <use xlink:href="#DejaVuSans-64" x="29.492188"/>
     <use xlink:href="#DejaVuSans-65" x="92.96875"/>
     <use xlink:href="#DejaVuSans-61" x="154.492188"/>
     <use xlink:href="#DejaVuSans-6c" x="215.771484"/>
     <use xlink:href="#DejaVuSans-20" x="243.554688"/>
     <use xlink:href="#DejaVuSans-43" x="275.341797"/>
     <use xlink:href="#DejaVuSans-6f" x="345.166016"/>
     <use xlink:href="#DejaVuSans-6d" x="406.347656"/>
     <use xlink:href="#DejaVuSans-70" x="503.759766"/>
     <use xlink:href="#DejaVuSans-6c" x="567.236328"/>
     <use xlink:href="#DejaVuSans-65" x="595.019531"/>
     <use xlink:href="#DejaVuSans-74" x="656.542969"/>
     <use xlink:href="#DejaVuSans-69" x="695.751953"/>
     <use xlink:href="#DejaVuSans-6f" x="723.535156"/>
     <use xlink:href="#DejaVuSans-6e" x="784.716797"/>
     <use xlink:href="#DejaVuSans-20" x="848.095703"/>
     <use xlink:href="#DejaVuSans-54" x="879.882812"/>
     <use xlink:href="#DejaVuSans-69" x="937.841797"/>
     <use xlink:href="#DejaVuSans-6d" x="965.625"/>
     <use xlink:href="#DejaVuSans-65" x="1063.037109"/>
    </g>
   </g>
   <g id="text_17">
    <!-- Permutation 4:1 oversubscription 32MiB -->
    <g transform="translate(102.786016 20.117344) scale(0.17 -0.17)">
     <defs>
      <path id="DejaVuSans-50" d="M 1259 4147 
L 1259 2394 
L 2053 2394 
Q 2494 2394 2734 2622 
Q 2975 2850 2975 3272 
Q 2975 3691 2734 3919 
Q 2494 4147 2053 4147 
L 1259 4147 
z
M 628 4666 
L 2053 4666 
Q 2838 4666 3239 4311 
Q 3641 3956 3641 3272 
Q 3641 2581 3239 2228 
Q 2838 1875 2053 1875 
L 1259 1875 
L 1259 0 
L 628 0 
L 628 4666 
z
" transform="scale(0.015625)"/>
      <path id="DejaVuSans-72" d="M 2631 2963 
Q 2534 3019 2420 3045 
Q 2306 3072 2169 3072 
Q 1681 3072 1420 2755 
Q 1159 2438 1159 1844 
L 1159 0 
L 581 0 
L 581 3500 
L 1159 3500 
L 1159 2956 
Q 1341 3275 1631 3429 
Q 1922 3584 2338 3584 
Q 2397 3584 2469 3576 
Q 2541 3569 2628 3553 
L 2631 2963 
z
" transform="scale(0.015625)"/>
      <path id="DejaVuSans-3a" d="M 750 794 
L 1409 794 
L 1409 0 
L 750 0 
L 750 794 
z
M 750 3309 
L 1409 3309 
L 1409 2516 
L 750 2516 
L 750 3309 
z
" transform="scale(0.015625)"/>
      <path id="DejaVuSans-76" d="M 191 3500 
L 800 3500 
L 1894 563 
L 2988 3500 
L 3597 3500 
L 2284 0 
L 1503 0 
L 191 3500 
z
" transform="scale(0.015625)"/>
      <path id="DejaVuSans-62" d="M 3116 1747 
Q 3116 2381 2855 2742 
Q 2594 3103 2138 3103 
Q 1681 3103 1420 2742 
Q 1159 2381 1159 1747 
Q 1159 1113 1420 752 
Q 1681 391 2138 391 
Q 2594 391 2855 752 
Q 3116 1113 3116 1747 
z
M 1159 2969 
Q 1341 3281 1617 3432 
Q 1894 3584 2278 3584 
Q 2916 3584 3314 3078 
Q 3713 2572 3713 1747 
Q 3713 922 3314 415 
Q 2916 -91 2278 -91 
Q 1894 -91 1617 61 
Q 1341 213 1159 525 
L 1159 0 
L 581 0 
L 581 4863 
L 1159 4863 
L 1159 2969 
z
" transform="scale(0.015625)"/>
      <path id="DejaVuSans-63" d="M 3122 3366 
L 3122 2828 
Q 2878 2963 2633 3030 
Q 2388 3097 2138 3097 
Q 1578 3097 1268 2742 
Q 959 2388 959 1747 
Q 959 1106 1268 751 
Q 1578 397 2138 397 
Q 2388 397 2633 464 
Q 2878 531 3122 666 
L 3122 134 
Q 2881 22 2623 -34 
Q 2366 -91 2075 -91 
Q 1284 -91 818 406 
Q 353 903 353 1747 
Q 353 2603 823 3093 
Q 1294 3584 2113 3584 
Q 2378 3584 2631 3529 
Q 2884 3475 3122 3366 
z
" transform="scale(0.015625)"/>
      <path id="DejaVuSans-4d" d="M 628 4666 
L 1569 4666 
L 2759 1491 
L 3956 4666 
L 4897 4666 
L 4897 0 
L 4281 0 
L 4281 4097 
L 3078 897 
L 2444 897 
L 1241 4097 
L 1241 0 
L 628 0 
L 628 4666 
z
" transform="scale(0.015625)"/>
      <path id="DejaVuSans-42" d="M 1259 2228 
L 1259 519 
L 2272 519 
Q 2781 519 3026 730 
Q 3272 941 3272 1375 
Q 3272 1813 3026 2020 
Q 2781 2228 2272 2228 
L 1259 2228 
z
M 1259 4147 
L 1259 2741 
L 2194 2741 
Q 2656 2741 2882 2914 
Q 3109 3088 3109 3444 
Q 3109 3797 2882 3972 
Q 2656 4147 2194 4147 
L 1259 4147 
z
M 628 4666 
L 2241 4666 
Q 2963 4666 3353 4366 
Q 3744 4066 3744 3513 
Q 3744 3084 3544 2831 
Q 3344 2578 2956 2516 
Q 3422 2416 3680 2098 
Q 3938 1781 3938 1306 
Q 3938 681 3513 340 
Q 3088 0 2303 0 
L 628 0 
L 628 4666 
z
" transform="scale(0.015625)"/>
     </defs>
     <use xlink:href="#DejaVuSans-50"/>
     <use xlink:href="#DejaVuSans-65" x="56.677734"/>
     <use xlink:href="#DejaVuSans-72" x="118.201172"/>
     <use xlink:href="#DejaVuSans-6d" x="157.564453"/>
     <use xlink:href="#DejaVuSans-75" x="254.976562"/>
     <use xlink:href="#DejaVuSans-74" x="318.355469"/>
     <use xlink:href="#DejaVuSans-61" x="357.564453"/>
     <use xlink:href="#DejaVuSans-74" x="418.84375"/>
     <use xlink:href="#DejaVuSans-69" x="458.052734"/>
     <use xlink:href="#DejaVuSans-6f" x="485.835938"/>
     <use xlink:href="#DejaVuSans-6e" x="547.017578"/>
     <use xlink:href="#DejaVuSans-20" x="610.396484"/>
     <use xlink:href="#DejaVuSans-34" x="642.183594"/>
     <use xlink:href="#DejaVuSans-3a" x="705.806641"/>
     <use xlink:href="#DejaVuSans-31" x="739.498047"/>
     <use xlink:href="#DejaVuSans-20" x="803.121094"/>
     <use xlink:href="#DejaVuSans-6f" x="834.908203"/>
     <use xlink:href="#DejaVuSans-76" x="896.089844"/>
     <use xlink:href="#DejaVuSans-65" x="955.269531"/>
     <use xlink:href="#DejaVuSans-72" x="1016.792969"/>
     <use xlink:href="#DejaVuSans-73" x="1057.90625"/>
     <use xlink:href="#DejaVuSans-75" x="1110.005859"/>
     <use xlink:href="#DejaVuSans-62" x="1173.384766"/>
     <use xlink:href="#DejaVuSans-73" x="1236.861328"/>
     <use xlink:href="#DejaVuSans-63" x="1288.960938"/>
     <use xlink:href="#DejaVuSans-72" x="1343.941406"/>
     <use xlink:href="#DejaVuSans-69" x="1385.054688"/>
     <use xlink:href="#DejaVuSans-70" x="1412.837891"/>
     <use xlink:href="#DejaVuSans-74" x="1476.314453"/>
     <use xlink:href="#DejaVuSans-69" x="1515.523438"/>
     <use xlink:href="#DejaVuSans-6f" x="1543.306641"/>
     <use xlink:href="#DejaVuSans-6e" x="1604.488281"/>
     <use xlink:href="#DejaVuSans-20" x="1667.867188"/>
     <use xlink:href="#DejaVuSans-33" x="1699.654297"/>
     <use xlink:href="#DejaVuSans-32" x="1763.277344"/>
     <use xlink:href="#DejaVuSans-4d" x="1826.900391"/>
     <use xlink:href="#DejaVuSans-69" x="1913.179688"/>
     <use xlink:href="#DejaVuSans-42" x="1940.962891"/>
    </g>
    <!-- Link Speed 800Gbps - 4KiB MTU -->
    <g transform="translate(137.015781 39.153625) scale(0.17 -0.17)">
     <defs>
      <path id="DejaVuSans-4c" d="M 628 4666 
L 1259 4666 
L 1259 531 
L 3531 531 
L 3531 0 
L 628 0 
L 628 4666 
z
" transform="scale(0.015625)"/>
      <path id="DejaVuSans-6b" d="M 581 4863 
L 1159 4863 
L 1159 1991 
L 2875 3500 
L 3609 3500 
L 1753 1863 
L 3688 0 
L 2938 0 
L 1159 1709 
L 1159 0 
L 581 0 
L 581 4863 
z
" transform="scale(0.015625)"/>
      <path id="DejaVuSans-53" d="M 3425 4513 
L 3425 3897 
Q 3066 4069 2747 4153 
Q 2428 4238 2131 4238 
Q 1616 4238 1336 4038 
Q 1056 3838 1056 3469 
Q 1056 3159 1242 3001 
Q 1428 2844 1947 2747 
L 2328 2669 
Q 3034 2534 3370 2195 
Q 3706 1856 3706 1288 
Q 3706 609 3251 259 
Q 2797 -91 1919 -91 
Q 1588 -91 1214 -16 
Q 841 59 441 206 
L 441 856 
Q 825 641 1194 531 
Q 1563 422 1919 422 
Q 2459 422 2753 634 
Q 3047 847 3047 1241 
Q 3047 1584 2836 1778 
Q 2625 1972 2144 2069 
L 1759 2144 
Q 1053 2284 737 2584 
Q 422 2884 422 3419 
Q 422 4038 858 4394 
Q 1294 4750 2059 4750 
Q 2388 4750 2728 4690 
Q 3069 4631 3425 4513 
z
" transform="scale(0.015625)"/>
      <path id="DejaVuSans-47" d="M 3809 666 
L 3809 1919 
L 2778 1919 
L 2778 2438 
L 4434 2438 
L 4434 434 
Q 4069 175 3628 42 
Q 3188 -91 2688 -91 
Q 1594 -91 976 548 
Q 359 1188 359 2328 
Q 359 3472 976 4111 
Q 1594 4750 2688 4750 
Q 3144 4750 3555 4637 
Q 3966 4525 4313 4306 
L 4313 3634 
Q 3963 3931 3569 4081 
Q 3175 4231 2741 4231 
Q 1884 4231 1454 3753 
Q 1025 3275 1025 2328 
Q 1025 1384 1454 906 
Q 1884 428 2741 428 
Q 3075 428 3337 486 
Q 3600 544 3809 666 
z
" transform="scale(0.015625)"/>
      <path id="DejaVuSans-2d" d="M 313 2009 
L 1997 2009 
L 1997 1497 
L 313 1497 
L 313 2009 
z
" transform="scale(0.015625)"/>
      <path id="DejaVuSans-4b" d="M 628 4666 
L 1259 4666 
L 1259 2694 
L 3353 4666 
L 4166 4666 
L 1850 2491 
L 4331 0 
L 3500 0 
L 1259 2247 
L 1259 0 
L 628 0 
L 628 4666 
z
" transform="scale(0.015625)"/>
      <path id="DejaVuSans-55" d="M 556 4666 
L 1191 4666 
L 1191 1831 
Q 1191 1081 1462 751 
Q 1734 422 2344 422 
Q 2950 422 3222 751 
Q 3494 1081 3494 1831 
L 3494 4666 
L 4128 4666 
L 4128 1753 
Q 4128 841 3676 375 
Q 3225 -91 2344 -91 
Q 1459 -91 1007 375 
Q 556 841 556 1753 
L 556 4666 
z
" transform="scale(0.015625)"/>
     </defs>
     <use xlink:href="#DejaVuSans-4c"/>
     <use xlink:href="#DejaVuSans-69" x="55.712891"/>
     <use xlink:href="#DejaVuSans-6e" x="83.496094"/>
     <use xlink:href="#DejaVuSans-6b" x="146.875"/>
     <use xlink:href="#DejaVuSans-20" x="204.785156"/>
     <use xlink:href="#DejaVuSans-53" x="236.572266"/>
     <use xlink:href="#DejaVuSans-70" x="300.048828"/>
     <use xlink:href="#DejaVuSans-65" x="363.525391"/>
     <use xlink:href="#DejaVuSans-65" x="425.048828"/>
     <use xlink:href="#DejaVuSans-64" x="486.572266"/>
     <use xlink:href="#DejaVuSans-20" x="550.048828"/>
     <use xlink:href="#DejaVuSans-38" x="581.835938"/>
     <use xlink:href="#DejaVuSans-30" x="645.458984"/>
     <use xlink:href="#DejaVuSans-30" x="709.082031"/>
     <use xlink:href="#DejaVuSans-47" x="772.705078"/>
     <use xlink:href="#DejaVuSans-62" x="850.195312"/>
     <use xlink:href="#DejaVuSans-70" x="913.671875"/>
     <use xlink:href="#DejaVuSans-73" x="977.148438"/>
     <use xlink:href="#DejaVuSans-20" x="1029.248047"/>
     <use xlink:href="#DejaVuSans-2d" x="1061.035156"/>
     <use xlink:href="#DejaVuSans-20" x="1097.119141"/>
     <use xlink:href="#DejaVuSans-34" x="1128.90625"/>
     <use xlink:href="#DejaVuSans-4b" x="1192.529297"/>
     <use xlink:href="#DejaVuSans-69" x="1258.105469"/>
     <use xlink:href="#DejaVuSans-42" x="1285.888672"/>
     <use xlink:href="#DejaVuSans-20" x="1354.492188"/>
     <use xlink:href="#DejaVuSans-4d" x="1386.279297"/>
     <use xlink:href="#DejaVuSans-54" x="1472.558594"/>
     <use xlink:href="#DejaVuSans-55" x="1533.642578"/>
    </g>
   </g>
   <g id="legend_1"/>
  </g>
 </g>
 <defs>
  <clipPath id="peb18a2ba16">
   <rect x="58.5075" y="45.153625" width="430.18" height="256.024"/>
  </clipPath>
 </defs>
</svg>
