<?xml version="1.0" encoding="utf-8" standalone="no"?>
<!DOCTYPE svg PUBLIC "-//W3C//DTD SVG 1.1//EN"
  "http://www.w3.org/Graphics/SVG/1.1/DTD/svg11.dtd">
<svg xmlns:xlink="http://www.w3.org/1999/xlink" width="495.8875pt" height="350.347625pt" viewBox="0 0 495.8875 350.347625" xmlns="http://www.w3.org/2000/svg" version="1.1">
 <metadata>
  <rdf:RDF xmlns:dc="http://purl.org/dc/elements/1.1/" xmlns:cc="http://creativecommons.org/ns#" xmlns:rdf="http://www.w3.org/1999/02/22-rdf-syntax-ns#">
   <cc:Work>
    <dc:type rdf:resource="http://purl.org/dc/dcmitype/StillImage"/>
    <dc:date>2023-09-21T11:56:15.157336</dc:date>
    <dc:format>image/svg+xml</dc:format>
    <dc:creator>
     <cc:Agent>
      <dc:title>Matplotlib v3.7.1, https://matplotlib.org/</dc:title>
     </cc:Agent>
    </dc:creator>
   </cc:Work>
  </rdf:RDF>
 </metadata>
 <defs>
  <style type="text/css">*{stroke-linejoin: round; stroke-linecap: butt}</style>
 </defs>
 <g id="figure_1">
  <g id="patch_1">
   <path d="M 0 350.347625 
L 495.8875 350.347625 
L 495.8875 0 
L 0 0 
z
" style="fill: #ffffff"/>
  </g>
  <g id="axes_1">
   <g id="patch_2">
    <path d="M 58.5075 301.177625 
L 488.6875 301.177625 
L 488.6875 45.153625 
L 58.5075 45.153625 
z
" style="fill: #ffffff"/>
   </g>
   <g id="PolyCollection_1">
    <path d="M 369.539451 287.735914 
L 369.539451 289.54017 
L 369.539451 287.735914 
L 369.539451 287.735914 
z
" clip-path="url(#p20243be5c9)" style="fill: #1f77b4; fill-opacity: 0.2; stroke: #1f77b4; stroke-opacity: 0.2"/>
    <path d="M 381.311023 219.174166 
L 381.311023 220.978423 
L 381.311023 219.174166 
L 381.311023 219.174166 
z
" clip-path="url(#p20243be5c9)" style="fill: #1f77b4; fill-opacity: 0.2; stroke: #1f77b4; stroke-opacity: 0.2"/>
    <path d="M 382.138853 199.327345 
L 382.138853 201.131601 
L 382.138853 199.327345 
L 382.138853 199.327345 
z
" clip-path="url(#p20243be5c9)" style="fill: #1f77b4; fill-opacity: 0.2; stroke: #1f77b4; stroke-opacity: 0.2"/>
    <path d="M 382.912102 177.676266 
L 382.912102 179.480523 
L 382.912102 177.676266 
L 382.912102 177.676266 
z
" clip-path="url(#p20243be5c9)" style="fill: #1f77b4; fill-opacity: 0.2; stroke: #1f77b4; stroke-opacity: 0.2"/>
    <path d="M 383.676254 156.025188 
L 383.676254 157.829445 
L 383.676254 156.025188 
L 383.676254 156.025188 
z
" clip-path="url(#p20243be5c9)" style="fill: #1f77b4; fill-opacity: 0.2; stroke: #1f77b4; stroke-opacity: 0.2"/>
    <path d="M 386.751054 80.246414 
L 386.751054 82.050671 
L 386.751054 80.246414 
L 386.751054 80.246414 
z
" clip-path="url(#p20243be5c9)" style="fill: #1f77b4; fill-opacity: 0.2; stroke: #1f77b4; stroke-opacity: 0.2"/>
    <path d="M 387.087644 73.029388 
L 387.087644 74.833645 
L 387.087644 73.029388 
L 387.087644 73.029388 
z
" clip-path="url(#p20243be5c9)" style="fill: #1f77b4; fill-opacity: 0.2; stroke: #1f77b4; stroke-opacity: 0.2"/>
    <path d="M 388.670529 56.79108 
L 388.670529 58.595336 
L 388.670529 56.79108 
L 388.670529 56.79108 
z
" clip-path="url(#p20243be5c9)" style="fill: #1f77b4; fill-opacity: 0.2; stroke: #1f77b4; stroke-opacity: 0.2"/>
   </g>
   <g id="PolyCollection_2">
    <path d="M 78.061136 287.735914 
L 78.061136 289.54017 
L 78.061136 287.735914 
L 78.061136 287.735914 
z
" clip-path="url(#p20243be5c9)" style="fill: #ff7f0e; fill-opacity: 0.2; stroke: #ff7f0e; stroke-opacity: 0.2"/>
    <path d="M 469.133864 56.79108 
L 469.133864 58.595336 
L 469.133864 56.79108 
L 469.133864 56.79108 
z
" clip-path="url(#p20243be5c9)" style="fill: #ff7f0e; fill-opacity: 0.2; stroke: #ff7f0e; stroke-opacity: 0.2"/>
   </g>
   <g id="PolyCollection_3">
    <path d="M 145.479313 287.735914 
L 145.479313 289.54017 
L 145.479313 287.735914 
L 145.479313 287.735914 
z
" clip-path="url(#p20243be5c9)" style="fill: #2ca02c; fill-opacity: 0.2; stroke: #2ca02c; stroke-opacity: 0.2"/>
    <path d="M 278.814653 100.093236 
L 278.814653 101.897493 
L 278.814653 100.093236 
L 278.814653 100.093236 
z
" clip-path="url(#p20243be5c9)" style="fill: #2ca02c; fill-opacity: 0.2; stroke: #2ca02c; stroke-opacity: 0.2"/>
    <path d="M 308.352748 56.79108 
L 308.352748 58.595336 
L 308.352748 56.79108 
L 308.352748 56.79108 
z
" clip-path="url(#p20243be5c9)" style="fill: #2ca02c; fill-opacity: 0.2; stroke: #2ca02c; stroke-opacity: 0.2"/>
   </g>
   <g id="matplotlib.axis_1">
    <g id="xtick_1">
     <g id="line2d_1">
      <path d="M 106.889662 301.177625 
L 106.889662 45.153625 
" clip-path="url(#p20243be5c9)" style="fill: none; stroke: #b0b0b0; stroke-width: 0.8; stroke-linecap: square"/>
     </g>
     <g id="line2d_2">
      <defs>
       <path id="m7ca5219443" d="M 0 0 
L 0 3.5 
" style="stroke: #000000; stroke-width: 0.8"/>
      </defs>
      <g>
       <use xlink:href="#m7ca5219443" x="106.889662" y="301.177625" style="stroke: #000000; stroke-width: 0.8"/>
      </g>
     </g>
     <g id="text_1">
      <!-- 80 -->
      <g transform="translate(97.345912 319.575281) scale(0.15 -0.15)">
       <defs>
        <path id="DejaVuSans-38" d="M 2034 2216 
Q 1584 2216 1326 1975 
Q 1069 1734 1069 1313 
Q 1069 891 1326 650 
Q 1584 409 2034 409 
Q 2484 409 2743 651 
Q 3003 894 3003 1313 
Q 3003 1734 2745 1975 
Q 2488 2216 2034 2216 
z
M 1403 2484 
Q 997 2584 770 2862 
Q 544 3141 544 3541 
Q 544 4100 942 4425 
Q 1341 4750 2034 4750 
Q 2731 4750 3128 4425 
Q 3525 4100 3525 3541 
Q 3525 3141 3298 2862 
Q 3072 2584 2669 2484 
Q 3125 2378 3379 2068 
Q 3634 1759 3634 1313 
Q 3634 634 3220 271 
Q 2806 -91 2034 -91 
Q 1263 -91 848 271 
Q 434 634 434 1313 
Q 434 1759 690 2068 
Q 947 2378 1403 2484 
z
M 1172 3481 
Q 1172 3119 1398 2916 
Q 1625 2713 2034 2713 
Q 2441 2713 2670 2916 
Q 2900 3119 2900 3481 
Q 2900 3844 2670 4047 
Q 2441 4250 2034 4250 
Q 1625 4250 1398 4047 
Q 1172 3844 1172 3481 
z
" transform="scale(0.015625)"/>
        <path id="DejaVuSans-30" d="M 2034 4250 
Q 1547 4250 1301 3770 
Q 1056 3291 1056 2328 
Q 1056 1369 1301 889 
Q 1547 409 2034 409 
Q 2525 409 2770 889 
Q 3016 1369 3016 2328 
Q 3016 3291 2770 3770 
Q 2525 4250 2034 4250 
z
M 2034 4750 
Q 2819 4750 3233 4129 
Q 3647 3509 3647 2328 
Q 3647 1150 3233 529 
Q 2819 -91 2034 -91 
Q 1250 -91 836 529 
Q 422 1150 422 2328 
Q 422 3509 836 4129 
Q 1250 4750 2034 4750 
z
" transform="scale(0.015625)"/>
       </defs>
       <use xlink:href="#DejaVuSans-38"/>
       <use xlink:href="#DejaVuSans-30" x="63.623047"/>
      </g>
     </g>
    </g>
    <g id="xtick_2">
     <g id="line2d_3">
      <path d="M 197.860079 301.177625 
L 197.860079 45.153625 
" clip-path="url(#p20243be5c9)" style="fill: none; stroke: #b0b0b0; stroke-width: 0.8; stroke-linecap: square"/>
     </g>
     <g id="line2d_4">
      <g>
       <use xlink:href="#m7ca5219443" x="197.860079" y="301.177625" style="stroke: #000000; stroke-width: 0.8"/>
      </g>
     </g>
     <g id="text_2">
      <!-- 90 -->
      <g transform="translate(188.316329 319.575281) scale(0.15 -0.15)">
       <defs>
        <path id="DejaVuSans-39" d="M 703 97 
L 703 672 
Q 941 559 1184 500 
Q 1428 441 1663 441 
Q 2288 441 2617 861 
Q 2947 1281 2994 2138 
Q 2813 1869 2534 1725 
Q 2256 1581 1919 1581 
Q 1219 1581 811 2004 
Q 403 2428 403 3163 
Q 403 3881 828 4315 
Q 1253 4750 1959 4750 
Q 2769 4750 3195 4129 
Q 3622 3509 3622 2328 
Q 3622 1225 3098 567 
Q 2575 -91 1691 -91 
Q 1453 -91 1209 -44 
Q 966 3 703 97 
z
M 1959 2075 
Q 2384 2075 2632 2365 
Q 2881 2656 2881 3163 
Q 2881 3666 2632 3958 
Q 2384 4250 1959 4250 
Q 1534 4250 1286 3958 
Q 1038 3666 1038 3163 
Q 1038 2656 1286 2365 
Q 1534 2075 1959 2075 
z
" transform="scale(0.015625)"/>
       </defs>
       <use xlink:href="#DejaVuSans-39"/>
       <use xlink:href="#DejaVuSans-30" x="63.623047"/>
      </g>
     </g>
    </g>
    <g id="xtick_3">
     <g id="line2d_5">
      <path d="M 288.830496 301.177625 
L 288.830496 45.153625 
" clip-path="url(#p20243be5c9)" style="fill: none; stroke: #b0b0b0; stroke-width: 0.8; stroke-linecap: square"/>
     </g>
     <g id="line2d_6">
      <g>
       <use xlink:href="#m7ca5219443" x="288.830496" y="301.177625" style="stroke: #000000; stroke-width: 0.8"/>
      </g>
     </g>
     <g id="text_3">
      <!-- 100 -->
      <g transform="translate(274.514871 319.575281) scale(0.15 -0.15)">
       <defs>
        <path id="DejaVuSans-31" d="M 794 531 
L 1825 531 
L 1825 4091 
L 703 3866 
L 703 4441 
L 1819 4666 
L 2450 4666 
L 2450 531 
L 3481 531 
L 3481 0 
L 794 0 
L 794 531 
z
" transform="scale(0.015625)"/>
       </defs>
       <use xlink:href="#DejaVuSans-31"/>
       <use xlink:href="#DejaVuSans-30" x="63.623047"/>
       <use xlink:href="#DejaVuSans-30" x="127.246094"/>
      </g>
     </g>
    </g>
    <g id="xtick_4">
     <g id="line2d_7">
      <path d="M 379.800914 301.177625 
L 379.800914 45.153625 
" clip-path="url(#p20243be5c9)" style="fill: none; stroke: #b0b0b0; stroke-width: 0.8; stroke-linecap: square"/>
     </g>
     <g id="line2d_8">
      <g>
       <use xlink:href="#m7ca5219443" x="379.800914" y="301.177625" style="stroke: #000000; stroke-width: 0.8"/>
      </g>
     </g>
     <g id="text_4">
      <!-- 110 -->
      <g transform="translate(365.485289 319.575281) scale(0.15 -0.15)">
       <use xlink:href="#DejaVuSans-31"/>
       <use xlink:href="#DejaVuSans-31" x="63.623047"/>
       <use xlink:href="#DejaVuSans-30" x="127.246094"/>
      </g>
     </g>
    </g>
    <g id="xtick_5">
     <g id="line2d_9">
      <path d="M 470.771331 301.177625 
L 470.771331 45.153625 
" clip-path="url(#p20243be5c9)" style="fill: none; stroke: #b0b0b0; stroke-width: 0.8; stroke-linecap: square"/>
     </g>
     <g id="line2d_10">
      <g>
       <use xlink:href="#m7ca5219443" x="470.771331" y="301.177625" style="stroke: #000000; stroke-width: 0.8"/>
      </g>
     </g>
     <g id="text_5">
      <!-- 120 -->
      <g transform="translate(456.455706 319.575281) scale(0.15 -0.15)">
       <defs>
        <path id="DejaVuSans-32" d="M 1228 531 
L 3431 531 
L 3431 0 
L 469 0 
L 469 531 
Q 828 903 1448 1529 
Q 2069 2156 2228 2338 
Q 2531 2678 2651 2914 
Q 2772 3150 2772 3378 
Q 2772 3750 2511 3984 
Q 2250 4219 1831 4219 
Q 1534 4219 1204 4116 
Q 875 4013 500 3803 
L 500 4441 
Q 881 4594 1212 4672 
Q 1544 4750 1819 4750 
Q 2544 4750 2975 4387 
Q 3406 4025 3406 3419 
Q 3406 3131 3298 2873 
Q 3191 2616 2906 2266 
Q 2828 2175 2409 1742 
Q 1991 1309 1228 531 
z
" transform="scale(0.015625)"/>
       </defs>
       <use xlink:href="#DejaVuSans-31"/>
       <use xlink:href="#DejaVuSans-32" x="63.623047"/>
       <use xlink:href="#DejaVuSans-30" x="127.246094"/>
      </g>
     </g>
    </g>
    <g id="text_6">
     <!-- Flow Completion Time (us) -->
     <g transform="translate(160.161016 339.612156) scale(0.17 -0.17)">
      <defs>
       <path id="DejaVuSans-46" d="M 628 4666 
L 3309 4666 
L 3309 4134 
L 1259 4134 
L 1259 2759 
L 3109 2759 
L 3109 2228 
L 1259 2228 
L 1259 0 
L 628 0 
L 628 4666 
z
" transform="scale(0.015625)"/>
       <path id="DejaVuSans-6c" d="M 603 4863 
L 1178 4863 
L 1178 0 
L 603 0 
L 603 4863 
z
" transform="scale(0.015625)"/>
       <path id="DejaVuSans-6f" d="M 1959 3097 
Q 1497 3097 1228 2736 
Q 959 2375 959 1747 
Q 959 1119 1226 758 
Q 1494 397 1959 397 
Q 2419 397 2687 759 
Q 2956 1122 2956 1747 
Q 2956 2369 2687 2733 
Q 2419 3097 1959 3097 
z
M 1959 3584 
Q 2709 3584 3137 3096 
Q 3566 2609 3566 1747 
Q 3566 888 3137 398 
Q 2709 -91 1959 -91 
Q 1206 -91 779 398 
Q 353 888 353 1747 
Q 353 2609 779 3096 
Q 1206 3584 1959 3584 
z
" transform="scale(0.015625)"/>
       <path id="DejaVuSans-77" d="M 269 3500 
L 844 3500 
L 1563 769 
L 2278 3500 
L 2956 3500 
L 3675 769 
L 4391 3500 
L 4966 3500 
L 4050 0 
L 3372 0 
L 2619 2869 
L 1863 0 
L 1184 0 
L 269 3500 
z
" transform="scale(0.015625)"/>
       <path id="DejaVuSans-20" transform="scale(0.015625)"/>
       <path id="DejaVuSans-43" d="M 4122 4306 
L 4122 3641 
Q 3803 3938 3442 4084 
Q 3081 4231 2675 4231 
Q 1875 4231 1450 3742 
Q 1025 3253 1025 2328 
Q 1025 1406 1450 917 
Q 1875 428 2675 428 
Q 3081 428 3442 575 
Q 3803 722 4122 1019 
L 4122 359 
Q 3791 134 3420 21 
Q 3050 -91 2638 -91 
Q 1578 -91 968 557 
Q 359 1206 359 2328 
Q 359 3453 968 4101 
Q 1578 4750 2638 4750 
Q 3056 4750 3426 4639 
Q 3797 4528 4122 4306 
z
" transform="scale(0.015625)"/>
       <path id="DejaVuSans-6d" d="M 3328 2828 
Q 3544 3216 3844 3400 
Q 4144 3584 4550 3584 
Q 5097 3584 5394 3201 
Q 5691 2819 5691 2113 
L 5691 0 
L 5113 0 
L 5113 2094 
Q 5113 2597 4934 2840 
Q 4756 3084 4391 3084 
Q 3944 3084 3684 2787 
Q 3425 2491 3425 1978 
L 3425 0 
L 2847 0 
L 2847 2094 
Q 2847 2600 2669 2842 
Q 2491 3084 2119 3084 
Q 1678 3084 1418 2786 
Q 1159 2488 1159 1978 
L 1159 0 
L 581 0 
L 581 3500 
L 1159 3500 
L 1159 2956 
Q 1356 3278 1631 3431 
Q 1906 3584 2284 3584 
Q 2666 3584 2933 3390 
Q 3200 3197 3328 2828 
z
" transform="scale(0.015625)"/>
       <path id="DejaVuSans-70" d="M 1159 525 
L 1159 -1331 
L 581 -1331 
L 581 3500 
L 1159 3500 
L 1159 2969 
Q 1341 3281 1617 3432 
Q 1894 3584 2278 3584 
Q 2916 3584 3314 3078 
Q 3713 2572 3713 1747 
Q 3713 922 3314 415 
Q 2916 -91 2278 -91 
Q 1894 -91 1617 61 
Q 1341 213 1159 525 
z
M 3116 1747 
Q 3116 2381 2855 2742 
Q 2594 3103 2138 3103 
Q 1681 3103 1420 2742 
Q 1159 2381 1159 1747 
Q 1159 1113 1420 752 
Q 1681 391 2138 391 
Q 2594 391 2855 752 
Q 3116 1113 3116 1747 
z
" transform="scale(0.015625)"/>
       <path id="DejaVuSans-65" d="M 3597 1894 
L 3597 1613 
L 953 1613 
Q 991 1019 1311 708 
Q 1631 397 2203 397 
Q 2534 397 2845 478 
Q 3156 559 3463 722 
L 3463 178 
Q 3153 47 2828 -22 
Q 2503 -91 2169 -91 
Q 1331 -91 842 396 
Q 353 884 353 1716 
Q 353 2575 817 3079 
Q 1281 3584 2069 3584 
Q 2775 3584 3186 3129 
Q 3597 2675 3597 1894 
z
M 3022 2063 
Q 3016 2534 2758 2815 
Q 2500 3097 2075 3097 
Q 1594 3097 1305 2825 
Q 1016 2553 972 2059 
L 3022 2063 
z
" transform="scale(0.015625)"/>
       <path id="DejaVuSans-74" d="M 1172 4494 
L 1172 3500 
L 2356 3500 
L 2356 3053 
L 1172 3053 
L 1172 1153 
Q 1172 725 1289 603 
Q 1406 481 1766 481 
L 2356 481 
L 2356 0 
L 1766 0 
Q 1100 0 847 248 
Q 594 497 594 1153 
L 594 3053 
L 172 3053 
L 172 3500 
L 594 3500 
L 594 4494 
L 1172 4494 
z
" transform="scale(0.015625)"/>
       <path id="DejaVuSans-69" d="M 603 3500 
L 1178 3500 
L 1178 0 
L 603 0 
L 603 3500 
z
M 603 4863 
L 1178 4863 
L 1178 4134 
L 603 4134 
L 603 4863 
z
" transform="scale(0.015625)"/>
       <path id="DejaVuSans-6e" d="M 3513 2113 
L 3513 0 
L 2938 0 
L 2938 2094 
Q 2938 2591 2744 2837 
Q 2550 3084 2163 3084 
Q 1697 3084 1428 2787 
Q 1159 2491 1159 1978 
L 1159 0 
L 581 0 
L 581 3500 
L 1159 3500 
L 1159 2956 
Q 1366 3272 1645 3428 
Q 1925 3584 2291 3584 
Q 2894 3584 3203 3211 
Q 3513 2838 3513 2113 
z
" transform="scale(0.015625)"/>
       <path id="DejaVuSans-54" d="M -19 4666 
L 3928 4666 
L 3928 4134 
L 2272 4134 
L 2272 0 
L 1638 0 
L 1638 4134 
L -19 4134 
L -19 4666 
z
" transform="scale(0.015625)"/>
       <path id="DejaVuSans-28" d="M 1984 4856 
Q 1566 4138 1362 3434 
Q 1159 2731 1159 2009 
Q 1159 1288 1364 580 
Q 1569 -128 1984 -844 
L 1484 -844 
Q 1016 -109 783 600 
Q 550 1309 550 2009 
Q 550 2706 781 3412 
Q 1013 4119 1484 4856 
L 1984 4856 
z
" transform="scale(0.015625)"/>
       <path id="DejaVuSans-75" d="M 544 1381 
L 544 3500 
L 1119 3500 
L 1119 1403 
Q 1119 906 1312 657 
Q 1506 409 1894 409 
Q 2359 409 2629 706 
Q 2900 1003 2900 1516 
L 2900 3500 
L 3475 3500 
L 3475 0 
L 2900 0 
L 2900 538 
Q 2691 219 2414 64 
Q 2138 -91 1772 -91 
Q 1169 -91 856 284 
Q 544 659 544 1381 
z
M 1991 3584 
L 1991 3584 
z
" transform="scale(0.015625)"/>
       <path id="DejaVuSans-73" d="M 2834 3397 
L 2834 2853 
Q 2591 2978 2328 3040 
Q 2066 3103 1784 3103 
Q 1356 3103 1142 2972 
Q 928 2841 928 2578 
Q 928 2378 1081 2264 
Q 1234 2150 1697 2047 
L 1894 2003 
Q 2506 1872 2764 1633 
Q 3022 1394 3022 966 
Q 3022 478 2636 193 
Q 2250 -91 1575 -91 
Q 1294 -91 989 -36 
Q 684 19 347 128 
L 347 722 
Q 666 556 975 473 
Q 1284 391 1588 391 
Q 1994 391 2212 530 
Q 2431 669 2431 922 
Q 2431 1156 2273 1281 
Q 2116 1406 1581 1522 
L 1381 1569 
Q 847 1681 609 1914 
Q 372 2147 372 2553 
Q 372 3047 722 3315 
Q 1072 3584 1716 3584 
Q 2034 3584 2315 3537 
Q 2597 3491 2834 3397 
z
" transform="scale(0.015625)"/>
       <path id="DejaVuSans-29" d="M 513 4856 
L 1013 4856 
Q 1481 4119 1714 3412 
Q 1947 2706 1947 2009 
Q 1947 1309 1714 600 
Q 1481 -109 1013 -844 
L 513 -844 
Q 928 -128 1133 580 
Q 1338 1288 1338 2009 
Q 1338 2731 1133 3434 
Q 928 4138 513 4856 
z
" transform="scale(0.015625)"/>
      </defs>
      <use xlink:href="#DejaVuSans-46"/>
      <use xlink:href="#DejaVuSans-6c" x="57.519531"/>
      <use xlink:href="#DejaVuSans-6f" x="85.302734"/>
      <use xlink:href="#DejaVuSans-77" x="146.484375"/>
      <use xlink:href="#DejaVuSans-20" x="228.271484"/>
      <use xlink:href="#DejaVuSans-43" x="260.058594"/>
      <use xlink:href="#DejaVuSans-6f" x="329.882812"/>
      <use xlink:href="#DejaVuSans-6d" x="391.064453"/>
      <use xlink:href="#DejaVuSans-70" x="488.476562"/>
      <use xlink:href="#DejaVuSans-6c" x="551.953125"/>
      <use xlink:href="#DejaVuSans-65" x="579.736328"/>
      <use xlink:href="#DejaVuSans-74" x="641.259766"/>
      <use xlink:href="#DejaVuSans-69" x="680.46875"/>
      <use xlink:href="#DejaVuSans-6f" x="708.251953"/>
      <use xlink:href="#DejaVuSans-6e" x="769.433594"/>
      <use xlink:href="#DejaVuSans-20" x="832.8125"/>
      <use xlink:href="#DejaVuSans-54" x="864.599609"/>
      <use xlink:href="#DejaVuSans-69" x="922.558594"/>
      <use xlink:href="#DejaVuSans-6d" x="950.341797"/>
      <use xlink:href="#DejaVuSans-65" x="1047.753906"/>
      <use xlink:href="#DejaVuSans-20" x="1109.277344"/>
      <use xlink:href="#DejaVuSans-28" x="1141.064453"/>
      <use xlink:href="#DejaVuSans-75" x="1180.078125"/>
      <use xlink:href="#DejaVuSans-73" x="1243.457031"/>
      <use xlink:href="#DejaVuSans-29" x="1295.556641"/>
     </g>
    </g>
   </g>
   <g id="matplotlib.axis_2">
    <g id="ytick_1">
     <g id="line2d_11">
      <path d="M 58.5075 291.344427 
L 488.6875 291.344427 
" clip-path="url(#p20243be5c9)" style="fill: none; stroke: #b0b0b0; stroke-width: 0.8; stroke-linecap: square"/>
     </g>
     <g id="line2d_12">
      <defs>
       <path id="m5a975e0eb2" d="M 0 0 
L -3.5 0 
" style="stroke: #000000; stroke-width: 0.8"/>
      </defs>
      <g>
       <use xlink:href="#m5a975e0eb2" x="58.5075" y="291.344427" style="stroke: #000000; stroke-width: 0.8"/>
      </g>
     </g>
     <g id="text_7">
      <!-- 0.0 -->
      <g transform="translate(27.652812 297.043255) scale(0.15 -0.15)">
       <defs>
        <path id="DejaVuSans-2e" d="M 684 794 
L 1344 794 
L 1344 0 
L 684 0 
L 684 794 
z
" transform="scale(0.015625)"/>
       </defs>
       <use xlink:href="#DejaVuSans-30"/>
       <use xlink:href="#DejaVuSans-2e" x="63.623047"/>
       <use xlink:href="#DejaVuSans-30" x="95.410156"/>
      </g>
     </g>
    </g>
    <g id="ytick_2">
     <g id="line2d_13">
      <path d="M 58.5075 244.433757 
L 488.6875 244.433757 
" clip-path="url(#p20243be5c9)" style="fill: none; stroke: #b0b0b0; stroke-width: 0.8; stroke-linecap: square"/>
     </g>
     <g id="line2d_14">
      <g>
       <use xlink:href="#m5a975e0eb2" x="58.5075" y="244.433757" style="stroke: #000000; stroke-width: 0.8"/>
      </g>
     </g>
     <g id="text_8">
      <!-- 0.2 -->
      <g transform="translate(27.652812 250.132586) scale(0.15 -0.15)">
       <use xlink:href="#DejaVuSans-30"/>
       <use xlink:href="#DejaVuSans-2e" x="63.623047"/>
       <use xlink:href="#DejaVuSans-32" x="95.410156"/>
      </g>
     </g>
    </g>
    <g id="ytick_3">
     <g id="line2d_15">
      <path d="M 58.5075 197.523088 
L 488.6875 197.523088 
" clip-path="url(#p20243be5c9)" style="fill: none; stroke: #b0b0b0; stroke-width: 0.8; stroke-linecap: square"/>
     </g>
     <g id="line2d_16">
      <g>
       <use xlink:href="#m5a975e0eb2" x="58.5075" y="197.523088" style="stroke: #000000; stroke-width: 0.8"/>
      </g>
     </g>
     <g id="text_9">
      <!-- 0.4 -->
      <g transform="translate(27.652812 203.221916) scale(0.15 -0.15)">
       <defs>
        <path id="DejaVuSans-34" d="M 2419 4116 
L 825 1625 
L 2419 1625 
L 2419 4116 
z
M 2253 4666 
L 3047 4666 
L 3047 1625 
L 3713 1625 
L 3713 1100 
L 3047 1100 
L 3047 0 
L 2419 0 
L 2419 1100 
L 313 1100 
L 313 1709 
L 2253 4666 
z
" transform="scale(0.015625)"/>
       </defs>
       <use xlink:href="#DejaVuSans-30"/>
       <use xlink:href="#DejaVuSans-2e" x="63.623047"/>
       <use xlink:href="#DejaVuSans-34" x="95.410156"/>
      </g>
     </g>
    </g>
    <g id="ytick_4">
     <g id="line2d_17">
      <path d="M 58.5075 150.612419 
L 488.6875 150.612419 
" clip-path="url(#p20243be5c9)" style="fill: none; stroke: #b0b0b0; stroke-width: 0.8; stroke-linecap: square"/>
     </g>
     <g id="line2d_18">
      <g>
       <use xlink:href="#m5a975e0eb2" x="58.5075" y="150.612419" style="stroke: #000000; stroke-width: 0.8"/>
      </g>
     </g>
     <g id="text_10">
      <!-- 0.6 -->
      <g transform="translate(27.652812 156.311247) scale(0.15 -0.15)">
       <defs>
        <path id="DejaVuSans-36" d="M 2113 2584 
Q 1688 2584 1439 2293 
Q 1191 2003 1191 1497 
Q 1191 994 1439 701 
Q 1688 409 2113 409 
Q 2538 409 2786 701 
Q 3034 994 3034 1497 
Q 3034 2003 2786 2293 
Q 2538 2584 2113 2584 
z
M 3366 4563 
L 3366 3988 
Q 3128 4100 2886 4159 
Q 2644 4219 2406 4219 
Q 1781 4219 1451 3797 
Q 1122 3375 1075 2522 
Q 1259 2794 1537 2939 
Q 1816 3084 2150 3084 
Q 2853 3084 3261 2657 
Q 3669 2231 3669 1497 
Q 3669 778 3244 343 
Q 2819 -91 2113 -91 
Q 1303 -91 875 529 
Q 447 1150 447 2328 
Q 447 3434 972 4092 
Q 1497 4750 2381 4750 
Q 2619 4750 2861 4703 
Q 3103 4656 3366 4563 
z
" transform="scale(0.015625)"/>
       </defs>
       <use xlink:href="#DejaVuSans-30"/>
       <use xlink:href="#DejaVuSans-2e" x="63.623047"/>
       <use xlink:href="#DejaVuSans-36" x="95.410156"/>
      </g>
     </g>
    </g>
    <g id="ytick_5">
     <g id="line2d_19">
      <path d="M 58.5075 103.701749 
L 488.6875 103.701749 
" clip-path="url(#p20243be5c9)" style="fill: none; stroke: #b0b0b0; stroke-width: 0.8; stroke-linecap: square"/>
     </g>
     <g id="line2d_20">
      <g>
       <use xlink:href="#m5a975e0eb2" x="58.5075" y="103.701749" style="stroke: #000000; stroke-width: 0.8"/>
      </g>
     </g>
     <g id="text_11">
      <!-- 0.8 -->
      <g transform="translate(27.652812 109.400577) scale(0.15 -0.15)">
       <use xlink:href="#DejaVuSans-30"/>
       <use xlink:href="#DejaVuSans-2e" x="63.623047"/>
       <use xlink:href="#DejaVuSans-38" x="95.410156"/>
      </g>
     </g>
    </g>
    <g id="ytick_6">
     <g id="line2d_21">
      <path d="M 58.5075 56.79108 
L 488.6875 56.79108 
" clip-path="url(#p20243be5c9)" style="fill: none; stroke: #b0b0b0; stroke-width: 0.8; stroke-linecap: square"/>
     </g>
     <g id="line2d_22">
      <g>
       <use xlink:href="#m5a975e0eb2" x="58.5075" y="56.79108" style="stroke: #000000; stroke-width: 0.8"/>
      </g>
     </g>
     <g id="text_12">
      <!-- 1.0 -->
      <g transform="translate(27.652812 62.489908) scale(0.15 -0.15)">
       <use xlink:href="#DejaVuSans-31"/>
       <use xlink:href="#DejaVuSans-2e" x="63.623047"/>
       <use xlink:href="#DejaVuSans-30" x="95.410156"/>
      </g>
     </g>
    </g>
    <g id="text_13">
     <!-- CDF (%) -->
     <g transform="translate(20.117344 207.945234) rotate(-90) scale(0.17 -0.17)">
      <defs>
       <path id="DejaVuSans-44" d="M 1259 4147 
L 1259 519 
L 2022 519 
Q 2988 519 3436 956 
Q 3884 1394 3884 2338 
Q 3884 3275 3436 3711 
Q 2988 4147 2022 4147 
L 1259 4147 
z
M 628 4666 
L 1925 4666 
Q 3281 4666 3915 4102 
Q 4550 3538 4550 2338 
Q 4550 1131 3912 565 
Q 3275 0 1925 0 
L 628 0 
L 628 4666 
z
" transform="scale(0.015625)"/>
       <path id="DejaVuSans-25" d="M 4653 2053 
Q 4381 2053 4226 1822 
Q 4072 1591 4072 1178 
Q 4072 772 4226 539 
Q 4381 306 4653 306 
Q 4919 306 5073 539 
Q 5228 772 5228 1178 
Q 5228 1588 5073 1820 
Q 4919 2053 4653 2053 
z
M 4653 2450 
Q 5147 2450 5437 2106 
Q 5728 1763 5728 1178 
Q 5728 594 5436 251 
Q 5144 -91 4653 -91 
Q 4153 -91 3862 251 
Q 3572 594 3572 1178 
Q 3572 1766 3864 2108 
Q 4156 2450 4653 2450 
z
M 1428 4353 
Q 1159 4353 1004 4120 
Q 850 3888 850 3481 
Q 850 3069 1003 2837 
Q 1156 2606 1428 2606 
Q 1700 2606 1854 2837 
Q 2009 3069 2009 3481 
Q 2009 3884 1853 4118 
Q 1697 4353 1428 4353 
z
M 4250 4750 
L 4750 4750 
L 1831 -91 
L 1331 -91 
L 4250 4750 
z
M 1428 4750 
Q 1922 4750 2215 4408 
Q 2509 4066 2509 3481 
Q 2509 2891 2217 2550 
Q 1925 2209 1428 2209 
Q 931 2209 642 2551 
Q 353 2894 353 3481 
Q 353 4063 643 4406 
Q 934 4750 1428 4750 
z
" transform="scale(0.015625)"/>
      </defs>
      <use xlink:href="#DejaVuSans-43"/>
      <use xlink:href="#DejaVuSans-44" x="69.824219"/>
      <use xlink:href="#DejaVuSans-46" x="146.826172"/>
      <use xlink:href="#DejaVuSans-20" x="204.345703"/>
      <use xlink:href="#DejaVuSans-28" x="236.132812"/>
      <use xlink:href="#DejaVuSans-25" x="275.146484"/>
      <use xlink:href="#DejaVuSans-29" x="370.166016"/>
     </g>
    </g>
   </g>
   <g id="line2d_23">
    <path d="M 369.539451 288.638042 
L 371.595382 285.931657 
L 372.18669 284.127401 
L 373.505761 282.323144 
L 373.887837 280.518888 
L 374.433659 278.714631 
L 374.86122 276.910375 
L 376.198485 275.106118 
L 376.325844 273.301862 
L 376.39862 271.497605 
L 377.126383 269.693349 
L 377.144578 267.889092 
L 377.481168 266.084836 
L 377.735885 264.280579 
L 378.509134 262.476323 
L 378.600104 260.672066 
L 378.681978 258.86781 
L 378.754754 257.063553 
L 378.836627 255.259297 
L 378.973083 253.45504 
L 379.009471 251.650784 
L 379.036762 249.846527 
L 379.091345 248.042271 
L 379.47342 246.238014 
L 379.655361 244.433757 
L 379.855496 242.629501 
L 379.955563 240.825244 
L 380.128407 239.020988 
L 380.164795 237.216731 
L 380.337639 235.412475 
L 380.42861 233.608218 
L 380.437707 231.803962 
L 380.51958 229.999705 
L 380.574162 228.195449 
L 380.747006 226.391192 
L 380.819782 224.586936 
L 381.101791 222.782679 
L 381.311023 220.076294 
L 381.365605 217.36991 
L 381.729487 215.565653 
L 381.820457 213.761397 
L 381.847748 211.95714 
L 381.884136 210.152884 
L 381.90233 208.348627 
L 381.96601 206.544371 
L 382.05698 204.740114 
L 382.102465 202.935858 
L 382.138853 200.229473 
L 382.348085 197.523088 
L 382.45725 195.718831 
L 382.511832 193.914575 
L 382.530026 192.110318 
L 382.602803 190.306062 
L 382.639191 188.501805 
L 382.721064 186.697549 
L 382.730161 184.893292 
L 382.866617 183.089036 
L 382.903005 181.284779 
L 382.912102 178.578395 
L 382.993975 175.87201 
L 383.048558 174.067753 
L 383.057655 172.263497 
L 383.212304 170.45924 
L 383.221401 168.654984 
L 383.285081 166.850727 
L 383.43973 165.046471 
L 383.621671 163.242214 
L 383.630768 161.437958 
L 383.667157 159.633701 
L 383.676254 156.927316 
L 383.685351 154.220932 
L 383.812709 152.416675 
L 383.885486 150.612419 
L 383.894583 148.808162 
L 384.003747 147.003905 
L 384.049232 145.199649 
L 384.076523 143.395392 
L 384.140203 141.591136 
L 384.212979 139.786879 
L 384.276658 137.982623 
L 384.385823 136.178366 
L 384.431308 134.37411 
L 384.449502 132.569853 
L 384.567764 130.765597 
L 384.595055 128.96134 
L 384.658734 127.157084 
L 384.776996 125.352827 
L 384.822481 123.548571 
L 384.840675 121.744314 
L 384.913451 119.940058 
L 384.958936 118.135801 
L 384.986228 116.331545 
L 385.168168 114.527288 
L 385.204557 112.723032 
L 385.295527 110.918775 
L 385.341012 109.114519 
L 385.350109 107.310262 
L 385.422886 105.506006 
L 385.44108 103.701749 
L 385.732185 101.897493 
L 385.804961 100.093236 
L 385.823155 98.288979 
L 385.832252 96.484723 
L 385.941417 94.680466 
L 385.986902 92.87621 
L 386.187037 91.071953 
L 386.323493 89.267697 
L 386.359881 87.46344 
L 386.368978 85.659184 
L 386.596404 83.854927 
L 386.751054 81.148543 
L 386.869315 78.442158 
L 386.969383 76.637901 
L 387.087644 73.931516 
L 387.142226 71.225132 
L 387.251391 69.420875 
L 387.515205 67.616619 
L 387.524302 65.812362 
L 387.642564 64.008106 
L 387.897281 62.203849 
L 388.279357 60.399593 
L 388.670529 57.693208 
" clip-path="url(#p20243be5c9)" style="fill: none; stroke: #1f77b4; stroke-width: 2; stroke-linecap: square"/>
   </g>
   <g id="line2d_24">
    <path d="M 78.061136 288.638042 
L 111.520056 285.931657 
L 135.718187 284.127401 
L 143.132276 282.323144 
L 149.372847 280.518888 
L 151.219546 278.714631 
L 151.947309 276.910375 
L 155.167662 275.106118 
L 158.706411 273.301862 
L 161.399136 271.497605 
L 171.451367 269.693349 
L 171.478658 267.889092 
L 175.081086 266.084836 
L 177.83749 264.280579 
L 178.920038 262.476323 
L 181.212493 260.672066 
L 182.331429 258.86781 
L 182.51337 257.063553 
L 186.752591 255.259297 
L 189.208792 253.45504 
L 189.263375 251.650784 
L 190.727998 249.846527 
L 191.601314 248.042271 
L 192.274495 244.433757 
L 199.752264 242.629501 
L 201.962845 240.825244 
L 202.235756 237.216731 
L 206.293037 235.412475 
L 207.603011 233.608218 
L 209.431516 231.803962 
L 213.916358 228.195449 
L 214.089201 226.391192 
L 214.434889 224.586936 
L 215.180846 222.782679 
L 215.490146 220.978423 
L 217.100322 219.174166 
L 217.309554 217.36991 
L 222.376606 215.565653 
L 223.44096 213.761397 
L 226.197364 211.95714 
L 226.952418 210.152884 
L 228.60808 208.348627 
L 229.563269 204.740114 
L 231.68288 202.935858 
L 234.457478 201.131601 
L 234.994203 199.327345 
L 237.968936 197.523088 
L 239.588209 195.718831 
L 239.815636 192.110318 
L 243.054182 190.306062 
L 243.627296 188.501805 
L 244.791717 186.697549 
L 248.130332 183.089036 
L 249.176491 181.284779 
L 256.963559 179.480523 
L 257.79139 177.676266 
L 260.183912 175.87201 
L 262.303523 174.067753 
L 267.434254 172.263497 
L 268.989848 170.45924 
L 269.308245 168.654984 
L 270.745577 166.850727 
L 271.409661 165.046471 
L 271.673476 163.242214 
L 272.910673 161.437958 
L 273.729407 159.633701 
L 275.357778 157.829445 
L 276.722334 156.025188 
L 281.207175 154.220932 
L 281.771192 152.416675 
L 284.563984 150.612419 
L 285.828473 148.808162 
L 289.967627 147.003905 
L 290.731778 145.199649 
L 291.068369 143.395392 
L 292.996942 141.591136 
L 295.926189 139.786879 
L 296.735826 137.982623 
L 298.191352 136.178366 
L 304.677543 134.37411 
L 305.450792 132.569853 
L 309.535363 130.765597 
L 310.299515 128.96134 
L 310.690688 127.157084 
L 311.618586 125.352827 
L 312.118923 123.548571 
L 314.893521 121.744314 
L 317.322431 119.940058 
L 319.542109 118.135801 
L 326.319405 116.331545 
L 330.285716 114.527288 
L 333.333225 112.723032 
L 336.835586 110.918775 
L 344.777303 109.114519 
L 346.996981 107.310262 
L 347.724745 103.701749 
L 349.853452 101.897493 
L 349.908035 100.093236 
L 350.426566 98.288979 
L 351.845705 96.484723 
L 356.048538 94.680466 
L 363.662762 92.87621 
L 366.573815 91.071953 
L 367.201511 89.267697 
L 368.466 87.46344 
L 370.394573 85.659184 
L 374.178942 83.854927 
L 378.117961 80.246414 
L 379.755429 78.442158 
L 380.055631 76.637901 
L 381.047208 74.833645 
L 382.802938 73.029388 
L 390.799237 71.225132 
L 397.449175 69.420875 
L 401.197156 67.616619 
L 406.491634 65.812362 
L 409.439076 64.008106 
L 413.523647 62.203849 
L 423.184706 60.399593 
L 469.133864 57.693208 
L 469.133864 57.693208 
" clip-path="url(#p20243be5c9)" style="fill: none; stroke: #ff7f0e; stroke-width: 2; stroke-linecap: square"/>
   </g>
   <g id="line2d_25">
    <path d="M 145.479313 288.638042 
L 185.651849 285.931657 
L 190.209467 284.127401 
L 204.43724 282.323144 
L 206.229357 280.518888 
L 207.466555 278.714631 
L 208.048766 276.910375 
L 208.367162 275.106118 
L 211.933203 273.301862 
L 213.525185 271.497605 
L 214.107396 269.693349 
L 214.780577 267.889092 
L 215.280914 266.084836 
L 217.082128 264.280579 
L 217.7826 262.476323 
L 218.082803 260.672066 
L 218.392102 258.86781 
L 221.021147 257.063553 
L 222.167375 255.259297 
L 223.495543 253.45504 
L 223.914007 251.650784 
L 224.068656 249.846527 
L 232.101344 248.042271 
L 233.857073 246.238014 
L 233.966238 244.433757 
L 234.866845 242.629501 
L 235.194338 240.825244 
L 235.394473 239.020988 
L 235.785646 237.216731 
L 236.249595 235.412475 
L 239.051484 233.608218 
L 239.160649 231.803962 
L 239.83383 229.999705 
L 240.143129 228.195449 
L 240.97096 226.391192 
L 241.534976 224.586936 
L 244.154924 222.782679 
L 244.819008 220.978423 
L 244.837203 219.174166 
L 246.356409 217.36991 
L 250.168069 215.565653 
L 250.531951 213.761397 
L 250.613824 211.95714 
L 250.950415 210.152884 
L 251.860119 208.348627 
L 252.178515 206.544371 
L 253.979729 204.740114 
L 254.088894 202.935858 
L 254.798463 201.131601 
L 254.80756 199.327345 
L 255.235121 197.523088 
L 255.962885 195.718831 
L 256.354057 193.914575 
L 256.526901 192.110318 
L 256.736133 190.306062 
L 257.118209 188.501805 
L 257.30015 186.697549 
L 257.463896 184.893292 
L 257.736808 183.089036 
L 258.664706 181.284779 
L 259.41976 179.480523 
L 260.165718 177.676266 
L 260.193009 175.87201 
L 260.393144 174.067753 
L 260.77522 172.263497 
L 261.548468 170.45924 
L 262.085194 168.654984 
L 262.130679 166.850727 
L 263.286003 165.046471 
L 263.467944 163.242214 
L 264.022864 161.437958 
L 264.222998 159.633701 
L 264.441327 157.829445 
L 264.450425 156.025188 
L 264.614171 154.220932 
L 264.841597 152.416675 
L 266.342609 150.612419 
L 268.86249 148.808162 
L 269.062625 147.003905 
L 269.253663 145.199649 
L 269.808582 143.395392 
L 270.017814 141.591136 
L 270.572734 139.786879 
L 270.781966 137.982623 
L 271.164041 136.178366 
L 271.928193 134.37411 
L 272.492209 132.569853 
L 272.701441 130.765597 
L 274.020512 128.96134 
L 274.411685 127.157084 
L 274.802858 125.352827 
L 275.221322 123.548571 
L 275.375972 121.744314 
L 275.439651 119.940058 
L 275.512427 118.135801 
L 276.140123 116.331545 
L 276.331161 114.527288 
L 276.513102 112.723032 
L 276.840595 110.918775 
L 277.031633 109.114519 
L 277.095313 107.310262 
L 277.668426 105.506006 
L 277.859464 103.701749 
L 278.814653 100.995364 
L 279.005691 98.288979 
L 279.196729 96.484723 
L 279.578805 94.680466 
L 280.643159 92.87621 
L 282.271529 91.071953 
L 284.382043 89.267697 
L 285.873958 87.46344 
L 286.838244 85.659184 
L 287.31129 83.854927 
L 287.738851 82.050671 
L 288.584876 80.246414 
L 288.921467 78.442158 
L 289.512775 76.637901 
L 290.104082 74.833645 
L 290.267829 73.029388 
L 291.532318 71.225132 
L 292.587575 69.420875 
L 293.742899 67.616619 
L 299.901596 65.812362 
L 300.183604 64.008106 
L 300.283672 62.203849 
L 305.750994 60.399593 
L 308.352748 57.693208 
" clip-path="url(#p20243be5c9)" style="fill: none; stroke: #2ca02c; stroke-width: 2; stroke-linecap: square"/>
   </g>
   <g id="line2d_26">
    <path d="M 249.024753 301.177625 
L 249.024753 45.153625 
" clip-path="url(#p20243be5c9)" style="fill: none; stroke-dasharray: 7.4,3.2; stroke-dashoffset: 0; stroke: #808080; stroke-opacity: 0.5; stroke-width: 2"/>
   </g>
   <g id="patch_3">
    <path d="M 58.5075 301.177625 
L 58.5075 45.153625 
" style="fill: none; stroke: #000000; stroke-width: 0.8; stroke-linejoin: miter; stroke-linecap: square"/>
   </g>
   <g id="patch_4">
    <path d="M 488.6875 301.177625 
L 488.6875 45.153625 
" style="fill: none; stroke: #000000; stroke-width: 0.8; stroke-linejoin: miter; stroke-linecap: square"/>
   </g>
   <g id="patch_5">
    <path d="M 58.5075 301.177625 
L 488.6875 301.177625 
" style="fill: none; stroke: #000000; stroke-width: 0.8; stroke-linejoin: miter; stroke-linecap: square"/>
   </g>
   <g id="patch_6">
    <path d="M 58.5075 45.153625 
L 488.6875 45.153625 
" style="fill: none; stroke: #000000; stroke-width: 0.8; stroke-linejoin: miter; stroke-linecap: square"/>
   </g>
   <g id="text_14">
    <!-- Ideal Completion Time -->
    <g style="fill: #808080" transform="translate(105.7727 298.285182) rotate(-90) scale(0.15 -0.15)">
     <defs>
      <path id="DejaVuSans-49" d="M 628 4666 
L 1259 4666 
L 1259 0 
L 628 0 
L 628 4666 
z
" transform="scale(0.015625)"/>
      <path id="DejaVuSans-64" d="M 2906 2969 
L 2906 4863 
L 3481 4863 
L 3481 0 
L 2906 0 
L 2906 525 
Q 2725 213 2448 61 
Q 2172 -91 1784 -91 
Q 1150 -91 751 415 
Q 353 922 353 1747 
Q 353 2572 751 3078 
Q 1150 3584 1784 3584 
Q 2172 3584 2448 3432 
Q 2725 3281 2906 2969 
z
M 947 1747 
Q 947 1113 1208 752 
Q 1469 391 1925 391 
Q 2381 391 2643 752 
Q 2906 1113 2906 1747 
Q 2906 2381 2643 2742 
Q 2381 3103 1925 3103 
Q 1469 3103 1208 2742 
Q 947 2381 947 1747 
z
" transform="scale(0.015625)"/>
      <path id="DejaVuSans-61" d="M 2194 1759 
Q 1497 1759 1228 1600 
Q 959 1441 959 1056 
Q 959 750 1161 570 
Q 1363 391 1709 391 
Q 2188 391 2477 730 
Q 2766 1069 2766 1631 
L 2766 1759 
L 2194 1759 
z
M 3341 1997 
L 3341 0 
L 2766 0 
L 2766 531 
Q 2569 213 2275 61 
Q 1981 -91 1556 -91 
Q 1019 -91 701 211 
Q 384 513 384 1019 
Q 384 1609 779 1909 
Q 1175 2209 1959 2209 
L 2766 2209 
L 2766 2266 
Q 2766 2663 2505 2880 
Q 2244 3097 1772 3097 
Q 1472 3097 1187 3025 
Q 903 2953 641 2809 
L 641 3341 
Q 956 3463 1253 3523 
Q 1550 3584 1831 3584 
Q 2591 3584 2966 3190 
Q 3341 2797 3341 1997 
z
" transform="scale(0.015625)"/>
     </defs>
     <use xlink:href="#DejaVuSans-49"/>
     <use xlink:href="#DejaVuSans-64" x="29.492188"/>
     <use xlink:href="#DejaVuSans-65" x="92.96875"/>
     <use xlink:href="#DejaVuSans-61" x="154.492188"/>
     <use xlink:href="#DejaVuSans-6c" x="215.771484"/>
     <use xlink:href="#DejaVuSans-20" x="243.554688"/>
     <use xlink:href="#DejaVuSans-43" x="275.341797"/>
     <use xlink:href="#DejaVuSans-6f" x="345.166016"/>
     <use xlink:href="#DejaVuSans-6d" x="406.347656"/>
     <use xlink:href="#DejaVuSans-70" x="503.759766"/>
     <use xlink:href="#DejaVuSans-6c" x="567.236328"/>
     <use xlink:href="#DejaVuSans-65" x="595.019531"/>
     <use xlink:href="#DejaVuSans-74" x="656.542969"/>
     <use xlink:href="#DejaVuSans-69" x="695.751953"/>
     <use xlink:href="#DejaVuSans-6f" x="723.535156"/>
     <use xlink:href="#DejaVuSans-6e" x="784.716797"/>
     <use xlink:href="#DejaVuSans-20" x="848.095703"/>
     <use xlink:href="#DejaVuSans-54" x="879.882812"/>
     <use xlink:href="#DejaVuSans-69" x="937.841797"/>
     <use xlink:href="#DejaVuSans-6d" x="965.625"/>
     <use xlink:href="#DejaVuSans-65" x="1063.037109"/>
    </g>
   </g>
   <g id="text_15">
    <!-- Permutation 4:1 oversubscription 32MiB -->
    <g transform="translate(102.786016 20.117344) scale(0.17 -0.17)">
     <defs>
      <path id="DejaVuSans-50" d="M 1259 4147 
L 1259 2394 
L 2053 2394 
Q 2494 2394 2734 2622 
Q 2975 2850 2975 3272 
Q 2975 3691 2734 3919 
Q 2494 4147 2053 4147 
L 1259 4147 
z
M 628 4666 
L 2053 4666 
Q 2838 4666 3239 4311 
Q 3641 3956 3641 3272 
Q 3641 2581 3239 2228 
Q 2838 1875 2053 1875 
L 1259 1875 
L 1259 0 
L 628 0 
L 628 4666 
z
" transform="scale(0.015625)"/>
      <path id="DejaVuSans-72" d="M 2631 2963 
Q 2534 3019 2420 3045 
Q 2306 3072 2169 3072 
Q 1681 3072 1420 2755 
Q 1159 2438 1159 1844 
L 1159 0 
L 581 0 
L 581 3500 
L 1159 3500 
L 1159 2956 
Q 1341 3275 1631 3429 
Q 1922 3584 2338 3584 
Q 2397 3584 2469 3576 
Q 2541 3569 2628 3553 
L 2631 2963 
z
" transform="scale(0.015625)"/>
      <path id="DejaVuSans-3a" d="M 750 794 
L 1409 794 
L 1409 0 
L 750 0 
L 750 794 
z
M 750 3309 
L 1409 3309 
L 1409 2516 
L 750 2516 
L 750 3309 
z
" transform="scale(0.015625)"/>
      <path id="DejaVuSans-76" d="M 191 3500 
L 800 3500 
L 1894 563 
L 2988 3500 
L 3597 3500 
L 2284 0 
L 1503 0 
L 191 3500 
z
" transform="scale(0.015625)"/>
      <path id="DejaVuSans-62" d="M 3116 1747 
Q 3116 2381 2855 2742 
Q 2594 3103 2138 3103 
Q 1681 3103 1420 2742 
Q 1159 2381 1159 1747 
Q 1159 1113 1420 752 
Q 1681 391 2138 391 
Q 2594 391 2855 752 
Q 3116 1113 3116 1747 
z
M 1159 2969 
Q 1341 3281 1617 3432 
Q 1894 3584 2278 3584 
Q 2916 3584 3314 3078 
Q 3713 2572 3713 1747 
Q 3713 922 3314 415 
Q 2916 -91 2278 -91 
Q 1894 -91 1617 61 
Q 1341 213 1159 525 
L 1159 0 
L 581 0 
L 581 4863 
L 1159 4863 
L 1159 2969 
z
" transform="scale(0.015625)"/>
      <path id="DejaVuSans-63" d="M 3122 3366 
L 3122 2828 
Q 2878 2963 2633 3030 
Q 2388 3097 2138 3097 
Q 1578 3097 1268 2742 
Q 959 2388 959 1747 
Q 959 1106 1268 751 
Q 1578 397 2138 397 
Q 2388 397 2633 464 
Q 2878 531 3122 666 
L 3122 134 
Q 2881 22 2623 -34 
Q 2366 -91 2075 -91 
Q 1284 -91 818 406 
Q 353 903 353 1747 
Q 353 2603 823 3093 
Q 1294 3584 2113 3584 
Q 2378 3584 2631 3529 
Q 2884 3475 3122 3366 
z
" transform="scale(0.015625)"/>
      <path id="DejaVuSans-33" d="M 2597 2516 
Q 3050 2419 3304 2112 
Q 3559 1806 3559 1356 
Q 3559 666 3084 287 
Q 2609 -91 1734 -91 
Q 1441 -91 1130 -33 
Q 819 25 488 141 
L 488 750 
Q 750 597 1062 519 
Q 1375 441 1716 441 
Q 2309 441 2620 675 
Q 2931 909 2931 1356 
Q 2931 1769 2642 2001 
Q 2353 2234 1838 2234 
L 1294 2234 
L 1294 2753 
L 1863 2753 
Q 2328 2753 2575 2939 
Q 2822 3125 2822 3475 
Q 2822 3834 2567 4026 
Q 2313 4219 1838 4219 
Q 1578 4219 1281 4162 
Q 984 4106 628 3988 
L 628 4550 
Q 988 4650 1302 4700 
Q 1616 4750 1894 4750 
Q 2613 4750 3031 4423 
Q 3450 4097 3450 3541 
Q 3450 3153 3228 2886 
Q 3006 2619 2597 2516 
z
" transform="scale(0.015625)"/>
      <path id="DejaVuSans-4d" d="M 628 4666 
L 1569 4666 
L 2759 1491 
L 3956 4666 
L 4897 4666 
L 4897 0 
L 4281 0 
L 4281 4097 
L 3078 897 
L 2444 897 
L 1241 4097 
L 1241 0 
L 628 0 
L 628 4666 
z
" transform="scale(0.015625)"/>
      <path id="DejaVuSans-42" d="M 1259 2228 
L 1259 519 
L 2272 519 
Q 2781 519 3026 730 
Q 3272 941 3272 1375 
Q 3272 1813 3026 2020 
Q 2781 2228 2272 2228 
L 1259 2228 
z
M 1259 4147 
L 1259 2741 
L 2194 2741 
Q 2656 2741 2882 2914 
Q 3109 3088 3109 3444 
Q 3109 3797 2882 3972 
Q 2656 4147 2194 4147 
L 1259 4147 
z
M 628 4666 
L 2241 4666 
Q 2963 4666 3353 4366 
Q 3744 4066 3744 3513 
Q 3744 3084 3544 2831 
Q 3344 2578 2956 2516 
Q 3422 2416 3680 2098 
Q 3938 1781 3938 1306 
Q 3938 681 3513 340 
Q 3088 0 2303 0 
L 628 0 
L 628 4666 
z
" transform="scale(0.015625)"/>
     </defs>
     <use xlink:href="#DejaVuSans-50"/>
     <use xlink:href="#DejaVuSans-65" x="56.677734"/>
     <use xlink:href="#DejaVuSans-72" x="118.201172"/>
     <use xlink:href="#DejaVuSans-6d" x="157.564453"/>
     <use xlink:href="#DejaVuSans-75" x="254.976562"/>
     <use xlink:href="#DejaVuSans-74" x="318.355469"/>
     <use xlink:href="#DejaVuSans-61" x="357.564453"/>
     <use xlink:href="#DejaVuSans-74" x="418.84375"/>
     <use xlink:href="#DejaVuSans-69" x="458.052734"/>
     <use xlink:href="#DejaVuSans-6f" x="485.835938"/>
     <use xlink:href="#DejaVuSans-6e" x="547.017578"/>
     <use xlink:href="#DejaVuSans-20" x="610.396484"/>
     <use xlink:href="#DejaVuSans-34" x="642.183594"/>
     <use xlink:href="#DejaVuSans-3a" x="705.806641"/>
     <use xlink:href="#DejaVuSans-31" x="739.498047"/>
     <use xlink:href="#DejaVuSans-20" x="803.121094"/>
     <use xlink:href="#DejaVuSans-6f" x="834.908203"/>
     <use xlink:href="#DejaVuSans-76" x="896.089844"/>
     <use xlink:href="#DejaVuSans-65" x="955.269531"/>
     <use xlink:href="#DejaVuSans-72" x="1016.792969"/>
     <use xlink:href="#DejaVuSans-73" x="1057.90625"/>
     <use xlink:href="#DejaVuSans-75" x="1110.005859"/>
     <use xlink:href="#DejaVuSans-62" x="1173.384766"/>
     <use xlink:href="#DejaVuSans-73" x="1236.861328"/>
     <use xlink:href="#DejaVuSans-63" x="1288.960938"/>
     <use xlink:href="#DejaVuSans-72" x="1343.941406"/>
     <use xlink:href="#DejaVuSans-69" x="1385.054688"/>
     <use xlink:href="#DejaVuSans-70" x="1412.837891"/>
     <use xlink:href="#DejaVuSans-74" x="1476.314453"/>
     <use xlink:href="#DejaVuSans-69" x="1515.523438"/>
     <use xlink:href="#DejaVuSans-6f" x="1543.306641"/>
     <use xlink:href="#DejaVuSans-6e" x="1604.488281"/>
     <use xlink:href="#DejaVuSans-20" x="1667.867188"/>
     <use xlink:href="#DejaVuSans-33" x="1699.654297"/>
     <use xlink:href="#DejaVuSans-32" x="1763.277344"/>
     <use xlink:href="#DejaVuSans-4d" x="1826.900391"/>
     <use xlink:href="#DejaVuSans-69" x="1913.179688"/>
     <use xlink:href="#DejaVuSans-42" x="1940.962891"/>
    </g>
    <!-- Link Speed 800Gbps - 4KiB MTU -->
    <g transform="translate(137.015781 39.153625) scale(0.17 -0.17)">
     <defs>
      <path id="DejaVuSans-4c" d="M 628 4666 
L 1259 4666 
L 1259 531 
L 3531 531 
L 3531 0 
L 628 0 
L 628 4666 
z
" transform="scale(0.015625)"/>
      <path id="DejaVuSans-6b" d="M 581 4863 
L 1159 4863 
L 1159 1991 
L 2875 3500 
L 3609 3500 
L 1753 1863 
L 3688 0 
L 2938 0 
L 1159 1709 
L 1159 0 
L 581 0 
L 581 4863 
z
" transform="scale(0.015625)"/>
      <path id="DejaVuSans-53" d="M 3425 4513 
L 3425 3897 
Q 3066 4069 2747 4153 
Q 2428 4238 2131 4238 
Q 1616 4238 1336 4038 
Q 1056 3838 1056 3469 
Q 1056 3159 1242 3001 
Q 1428 2844 1947 2747 
L 2328 2669 
Q 3034 2534 3370 2195 
Q 3706 1856 3706 1288 
Q 3706 609 3251 259 
Q 2797 -91 1919 -91 
Q 1588 -91 1214 -16 
Q 841 59 441 206 
L 441 856 
Q 825 641 1194 531 
Q 1563 422 1919 422 
Q 2459 422 2753 634 
Q 3047 847 3047 1241 
Q 3047 1584 2836 1778 
Q 2625 1972 2144 2069 
L 1759 2144 
Q 1053 2284 737 2584 
Q 422 2884 422 3419 
Q 422 4038 858 4394 
Q 1294 4750 2059 4750 
Q 2388 4750 2728 4690 
Q 3069 4631 3425 4513 
z
" transform="scale(0.015625)"/>
      <path id="DejaVuSans-47" d="M 3809 666 
L 3809 1919 
L 2778 1919 
L 2778 2438 
L 4434 2438 
L 4434 434 
Q 4069 175 3628 42 
Q 3188 -91 2688 -91 
Q 1594 -91 976 548 
Q 359 1188 359 2328 
Q 359 3472 976 4111 
Q 1594 4750 2688 4750 
Q 3144 4750 3555 4637 
Q 3966 4525 4313 4306 
L 4313 3634 
Q 3963 3931 3569 4081 
Q 3175 4231 2741 4231 
Q 1884 4231 1454 3753 
Q 1025 3275 1025 2328 
Q 1025 1384 1454 906 
Q 1884 428 2741 428 
Q 3075 428 3337 486 
Q 3600 544 3809 666 
z
" transform="scale(0.015625)"/>
      <path id="DejaVuSans-2d" d="M 313 2009 
L 1997 2009 
L 1997 1497 
L 313 1497 
L 313 2009 
z
" transform="scale(0.015625)"/>
      <path id="DejaVuSans-4b" d="M 628 4666 
L 1259 4666 
L 1259 2694 
L 3353 4666 
L 4166 4666 
L 1850 2491 
L 4331 0 
L 3500 0 
L 1259 2247 
L 1259 0 
L 628 0 
L 628 4666 
z
" transform="scale(0.015625)"/>
      <path id="DejaVuSans-55" d="M 556 4666 
L 1191 4666 
L 1191 1831 
Q 1191 1081 1462 751 
Q 1734 422 2344 422 
Q 2950 422 3222 751 
Q 3494 1081 3494 1831 
L 3494 4666 
L 4128 4666 
L 4128 1753 
Q 4128 841 3676 375 
Q 3225 -91 2344 -91 
Q 1459 -91 1007 375 
Q 556 841 556 1753 
L 556 4666 
z
" transform="scale(0.015625)"/>
     </defs>
     <use xlink:href="#DejaVuSans-4c"/>
     <use xlink:href="#DejaVuSans-69" x="55.712891"/>
     <use xlink:href="#DejaVuSans-6e" x="83.496094"/>
     <use xlink:href="#DejaVuSans-6b" x="146.875"/>
     <use xlink:href="#DejaVuSans-20" x="204.785156"/>
     <use xlink:href="#DejaVuSans-53" x="236.572266"/>
     <use xlink:href="#DejaVuSans-70" x="300.048828"/>
     <use xlink:href="#DejaVuSans-65" x="363.525391"/>
     <use xlink:href="#DejaVuSans-65" x="425.048828"/>
     <use xlink:href="#DejaVuSans-64" x="486.572266"/>
     <use xlink:href="#DejaVuSans-20" x="550.048828"/>
     <use xlink:href="#DejaVuSans-38" x="581.835938"/>
     <use xlink:href="#DejaVuSans-30" x="645.458984"/>
     <use xlink:href="#DejaVuSans-30" x="709.082031"/>
     <use xlink:href="#DejaVuSans-47" x="772.705078"/>
     <use xlink:href="#DejaVuSans-62" x="850.195312"/>
     <use xlink:href="#DejaVuSans-70" x="913.671875"/>
     <use xlink:href="#DejaVuSans-73" x="977.148438"/>
     <use xlink:href="#DejaVuSans-20" x="1029.248047"/>
     <use xlink:href="#DejaVuSans-2d" x="1061.035156"/>
     <use xlink:href="#DejaVuSans-20" x="1097.119141"/>
     <use xlink:href="#DejaVuSans-34" x="1128.90625"/>
     <use xlink:href="#DejaVuSans-4b" x="1192.529297"/>
     <use xlink:href="#DejaVuSans-69" x="1258.105469"/>
     <use xlink:href="#DejaVuSans-42" x="1285.888672"/>
     <use xlink:href="#DejaVuSans-20" x="1354.492188"/>
     <use xlink:href="#DejaVuSans-4d" x="1386.279297"/>
     <use xlink:href="#DejaVuSans-54" x="1472.558594"/>
     <use xlink:href="#DejaVuSans-55" x="1533.642578"/>
    </g>
   </g>
   <g id="legend_1"/>
  </g>
 </g>
 <defs>
  <clipPath id="p20243be5c9">
   <rect x="58.5075" y="45.153625" width="430.18" height="256.024"/>
  </clipPath>
 </defs>
</svg>
